<svg id="Layer_1" data-name="Layer 1" xmlns="http://www.w3.org/2000/svg" viewBox="0 0 840.29 477.71"><defs><style>.cls-1,.cls-2,.cls-3{fill:none;stroke:#003e6a;stroke-miterlimit:10;}.cls-1{stroke-width:1.5px;}.cls-3{stroke-width:0.5px;}</style></defs><title>TransparentCrown</title><path class="cls-1" d="M677.75,407.71c0,3.13-7.31,6.06-20.53,8.76-4.11.78-8.86,1.61-14.07,2.39-4.11.58-8.56,1.15-13.3,1.72s-9.75,1.11-15,1.59c-4.41.45-8.94.85-13.73,1.22-4.57.4-9.36.76-14.27,1.08-4.41.32-8.94.6-13.6.87l-14.06.84-15.08.7c-4.45.19-9,.38-13.6.53-4.11.2-8.26.31-12.45.46-4.53.15-9.15.3-13.81.41s-9.61.26-14.52.36-9.91.17-14.95.24-10.08.17-15.16.19c-5.3.06-10.68.08-16.1.1-4.78,0-9.57.05-14.44,0-3.55,0-7.11,0-10.71,0l-4.19,0c-4.49,0-9-.08-13.38-.14-5.08,0-10.12-.08-15.12-.15-5.34-.1-10.63-.17-15.84-.27-4.95-.11-9.82-.21-14.65-.36-5.8-.15-11.52-.3-17.15-.49-5.2-.19-10.33-.34-15.37-.53s-9.69-.42-14.43-.65-9.4-.42-14-.65c-4.78-.23-9.44-.5-14.05-.77-4.83-.28-9.53-.59-14.14-.86-4.79-.36-9.44-.68-14-1-4.7-.36-9.27-.72-13.68-1.12-4.74-.4-9.35-.84-13.75-1.28s-8.38-.88-12.28-1.36-7.66-.92-11.17-1.4c-3.81-.52-7.37-1.09-10.67-1.61-3.68-.61-7.06-1.21-10.11-1.82-3.77-.82-7.11-1.59-9.9-2.36a43.1,43.1,0,0,1-8-3.08c-2.24-1.15-3.42-2.38-3.42-3.65,0-2.58,5.06-5.06,14.39-7.34,3.56-.88,7.76-1.75,12.5-2.53a10.85,10.85,0,0,1,1.31-.21c4.24-.74,9-1.44,14.12-2.1q6.41-.8,13.72-1.59c4.32-.45,8.86-.9,13.6-1.3,4.41-.41,8.94-.77,13.64-1.17q6.74-.48,14-1c.25,0,.47,0,.72,0,5-.32,10.25-.63,15.59-.95,5.08-.28,10.29-.55,15.63-.78,4.82-.24,9.74-.43,14.74-.62.21,0,.46,0,.67,0l16.14-.57,15.25-.44,15-.32c5-.11,10-.17,15.12-.24,5.38-.1,10.84-.17,16.34-.23,5.81,0,11.65-.08,17.54-.05,2.88,0,5.76,0,8.68,0,2.11,0,4.27,0,6.48,0l4.27,0c3.6,0,7.16,0,10.72.09a6.61,6.61,0,0,1,.89,0c5.12,0,10.2.09,15.2.15l13.55.18,14.18.31q6.93.15,13.72.35l15.5.45,14.27.56c5,.19,9.86.38,14.65.61,4.53.19,9,.42,13.42.65.17,0,.34,0,.46,0l12.37.69c3.93.23,7.79.45,11.6.72l11.6.81c.17,0,.29,0,.42,0,4.49.32,8.85.68,13,1s8.47.79,12.49,1.15,7.87.79,11.6,1.19c4,.44,7.78.88,11.38,1.36,4.06.48,7.87,1,11.47,1.56,4,.57,7.7,1.18,11.09,1.83h.21c3.55.69,6.77,1.34,9.6,2a77.23,77.23,0,0,1,9.18,2.75C675.48,404.23,677.76,406,677.75,407.71Z"/><path class="cls-1" d="M342.83,324.72c27.74-42.73,49-70.52,74.24-95.5a3.43,3.43,0,0,1,2.54-1,3.61,3.61,0,0,1,2.29,1.06c25,25.14,46.32,53.1,73.67,96,0,.05,0,.09.09.13"/><path class="cls-1" d="M159.09,405.6c2-59.42,2.42-103.83,3.71-120.32a4.62,4.62,0,0,1,2-3.62,3.44,3.44,0,0,1,4,.18c20,15.27,48.32,40.84,88.41,76"/><path class="cls-1" d="M407.76,384.07q-23.86-21.48-44.18-39.9c-7.34-6.62-14.38-13-21.09-19.07-31.69-28.47-56.42-50.18-76.22-65.36a3.36,3.36,0,0,0-4.14-.15,4.54,4.54,0,0,0-1.88,3.51c-1.12,14.24-1.68,49.22-2.93,94.77-.29,9.72-.63,20-1,30.53"/><path class="cls-1" d="M677.75,407.71c-1.53-60.19-1.56-104.9-2.77-120.93a4.28,4.28,0,0,0-1.38-3,3.23,3.23,0,0,0-4.24-.23c-20.13,15.06-48.78,40.53-89.45,75.6"/><path class="cls-1" d="M429.23,384.16c15.81-14,30.39-27,43.9-39,7.86-7,15.3-13.64,22.44-20,31.71-28,56.48-49.38,76.28-64.31a3.31,3.31,0,0,1,3.93-.16,4.62,4.62,0,0,1,1.94,3.52c1,14.18,1.28,49.2,2.19,94.92.22,9.73.47,20,.73,30.54"/><line class="cls-2" x1="262.46" y1="260.19" x2="303.03" y2="386.01"/><polyline class="cls-2" points="575.87 260.36 575.78 260.74 544.65 386.99"/><line class="cls-2" x1="673.38" y1="284.02" x2="652.13" y2="397.84"/><line class="cls-2" x1="165.02" y1="281.95" x2="185.98" y2="395.73"/><line class="cls-2" x1="419.61" y1="228.22" x2="363.58" y2="344.17"/><line class="cls-2" x1="419.61" y1="228.22" x2="472.62" y2="344.62"/><polyline class="cls-3" points="190.26 416.76 190.51 416.51 215.13 391.87"/><polyline class="cls-3" points="180.44 414.44 201.41 393.42 201.87 392.96"/><polyline class="cls-3" points="170.37 412.45 170.5 412.33 187.29 395.52 187.34 395.48"/><polyline class="cls-3" points="162.47 409.29 162.51 409.25 173.48 398.25"/><polyline class="cls-3" points="200.97 418.33 201.18 418.12 228.73 390.53 228.94 390.32"/><polyline class="cls-3" points="212.14 419.73 212.35 419.52 242.37 389.4"/><polyline class="cls-3" points="224.54 420.96 224.63 420.88 257.07 388.36 257.15 388.28"/><polyline class="cls-3" points="238.21 422.33 238.38 422.16 272.7 387.79"/><polyline class="cls-3" points="252.01 423.32 252.06 423.27 288.29 386.96"/><line class="cls-3" x1="266.07" y1="423.97" x2="303.7" y2="386.27"/><polyline class="cls-3" points="280.13 425.21 280.17 425.17 319.84 385.4"/><polyline class="cls-3" points="294.01 426.15 294.22 425.94 335.09 384.96"/><polyline class="cls-3" points="308.15 426.63 308.2 426.59 350.08 384.64 350.33 384.38"/><polyline class="cls-3" points="322.38 427.5 322.63 427.24 365.2 384.57"/><polyline class="cls-3" points="337.92 427.86 338 427.77 381.54 384.17"/><polyline class="cls-3" points="355.07 428.35 355.15 428.26 399.08 384.24"/><polyline class="cls-3" points="369.8 428.62 414.24 384.09 414.58 383.76"/><polyline class="cls-3" points="385.64 428.77 430.12 384.2 430.58 383.74"/><polyline class="cls-3" points="400.67 429.13 400.76 429.04 445.32 384.39"/><line class="cls-3" x1="414.14" y1="429.18" x2="458.87" y2="384.53"/><line class="cls-3" x1="429.05" y1="428.73" x2="473.05" y2="384.84"/><line class="cls-3" x1="443.49" y1="428.83" x2="486.77" y2="385.66"/><line class="cls-3" x1="459.58" y1="428.73" x2="502.27" y2="386.14"/><line class="cls-3" x1="474.74" y1="428.33" x2="516.54" y2="386.63"/><line class="cls-3" x1="489.69" y1="428.47" x2="531.19" y2="387.07"/><polyline class="cls-3" points="503.7 428.78 504.21 428.28 545.08 387.5"/><line class="cls-3" x1="518.02" y1="427.87" x2="557.44" y2="388.48"/><polyline class="cls-3" points="529.96 427.92 530.47 427.41 569.04 388.91 569.42 388.53"/><polyline class="cls-3" points="543.64 427.3 544.07 426.88 581.06 389.93"/><line class="cls-3" x1="559.15" y1="426.09" x2="594.05" y2="391.26"/><line class="cls-3" x1="573.21" y1="425.22" x2="606.59" y2="391.9"/><line class="cls-3" x1="586.81" y1="424.39" x2="618.19" y2="393.09"/><polyline class="cls-3" points="601.04 422.92 629.57 394.44 629.95 394.07"/><polyline class="cls-3" points="614.81 422.17 641.04 396.01 641.08 395.97"/><polyline class="cls-3" points="629.8 420.33 652.34 397.84 652.85 397.33"/><line class="cls-3" x1="643.15" y1="418.82" x2="661.9" y2="400.12"/><line class="cls-1" x1="671.12" y1="402.61" x2="671.51" y2="402.23"/><polyline class="cls-3" points="656.92 416.76 657.22 416.47 671.12 402.61"/><polygon class="cls-2" points="561.47 50.1 556.61 175.02 530.06 171.1 561.47 50.1"/><polygon class="cls-2" points="292.72 50.35 300.85 175.11 327.29 170.5 292.72 50.35"/><polygon class="cls-2" points="706.34 87.25 662.94 204.49 638.92 192.52 706.34 87.25"/><polygon class="cls-2" points="825.22 160.15 753.02 262.21 732.9 244.45 825.22 160.15"/><polygon class="cls-2" points="141.3 87.25 184.7 204.49 208.72 192.52 141.3 87.25"/><polygon class="cls-2" points="18.42 160.15 90.61 262.21 110.73 244.45 18.42 160.15"/><polygon class="cls-2" points="431.29 36.98 441.47 161.58 414.64 160.88 431.29 36.98"/></svg>