<svg id="Layer_1" data-name="Layer 1" xmlns="http://www.w3.org/2000/svg" viewBox="0 0 1303.28 802.45"><defs><style>.cls-1{fill:#bfe7f7;}.cls-2,.cls-3,.cls-4{fill:none;stroke:#003e6a;stroke-miterlimit:10;}.cls-2{stroke-width:1.5px;}.cls-4{stroke-width:0.5px;}</style></defs><title>LBlueCrown</title><path class="cls-1" d="M889,394.11c1.17,16,1.24,60.74,2.77,120.93,0-1.77-2.27-3.48-6.62-5.14a81.15,81.15,0,0,0-9.22-2.75c-2.84-.64-6.06-1.33-9.57-2-.08,0-.17,0-.25,0l21.3-113.78.17-.21A4,4,0,0,1,889,394.11Z"/><path class="cls-1" d="M887.42,391.35l-21.3,113.78c-3.39-.61-7-1.22-11-1.83-3.6-.52-7.45-1-11.52-1.57-3.59-.43-7.4-.87-11.38-1.31-3.73-.4-7.58-.79-11.6-1.19s-8.17-.75-12.49-1.15-8.59-.67-13.08-1a1.46,1.46,0,0,1-.42,0c-.26-10.58-.51-20.77-.68-30.5,40.62-35.06,69.27-60.54,89.45-75.59a3.16,3.16,0,0,1,4.19.22Z"/><path class="cls-1" d="M794,466.51c.17,9.73.42,19.92.68,30.5-3.77-.27-7.62-.54-11.56-.77-3.77-.27-7.66-.49-11.6-.72s-8.17-.5-12.4-.73h-.43l.05-.46L789.82,368a4.65,4.65,0,0,1,1.93,3.56C792.79,385.77,793,420.83,794,466.51Z"/><path class="cls-1" d="M709.6,432.59c-7.14,6.27-14.57,12.92-22.44,19.91l-.5-.55-53-116.44a3.28,3.28,0,0,1,2.24,1.06C660.94,361.76,682.21,389.67,709.6,432.59Z"/><path class="cls-1" d="M785.88,368.19a3.39,3.39,0,0,1,3.94-.16l-31.13,126.3-.05.46-13.46-.69c-4.79-.19-9.7-.42-14.65-.57-4.66-.23-9.44-.37-14.27-.56-5.08-.15-10.25-.34-15.45-.45-4.54-.14-9.11-.24-13.77-.35l-14.14-.31-13.55-.18c-5-.06-10.08-.13-15.2-.15a3.32,3.32,0,0,0-.89,0v0c15.81-14,30.39-27,43.9-39,7.87-7,15.3-13.64,22.44-19.91C741.31,404.55,766.08,383.16,785.88,368.19Z"/><path class="cls-1" d="M631.1,336.55a3.39,3.39,0,0,1,2.55-1l-56,116c-7.39-6.71-14.43-13-21.14-19.07l.34-.38C584.56,389.32,605.85,361.53,631.1,336.55Z"/><path class="cls-1" d="M632.5,491.44h-4.23c-2.2,0-4.36,0-6.48,0v0q-23.92-21.54-44.17-39.9l56-116,53,116.44.5.55c-13.51,12-28.09,25-43.9,39v0C639.7,491.47,636.1,491.46,632.5,491.44Z"/><path class="cls-1" d="M564.11,492c-5.08.06-10.08.21-15,.32-5.17.15-10.25.25-15.25.44-5.46.15-10.84.34-16.13.53a4.41,4.41,0,0,1-.72,0L476.49,367.52l-.33-.6a3.44,3.44,0,0,1,4.15.11c19.75,15.18,44.48,36.93,76.17,65.4,6.71,6,13.75,12.36,21.14,19.07q20.31,18.36,44.17,39.9v0c-2.92,0-5.8,0-8.68,0-5.93,0-11.77,0-17.58.05l-16.3.19Q571.61,491.79,564.11,492Z"/><path class="cls-1" d="M476.49,367.52,517,493.3c-5,.19-9.91.42-14.7.62-5.34.27-10.59.54-15.67.82-5.3.27-10.46.59-15.51.91a5.36,5.36,0,0,1-.8,0c.38-10.57.68-20.81,1-30.49,1.29-45.55,1.81-80.52,3-94.77a4.66,4.66,0,0,1,1.88-3.51Z"/><path class="cls-1" d="M442.81,497.82c-4.75.44-9.32.89-13.65,1.34q-7.31.73-13.72,1.59c-5.13.66-9.83,1.32-14.11,2.06A11.38,11.38,0,0,0,400,503L379.05,389.28l-.17-.33a3.44,3.44,0,0,1,4,.22c20,15.23,48.37,40.84,88.45,76-.29,9.68-.59,19.92-1,30.49-4.79.36-9.45.68-13.94,1C451.7,497.05,447.17,497.46,442.81,497.82Z"/><path class="cls-1" d="M379.05,389.28,400,503c-4.74.82-8.94,1.65-12.5,2.52,0,0,0,0,0,0-9.29,2.24-14.34,4.72-14.35,7.34,2-59.46,2.42-103.82,3.71-120.31a4.65,4.65,0,0,1,2.09-3.67Z"/><path class="cls-2" d="M387.47,505.54c3.56-.87,7.76-1.7,12.5-2.52a11.38,11.38,0,0,1,1.36-.21c4.28-.74,9-1.4,14.11-2.06q6.42-.86,13.72-1.59c4.33-.45,8.9-.9,13.65-1.34,4.36-.36,8.89-.77,13.59-1.13,4.49-.32,9.15-.64,13.94-1a5.36,5.36,0,0,0,.8,0c5.05-.32,10.21-.64,15.51-.91,5.08-.28,10.33-.55,15.67-.82,4.79-.2,9.7-.43,14.7-.62a4.41,4.41,0,0,0,.72,0c5.29-.19,10.67-.38,16.13-.53,5-.19,10.08-.29,15.25-.44,4.91-.11,9.91-.26,15-.32s10-.21,15.12-.28l16.3-.19c5.81,0,11.65-.08,17.58-.05,2.88,0,5.76,0,8.68,0,2.12,0,4.28,0,6.48,0h4.23c3.6,0,7.2,0,10.76.09a3.32,3.32,0,0,1,.89,0c5.12,0,10.2.09,15.2.15l13.55.18,14.14.31c4.66.11,9.23.21,13.77.35,5.2.11,10.37.3,15.45.45,4.83.19,9.61.33,14.27.56,5,.15,9.86.38,14.65.57l13.46.69h.43c4.23.23,8.34.46,12.4.73s7.83.45,11.6.72c3.94.23,7.79.5,11.56.77a1.46,1.46,0,0,0,.42,0c4.49.36,8.85.72,13.08,1s8.47.75,12.49,1.15,7.87.79,11.6,1.19c4,.44,7.79.88,11.38,1.31,4.07.53,7.92,1,11.52,1.57,4,.61,7.61,1.22,11,1.83.08,0,.17,0,.25,0,3.51.65,6.73,1.34,9.57,2a81.15,81.15,0,0,1,9.22,2.75c4.35,1.66,6.63,3.37,6.62,5.14,0,3.13-7.31,6.06-20.49,8.72-4.15.83-8.85,1.65-14.15,2.43-4.11.58-8.52,1.15-13.26,1.73s-9.75,1.1-15,1.58c-4.36.45-9,.86-13.77,1.22q-6.86.6-14.23,1.08c-4.41.32-8.94.64-13.6.88s-9.23.59-14.06.83-10,.51-15.16.74c-4.45.19-8.94.39-13.56.54-4.06.15-8.21.3-12.45.41-4.53.15-9.11.3-13.76.41s-9.62.26-14.53.36-9.91.17-15,.24-10,.17-15.16.19c-5.29.06-10.67.08-16.09.1-4.79,0-9.57,0-14.44,0-3.56,0-7.16,0-10.76,0l-4.15,0c-4.53,0-9-.08-13.42-.14-5.08,0-10.12-.08-15.12-.14-5.34-.11-10.59-.17-15.79-.28-5-.1-9.83-.21-14.66-.36-5.8-.15-11.51-.3-17.14-.49-5.21-.15-10.38-.34-15.42-.57s-9.69-.33-14.43-.56-9.45-.42-14-.7c-4.78-.23-9.48-.5-14.05-.77-4.79-.28-9.49-.55-14.06-.86-4.83-.32-9.48-.68-14-1-4.7-.36-9.27-.72-13.68-1.12-4.78-.4-9.35-.84-13.75-1.28s-8.34-.88-12.24-1.36-7.66-.92-11.17-1.4c-3.81-.52-7.36-1-10.71-1.56-3.64-.65-7-1.26-10.07-1.86-3.76-.78-7.06-1.56-9.9-2.37a42.7,42.7,0,0,1-8.07-3c-2.24-1.19-3.38-2.42-3.38-3.69,0-2.62,5.06-5.1,14.35-7.34"/><path class="cls-2" d="M556.82,432.05c27.74-42.73,49-70.52,74.28-95.5a3.39,3.39,0,0,1,2.55-1,3.28,3.28,0,0,1,2.24,1.06c25.05,25.19,46.32,53.1,73.71,96,0,0,0,0,0,.08"/><path class="cls-2" d="M373.08,512.93c2-59.46,2.42-103.82,3.71-120.31a4.65,4.65,0,0,1,2.09-3.67,3.44,3.44,0,0,1,4,.22c20,15.23,48.37,40.84,88.45,76"/><path class="cls-2" d="M621.79,491.4q-23.92-21.54-44.17-39.9c-7.39-6.71-14.43-13-21.14-19.07C524.79,404,500.06,382.21,480.31,367a3.44,3.44,0,0,0-4.15-.11,4.66,4.66,0,0,0-1.88,3.51c-1.16,14.25-1.68,49.22-3,94.77-.29,9.68-.59,19.92-1,30.49v0"/><path class="cls-2" d="M891.78,515c-1.53-60.19-1.6-104.94-2.77-120.93a4,4,0,0,0-1.42-3,3.16,3.16,0,0,0-4.19-.22C863.22,406,834.57,431.45,794,466.51"/><path class="cls-2" d="M643.26,491.49c15.81-14,30.39-27,43.9-39,7.87-7,15.3-13.64,22.44-19.91,31.71-28,56.48-49.43,76.28-64.4a3.39,3.39,0,0,1,3.94-.16,4.65,4.65,0,0,1,1.93,3.56c1,14.18,1.28,49.24,2.2,94.92.17,9.73.42,19.92.68,30.5v0"/><line class="cls-3" x1="476.49" y1="367.52" x2="517.02" y2="493.3"/><polyline class="cls-3" points="789.9 367.65 789.82 368.03 758.69 494.33"/><line class="cls-3" x1="887.42" y1="391.35" x2="866.12" y2="505.13"/><line class="cls-3" x1="379.05" y1="389.28" x2="399.97" y2="503.02"/><line class="cls-3" x1="633.65" y1="335.51" x2="577.62" y2="451.5"/><line class="cls-3" x1="633.65" y1="335.51" x2="686.66" y2="451.95"/><polyline class="cls-4" points="404.29 524.1 404.5 523.88 429.17 499.16"/><polyline class="cls-4" points="394.48 521.77 415.44 500.75 415.91 500.29"/><polyline class="cls-4" points="384.4 519.78 384.53 519.66 401.33 502.81"/><path class="cls-4" d="M376.46,516.62l11-11s0,0,0,0"/><polyline class="cls-4" points="415 525.66 415.21 525.45 442.81 497.82 442.98 497.65"/><polyline class="cls-4" points="426.17 527.06 426.38 526.85 456.4 496.73"/><polyline class="cls-4" points="438.53 528.29 438.62 528.21 471.14 495.65 471.19 495.61"/><polyline class="cls-4" points="452.2 529.66 452.37 529.49 486.69 495.12"/><polyline class="cls-4" points="466 530.65 466.05 530.61 502.32 494.3"/><line class="cls-4" x1="480.1" y1="531.3" x2="517.74" y2="493.6"/><line class="cls-4" x1="494.12" y1="532.5" x2="533.87" y2="492.73"/><polyline class="cls-4" points="508 533.44 508.17 533.27 549.12 492.29"/><polyline class="cls-4" points="522.19 533.97 564.11 491.97 564.37 491.71"/><polyline class="cls-4" points="536.37 534.78 536.62 534.53 579.23 491.9"/><polyline class="cls-4" points="551.95 535.19 552.04 535.1 595.53 491.5"/><polyline class="cls-4" points="569.1 535.68 569.18 535.6 613.11 491.53"/><polyline class="cls-4" points="583.84 535.95 628.27 491.43 628.61 491.09"/><polyline class="cls-4" points="599.63 536.1 644.15 491.53 644.62 491.07"/><polyline class="cls-4" points="614.66 536.46 614.75 536.37 659.35 491.72"/><line class="cls-4" x1="628.17" y1="536.51" x2="672.9" y2="491.86"/><line class="cls-4" x1="643.08" y1="536.06" x2="687.04" y2="492.17"/><line class="cls-4" x1="657.52" y1="536.17" x2="700.8" y2="492.95"/><line class="cls-4" x1="673.61" y1="536.02" x2="716.26" y2="493.48"/><line class="cls-4" x1="688.77" y1="535.66" x2="730.53" y2="493.96"/><line class="cls-4" x1="703.72" y1="535.8" x2="745.18" y2="494.4"/><polyline class="cls-4" points="717.74 536.12 718.25 535.61 759.07 494.79"/><line class="cls-4" x1="732.01" y1="535.2" x2="771.47" y2="495.82"/><polyline class="cls-4" points="744 535.25 744.46 534.79 783.07 496.24 783.45 495.87"/><polyline class="cls-4" points="757.63 534.63 758.02 534.25 795.05 497.26"/><line class="cls-4" x1="773.18" y1="533.42" x2="808.09" y2="498.59"/><line class="cls-4" x1="787.24" y1="532.55" x2="820.62" y2="499.23"/><line class="cls-4" x1="800.84" y1="531.72" x2="832.22" y2="500.42"/><polyline class="cls-4" points="815.03 530.25 843.6 501.74 843.94 501.4"/><line class="cls-4" x1="828.84" y1="529.5" x2="855.12" y2="503.3"/><polyline class="cls-4" points="843.84 527.66 866.37 505.17 866.88 504.66"/><line class="cls-4" x1="857.14" y1="526.15" x2="875.89" y2="507.45"/><line class="cls-2" x1="885.16" y1="509.9" x2="885.5" y2="509.56"/><polyline class="cls-4" points="870.95 524.09 871.29 523.76 885.16 509.9"/></svg>