<svg id="Layer_1" data-name="Layer 1" xmlns="http://www.w3.org/2000/svg" viewBox="0 0 1631.06 873.47"><defs><style>.cls-1{fill:#003e6a;}.cls-2{fill:#adc8e9;}.cls-3,.cls-4{fill:none;stroke-miterlimit:10;}.cls-3{stroke:#bfe7f7;}.cls-4{stroke:#003e6a;}</style></defs><title>DiamondPattern</title><rect class="cls-1" width="1631.06" height="873.47"/><polygon class="cls-2" points="1518.62 103.29 1471.36 194.68 1506.88 112.55 1518.58 103.25 1518.62 103.29"/><polygon class="cls-2" points="1518.61 685.08 1471.36 776.47 1471.35 776.47 1506.88 694.34 1518.57 685.04 1518.61 685.08"/><polygon class="cls-2" points="1508.79 89.95 1518.58 103.25 1506.88 112.55 1498.21 99.91 1508.63 89.88 1508.79 89.95"/><polygon class="cls-2" points="1508.78 671.74 1518.57 685.04 1506.88 694.34 1498.21 681.7 1508.62 671.67 1508.78 671.74"/><polygon class="cls-2" points="1517.5 394.18 1517.53 394.23 1470.27 485.62 1505.79 403.49 1517.5 394.18"/><polygon class="cls-2" points="1517.5 394.18 1505.79 403.49 1497.12 390.85 1507.54 380.81 1507.7 380.88 1517.5 394.18"/><polygon class="cls-2" points="1508.63 89.88 1498.21 99.91 1479.92 99.91 1465.38 99.91 1446.68 99.91 1446.68 99.88 1436.68 89.88 1448.91 83.61 1493.69 83.61 1508.63 89.88"/><polygon class="cls-2" points="1508.62 671.67 1498.21 681.7 1479.92 681.7 1465.38 681.7 1446.67 681.7 1446.67 681.67 1436.67 671.67 1448.91 665.4 1493.69 665.4 1508.62 671.67"/><polygon class="cls-2" points="1507.54 380.81 1497.12 390.85 1478.83 390.85 1464.29 390.85 1445.59 390.85 1445.59 390.82 1435.58 380.81 1447.82 374.54 1492.6 374.54 1507.54 380.81"/><polygon class="cls-2" points="1498.21 99.91 1506.88 112.55 1488.59 112.55 1479.92 99.91 1498.21 99.91"/><polygon class="cls-2" points="1506.88 112.55 1471.36 194.68 1488.59 112.55 1506.88 112.55"/><polygon class="cls-2" points="1498.21 681.7 1506.88 694.34 1488.59 694.34 1479.92 681.7 1498.21 681.7"/><polygon class="cls-2" points="1506.88 694.34 1471.35 776.47 1488.59 694.34 1506.88 694.34"/><polygon class="cls-2" points="1497.12 390.85 1505.79 403.49 1487.5 403.49 1478.83 390.85 1497.12 390.85"/><polygon class="cls-2" points="1505.79 403.49 1470.27 485.62 1487.5 403.49 1505.79 403.49"/><polygon class="cls-2" points="1479.92 99.91 1488.59 112.55 1456.71 112.55 1465.38 99.91 1479.92 99.91"/><polygon class="cls-2" points="1488.59 112.55 1471.36 194.68 1456.71 112.55 1488.59 112.55"/><polygon class="cls-2" points="1479.92 681.7 1488.59 694.34 1456.7 694.34 1465.38 681.7 1479.92 681.7"/><polygon class="cls-2" points="1488.59 694.34 1471.35 776.47 1456.7 694.34 1488.59 694.34"/><polygon class="cls-2" points="1478.83 390.85 1487.5 403.49 1455.62 403.49 1464.29 390.85 1478.83 390.85"/><polygon class="cls-2" points="1487.5 403.49 1470.27 485.62 1455.62 403.49 1487.5 403.49"/><polygon class="cls-2" points="1456.71 112.55 1471.36 194.68 1471.33 194.62 1438.01 112.55 1456.71 112.55"/><polygon class="cls-2" points="1456.7 694.34 1471.35 776.47 1471.32 776.41 1438 694.34 1456.7 694.34"/><path class="cls-2" d="M1438,112.55l33.32,82.07c-1.29-2.62-42.26-85.65-45-91.29Z"/><path class="cls-2" d="M1438,694.34l33.32,82.07c-1.29-2.62-42.2-85.56-45-91.28Z"/><polygon class="cls-2" points="1455.62 403.49 1470.27 485.62 1470.24 485.56 1436.92 403.49 1455.62 403.49"/><path class="cls-2" d="M1436.92,403.49l33.32,82.07c-1.29-2.62-42.21-85.56-45-91.28Z"/><polygon class="cls-2" points="1465.38 99.91 1456.71 112.55 1438.01 112.55 1446.68 99.91 1465.38 99.91"/><polygon class="cls-2" points="1465.38 681.7 1456.7 694.34 1438 694.34 1446.67 681.7 1465.38 681.7"/><polygon class="cls-2" points="1464.29 390.85 1455.62 403.49 1436.92 403.49 1445.59 390.85 1464.29 390.85"/><path class="cls-2" d="M1446.68,99.88v0L1438,112.55l-11.73-9.22-.07-.14c.7-.89,9.51-12.11,10.47-13.31Z"/><path class="cls-2" d="M1446.67,681.67v0L1438,694.34l-11.71-9.21a1.15,1.15,0,0,1-.08-.15l10.46-13.31Z"/><path class="cls-2" d="M1445.59,390.82v0l-8.67,12.64-11.72-9.21a1.15,1.15,0,0,1-.08-.15l10.46-13.32Z"/><polygon class="cls-2" points="1355.13 247.99 1307.87 339.38 1343.4 257.25 1355.09 247.95 1355.13 247.99"/><polygon class="cls-2" points="1345.3 234.65 1355.09 247.95 1343.4 257.25 1334.72 244.61 1345.14 234.58 1345.3 234.65"/><polygon class="cls-2" points="1353.32 538.37 1353.35 538.42 1306.09 629.8 1341.61 547.68 1353.32 538.37"/><polygon class="cls-2" points="1353.32 538.37 1341.61 547.68 1332.94 535.04 1343.35 525 1343.51 525.07 1353.32 538.37"/><polygon class="cls-2" points="1345.14 234.58 1334.72 244.61 1316.44 244.61 1301.89 244.61 1283.19 244.61 1283.19 244.58 1273.19 234.58 1285.43 228.31 1330.2 228.31 1345.14 234.58"/><polygon class="cls-2" points="1334.72 244.61 1343.4 257.25 1325.11 257.25 1316.44 244.61 1334.72 244.61"/><polygon class="cls-2" points="1343.4 257.25 1307.87 339.38 1325.11 257.25 1343.4 257.25"/><polygon class="cls-2" points="1343.35 525 1332.94 535.04 1314.65 535.04 1300.11 535.04 1281.41 535.04 1281.41 535.01 1271.4 525 1283.64 518.73 1328.42 518.73 1343.35 525"/><polygon class="cls-2" points="1332.94 535.04 1341.61 547.68 1323.32 547.68 1314.65 535.04 1332.94 535.04"/><polygon class="cls-2" points="1341.61 547.68 1306.09 629.8 1323.32 547.68 1341.61 547.68"/><polygon class="cls-2" points="1316.44 244.61 1325.11 257.25 1293.22 257.25 1301.89 244.61 1316.44 244.61"/><polygon class="cls-2" points="1325.11 257.25 1307.87 339.38 1293.22 257.25 1325.11 257.25"/><polygon class="cls-2" points="1314.65 535.04 1323.32 547.68 1291.44 547.68 1300.11 535.04 1314.65 535.04"/><polygon class="cls-2" points="1323.32 547.68 1306.09 629.8 1291.44 547.68 1323.32 547.68"/><polygon class="cls-2" points="1293.22 257.25 1307.87 339.38 1307.84 339.32 1274.52 257.25 1293.22 257.25"/><path class="cls-2" d="M1274.52,257.25l33.32,82.07c-1.29-2.62-42.25-85.65-45-91.29Z"/><polygon class="cls-2" points="1291.44 547.68 1306.09 629.8 1306.06 629.74 1272.74 547.68 1291.44 547.68"/><path class="cls-2" d="M1272.74,547.68l33.32,82.06c-1.29-2.62-42.21-85.55-45-91.27Z"/><polygon class="cls-2" points="1301.89 244.61 1293.22 257.25 1274.52 257.25 1283.19 244.61 1301.89 244.61"/><polygon class="cls-2" points="1300.11 535.04 1291.44 547.68 1272.74 547.68 1281.41 535.04 1300.11 535.04"/><path class="cls-2" d="M1283.19,244.58v0l-8.67,12.64L1262.79,248l-.07-.14c.71-.89,9.51-12.11,10.47-13.31Z"/><path class="cls-2" d="M1281.41,535v0l-8.67,12.64L1261,538.47a1.15,1.15,0,0,1-.08-.15L1271.4,525Z"/><polygon class="cls-2" points="1190.97 685.87 1143.72 777.26 1143.71 777.26 1179.24 695.13 1190.93 685.83 1190.97 685.87"/><polygon class="cls-2" points="1181.14 672.53 1190.93 685.83 1179.24 695.13 1170.57 682.5 1180.98 672.46 1181.14 672.53"/><polygon class="cls-2" points="1190.88 103.29 1143.62 194.68 1179.14 112.55 1190.84 103.25 1190.88 103.29"/><polygon class="cls-2" points="1181.05 89.95 1190.84 103.25 1179.14 112.55 1170.47 99.91 1180.89 89.88 1181.05 89.95"/><polygon class="cls-2" points="1190.78 393.71 1190.81 393.76 1143.55 485.14 1179.08 403.02 1190.78 393.71"/><polygon class="cls-2" points="1190.78 393.71 1179.08 403.02 1170.4 390.38 1180.82 380.34 1180.98 380.41 1190.78 393.71"/><polygon class="cls-2" points="1180.98 672.46 1170.57 682.5 1152.28 682.5 1137.74 682.5 1119.03 682.5 1119.03 682.46 1109.03 672.46 1121.27 666.19 1166.05 666.19 1180.98 672.46"/><polygon class="cls-2" points="1180.89 89.88 1170.47 99.91 1152.19 99.91 1137.64 99.91 1118.94 99.91 1118.94 99.88 1108.94 89.88 1121.18 83.61 1165.95 83.61 1180.89 89.88"/><polygon class="cls-2" points="1180.82 380.34 1170.4 390.38 1152.12 390.38 1137.57 390.38 1118.87 390.38 1118.87 390.35 1108.87 380.34 1121.11 374.07 1165.88 374.07 1180.82 380.34"/><polygon class="cls-2" points="1170.57 682.5 1179.24 695.13 1160.95 695.13 1152.28 682.5 1170.57 682.5"/><polygon class="cls-2" points="1179.24 695.13 1143.71 777.26 1160.95 695.13 1179.24 695.13"/><polygon class="cls-2" points="1170.47 99.91 1179.14 112.55 1160.86 112.55 1152.19 99.91 1170.47 99.91"/><polygon class="cls-2" points="1179.14 112.55 1143.62 194.68 1160.86 112.55 1179.14 112.55"/><polygon class="cls-2" points="1170.4 390.38 1179.08 403.02 1160.79 403.02 1152.12 390.38 1170.4 390.38"/><polygon class="cls-2" points="1179.08 403.02 1143.55 485.14 1160.79 403.02 1179.08 403.02"/><polygon class="cls-2" points="1152.28 682.5 1160.95 695.13 1129.06 695.13 1137.74 682.5 1152.28 682.5"/><polygon class="cls-2" points="1160.95 695.13 1143.71 777.26 1129.06 695.13 1160.95 695.13"/><polygon class="cls-2" points="1152.19 99.91 1160.86 112.55 1128.97 112.55 1137.64 99.91 1152.19 99.91"/><polygon class="cls-2" points="1160.86 112.55 1143.62 194.68 1128.97 112.55 1160.86 112.55"/><polygon class="cls-2" points="1152.12 390.38 1160.79 403.02 1128.9 403.02 1137.57 390.38 1152.12 390.38"/><polygon class="cls-2" points="1160.79 403.02 1143.55 485.14 1128.9 403.02 1160.79 403.02"/><polygon class="cls-2" points="1129.06 695.13 1143.71 777.26 1143.68 777.2 1110.36 695.13 1129.06 695.13"/><path class="cls-2" d="M1110.36,695.13l33.32,82.07c-1.29-2.62-42.11-85.36-45-91.26Z"/><polygon class="cls-2" points="1128.97 112.55 1143.62 194.68 1143.59 194.62 1110.27 112.55 1128.97 112.55"/><path class="cls-2" d="M1110.27,112.55l33.32,82.07c-1.29-2.62-42.25-85.65-45-91.29Z"/><polygon class="cls-2" points="1128.9 403.02 1143.55 485.14 1143.52 485.08 1110.2 403.02 1128.9 403.02"/><path class="cls-2" d="M1110.2,403l33.32,82.06c-1.29-2.62-42.25-85.64-45-91.28Z"/><polygon class="cls-2" points="1137.74 682.5 1129.06 695.13 1110.36 695.13 1119.03 682.5 1137.74 682.5"/><polygon class="cls-2" points="1137.64 99.91 1128.97 112.55 1110.27 112.55 1118.94 99.91 1137.64 99.91"/><polygon class="cls-2" points="1137.57 390.38 1128.9 403.02 1110.2 403.02 1118.87 390.38 1137.57 390.38"/><path class="cls-2" d="M1119,682.46v0l-8.67,12.63-11.71-9.19-.08-.17L1109,672.46Z"/><path class="cls-2" d="M1118.94,99.88v0l-8.67,12.64-11.73-9.22-.07-.14c.7-.89,9.51-12.11,10.47-13.31Z"/><path class="cls-2" d="M1118.87,390.35v0L1110.2,403l-11.73-9.22-.07-.14c.71-.9,9.51-12.11,10.47-13.32Z"/><polygon class="cls-2" points="1028.4 248.92 981.14 340.3 981.13 340.3 1016.66 258.18 1028.36 248.88 1028.4 248.92"/><polygon class="cls-2" points="1028.39 540.33 981.13 631.72 1016.65 549.59 1028.35 540.29 1028.39 540.33"/><polygon class="cls-2" points="1018.56 235.57 1028.36 248.88 1016.66 258.18 1007.99 245.54 1018.4 235.5 1018.56 235.57"/><polygon class="cls-2" points="1018.56 526.99 1028.35 540.29 1016.65 549.59 1007.98 536.95 1018.4 526.92 1018.56 526.99"/><polygon class="cls-2" points="1018.4 235.5 1007.99 245.54 989.7 245.54 975.16 245.54 956.46 245.54 956.46 245.51 946.45 235.5 958.69 229.23 1003.47 229.23 1018.4 235.5"/><polygon class="cls-2" points="1018.4 526.92 1007.98 536.95 989.7 536.95 975.15 536.95 956.45 536.95 956.45 536.92 946.45 526.92 958.69 520.65 1003.46 520.65 1018.4 526.92"/><polygon class="cls-2" points="1007.99 245.54 1016.66 258.18 998.37 258.18 989.7 245.54 1007.99 245.54"/><polygon class="cls-2" points="1016.66 258.18 981.13 340.3 998.37 258.18 1016.66 258.18"/><polygon class="cls-2" points="1007.98 536.95 1016.65 549.59 998.37 549.59 989.7 536.95 1007.98 536.95"/><polygon class="cls-2" points="1016.65 549.59 981.13 631.72 998.37 549.59 1016.65 549.59"/><polygon class="cls-2" points="989.7 245.54 998.37 258.18 966.49 258.18 975.16 245.54 989.7 245.54"/><polygon class="cls-2" points="998.37 258.18 981.13 340.3 966.49 258.18 998.37 258.18"/><polygon class="cls-2" points="989.7 536.95 998.37 549.59 966.48 549.59 975.15 536.95 989.7 536.95"/><polygon class="cls-2" points="998.37 549.59 981.13 631.72 966.48 549.59 998.37 549.59"/><polygon class="cls-2" points="966.49 258.18 981.13 340.3 981.1 340.24 947.78 258.18 966.49 258.18"/><polygon class="cls-2" points="966.48 549.59 981.13 631.72 981.1 631.66 947.78 549.59 966.48 549.59"/><path class="cls-2" d="M947.78,258.18l33.32,82.06c-1.29-2.62-42.2-85.55-45-91.27Z"/><path class="cls-2" d="M947.78,549.59l33.32,82.07c-1.29-2.62-42.26-85.65-45.05-91.29Z"/><polygon class="cls-2" points="975.16 245.54 966.49 258.18 947.78 258.18 956.46 245.54 975.16 245.54"/><polygon class="cls-2" points="975.15 536.95 966.48 549.59 947.78 549.59 956.45 536.95 975.15 536.95"/><path class="cls-2" d="M956.46,245.51v0l-8.68,12.64L936.07,249a1.15,1.15,0,0,1-.08-.15l10.46-13.32Z"/><path class="cls-2" d="M956.45,536.92v0l-8.67,12.64-11.73-9.22-.07-.14c.7-.89,9.51-12.11,10.47-13.31Z"/><polygon class="cls-2" points="865.96 396.64 865.99 396.69 818.73 488.08 854.25 405.95 865.96 396.64"/><polygon class="cls-2" points="865.96 396.64 854.25 405.95 845.58 393.31 855.99 383.28 856.17 383.35 865.96 396.64"/><polygon class="cls-2" points="864.9 102.27 817.64 193.66 853.16 111.53 864.86 102.23 864.9 102.27"/><polygon class="cls-2" points="855.07 88.93 864.86 102.23 853.16 111.53 844.49 98.89 854.91 88.86 855.07 88.93"/><polygon class="cls-2" points="864.68 686.57 817.43 777.96 817.42 777.96 852.95 695.83 864.64 686.53 864.68 686.57"/><polygon class="cls-2" points="854.85 673.23 864.64 686.53 852.95 695.83 844.28 683.2 854.69 673.16 854.85 673.23"/><polygon class="cls-2" points="841.06 377 855.99 383.28 845.58 393.31 827.29 393.31 812.75 393.31 794.05 393.31 794.05 393.28 784.05 383.27 796.3 377 841.06 377"/><polygon class="cls-2" points="854.91 88.86 844.49 98.89 826.2 98.89 811.66 98.89 792.96 98.89 792.96 98.86 782.96 88.86 795.19 82.59 839.97 82.59 854.91 88.86"/><polygon class="cls-2" points="854.69 673.16 844.28 683.2 825.99 683.2 811.45 683.2 792.74 683.2 792.74 683.16 782.74 673.16 794.98 666.89 839.76 666.89 854.69 673.16"/><polygon class="cls-2" points="845.58 393.31 854.25 405.95 835.97 405.95 827.29 393.31 845.58 393.31"/><polygon class="cls-2" points="854.25 405.95 818.73 488.08 835.97 405.95 854.25 405.95"/><polygon class="cls-2" points="844.49 98.89 853.16 111.53 834.87 111.53 826.2 98.89 844.49 98.89"/><polygon class="cls-2" points="853.16 111.53 817.64 193.66 834.87 111.53 853.16 111.53"/><polygon class="cls-2" points="844.28 683.2 852.95 695.83 834.66 695.83 825.99 683.2 844.28 683.2"/><polygon class="cls-2" points="852.95 695.83 817.42 777.96 834.66 695.83 852.95 695.83"/><polygon class="cls-2" points="827.29 393.31 835.97 405.95 804.08 405.95 812.75 393.31 827.29 393.31"/><polygon class="cls-2" points="835.97 405.95 818.73 488.08 804.08 405.95 835.97 405.95"/><polygon class="cls-2" points="826.2 98.89 834.87 111.53 802.99 111.53 811.66 98.89 826.2 98.89"/><polygon class="cls-2" points="834.87 111.53 817.64 193.66 802.99 111.53 834.87 111.53"/><polygon class="cls-2" points="825.99 683.2 834.66 695.83 802.77 695.83 811.45 683.2 825.99 683.2"/><polygon class="cls-2" points="834.66 695.83 817.42 777.96 802.77 695.83 834.66 695.83"/><polygon class="cls-2" points="804.08 405.95 818.73 488.08 818.7 488.02 785.38 405.95 804.08 405.95"/><path class="cls-2" d="M785.38,406,818.7,488c-1.29-2.62-42.26-85.65-45.05-91.29Z"/><polygon class="cls-2" points="802.99 111.53 817.64 193.66 817.61 193.6 784.29 111.53 802.99 111.53"/><path class="cls-2" d="M784.29,111.53l33.32,82.07c-1.29-2.62-42.21-85.56-45-91.28Z"/><polygon class="cls-2" points="802.77 695.83 817.42 777.96 817.39 777.9 784.07 695.83 802.77 695.83"/><path class="cls-2" d="M784.07,695.83l33.32,82.07c-1.29-2.62-42.11-85.36-45-91.26Z"/><polygon class="cls-2" points="812.75 393.31 804.08 405.95 785.38 405.95 794.05 393.31 812.75 393.31"/><polygon class="cls-2" points="811.66 98.89 802.99 111.53 784.29 111.53 792.96 98.89 811.66 98.89"/><polygon class="cls-2" points="811.45 683.2 802.77 695.83 784.07 695.83 792.74 683.2 811.45 683.2"/><path class="cls-2" d="M794.05,393.28v0L785.38,406l-11.73-9.22-.07-.14c.7-.89,9.51-12.11,10.47-13.32Z"/><path class="cls-2" d="M793,98.86v0l-8.67,12.64-11.72-9.21a1.15,1.15,0,0,1-.08-.15c.7-.89,9.51-12.11,10.47-13.31Z"/><path class="cls-2" d="M792.74,683.16v0l-8.67,12.63-11.71-9.19-.08-.17,10.46-13.31Z"/><polygon class="cls-2" points="701.9 246.9 654.64 338.29 690.16 256.16 701.86 246.86 701.9 246.9"/><polygon class="cls-2" points="701.86 540.06 701.89 540.11 654.64 631.49 654.63 631.49 690.16 549.36 701.86 540.06"/><polygon class="cls-2" points="692.07 233.56 701.86 246.86 690.16 256.16 681.49 243.52 691.91 233.49 692.07 233.56"/><polygon class="cls-2" points="701.86 540.06 690.16 549.36 681.49 536.72 691.9 526.69 692.06 526.76 701.86 540.06"/><polygon class="cls-2" points="691.91 233.49 681.49 243.52 663.2 243.52 648.66 243.52 629.96 243.52 629.96 243.49 619.96 233.49 632.19 227.22 676.97 227.22 691.91 233.49"/><polygon class="cls-2" points="691.9 526.69 681.49 536.72 663.2 536.72 648.66 536.72 629.96 536.72 629.96 536.69 619.95 526.69 632.19 520.42 676.97 520.42 691.9 526.69"/><polygon class="cls-2" points="681.49 243.52 690.16 256.16 671.88 256.16 663.2 243.52 681.49 243.52"/><polygon class="cls-2" points="690.16 256.16 654.64 338.29 671.88 256.16 690.16 256.16"/><polygon class="cls-2" points="681.49 536.72 690.16 549.36 671.87 549.36 663.2 536.72 681.49 536.72"/><polygon class="cls-2" points="690.16 549.36 654.63 631.49 671.87 549.36 690.16 549.36"/><polygon class="cls-2" points="663.2 243.52 671.88 256.16 639.99 256.16 648.66 243.52 663.2 243.52"/><polygon class="cls-2" points="671.88 256.16 654.64 338.29 639.99 256.16 671.88 256.16"/><polygon class="cls-2" points="663.2 536.72 671.87 549.36 639.98 549.36 648.66 536.72 663.2 536.72"/><polygon class="cls-2" points="671.87 549.36 654.63 631.49 639.98 549.36 671.87 549.36"/><polygon class="cls-2" points="639.99 256.16 654.64 338.29 654.61 338.23 621.29 256.16 639.99 256.16"/><polygon class="cls-2" points="639.98 549.36 654.63 631.49 654.6 631.43 621.28 549.36 639.98 549.36"/><path class="cls-2" d="M621.29,256.16l33.32,82.07-45.05-91.29Z"/><path class="cls-2" d="M621.28,549.36l33.32,82.07c-1.29-2.62-42.2-85.56-45-91.28Z"/><polygon class="cls-2" points="648.66 243.52 639.99 256.16 621.29 256.16 629.96 243.52 648.66 243.52"/><polygon class="cls-2" points="648.66 536.72 639.98 549.36 621.28 549.36 629.96 536.72 648.66 536.72"/><path class="cls-2" d="M630,536.69v0l-8.68,12.64-11.71-9.21a1.15,1.15,0,0,1-.08-.15L620,526.69Z"/><path class="cls-2" d="M630,243.49v0l-8.67,12.64-11.73-9.22-.07-.14c.7-.89,9.51-12.11,10.47-13.31Z"/><polygon class="cls-2" points="538.09 102.57 538.12 102.62 490.86 194 526.38 111.88 538.09 102.57"/><polygon class="cls-2" points="538.12 395.91 490.86 487.3 526.38 405.17 538.08 395.87 538.12 395.91"/><polygon class="cls-2" points="538.09 102.57 526.38 111.88 517.71 99.24 528.13 89.2 528.29 89.27 538.09 102.57"/><polygon class="cls-2" points="528.29 382.57 538.08 395.87 526.38 405.17 517.71 392.53 528.13 382.5 528.29 382.57"/><polygon class="cls-2" points="538.08 687 490.82 778.39 526.34 696.26 538.04 686.96 538.08 687"/><polygon class="cls-2" points="528.25 673.66 538.04 686.96 526.34 696.26 517.67 683.62 528.09 673.59 528.25 673.66"/><polygon class="cls-2" points="528.13 89.2 517.71 99.24 499.43 99.24 484.88 99.24 466.18 99.24 466.18 99.21 456.18 89.2 468.42 82.93 513.19 82.93 528.13 89.2"/><polygon class="cls-2" points="528.13 382.5 517.71 392.53 499.43 392.53 484.88 392.53 466.18 392.53 466.18 392.5 456.18 382.5 468.42 376.23 513.19 376.23 528.13 382.5"/><polygon class="cls-2" points="528.09 673.59 517.67 683.62 499.38 683.62 484.84 683.62 466.14 683.62 466.14 683.59 456.14 673.59 468.37 667.32 513.15 667.32 528.09 673.59"/><polygon class="cls-2" points="517.71 99.24 526.38 111.88 508.1 111.88 499.43 99.24 517.71 99.24"/><polygon class="cls-2" points="526.38 111.88 490.86 194 508.1 111.88 526.38 111.88"/><polygon class="cls-2" points="517.71 392.53 526.38 405.17 508.1 405.17 499.43 392.53 517.71 392.53"/><polygon class="cls-2" points="526.38 405.17 490.86 487.3 508.1 405.17 526.38 405.17"/><polygon class="cls-2" points="517.67 683.62 526.34 696.26 508.06 696.26 499.38 683.62 517.67 683.62"/><polygon class="cls-2" points="526.34 696.26 490.82 778.39 508.06 696.26 526.34 696.26"/><polygon class="cls-2" points="499.43 99.24 508.1 111.88 476.21 111.88 484.88 99.24 499.43 99.24"/><polygon class="cls-2" points="508.1 111.88 490.86 194 476.21 111.88 508.1 111.88"/><polygon class="cls-2" points="499.43 392.53 508.1 405.17 476.21 405.17 484.88 392.53 499.43 392.53"/><polygon class="cls-2" points="508.1 405.17 490.86 487.3 476.21 405.17 508.1 405.17"/><polygon class="cls-2" points="499.38 683.62 508.06 696.26 476.17 696.26 484.84 683.62 499.38 683.62"/><polygon class="cls-2" points="508.06 696.26 490.82 778.39 476.17 696.26 508.06 696.26"/><polygon class="cls-2" points="476.21 111.88 490.86 194 490.83 193.94 457.51 111.88 476.21 111.88"/><polygon class="cls-2" points="476.21 405.17 490.86 487.3 490.83 487.24 457.51 405.17 476.21 405.17"/><path class="cls-2" d="M457.51,111.88l33.32,82.06c-1.29-2.62-42.25-85.64-45.05-91.28Z"/><path class="cls-2" d="M457.51,405.17l33.32,82.07c-1.29-2.62-42.25-85.64-45.05-91.29Z"/><polygon class="cls-2" points="476.17 696.26 490.82 778.39 490.79 778.33 457.47 696.26 476.17 696.26"/><path class="cls-2" d="M457.47,696.26l33.32,82.07c-1.29-2.62-42.26-85.65-45.05-91.29Z"/><polygon class="cls-2" points="484.88 99.24 476.21 111.88 457.51 111.88 466.18 99.24 484.88 99.24"/><polygon class="cls-2" points="484.88 392.53 476.21 405.17 457.51 405.17 466.18 392.53 484.88 392.53"/><polygon class="cls-2" points="484.84 683.62 476.17 696.26 457.47 696.26 466.14 683.62 484.84 683.62"/><path class="cls-2" d="M466.18,392.5v0l-8.67,12.64L445.78,396l-.07-.14c.7-.89,9.51-12.11,10.47-13.31Z"/><path class="cls-2" d="M466.18,99.21v0l-8.67,12.64-11.73-9.22-.07-.14c.7-.9,9.51-12.11,10.47-13.32Z"/><path class="cls-2" d="M466.14,683.59v0l-8.67,12.64L445.74,687l-.07-.14c.7-.89,9.51-12.11,10.47-13.31Z"/><polygon class="cls-2" points="376.42 541.19 329.16 632.58 364.68 550.45 376.38 541.15 376.42 541.19"/><polygon class="cls-2" points="366.59 527.85 376.38 541.15 364.68 550.45 356.01 537.81 366.43 527.78 366.59 527.85"/><polygon class="cls-2" points="375.37 250.54 375.4 250.59 328.15 341.97 328.14 341.97 363.67 259.84 375.37 250.54"/><polygon class="cls-2" points="375.37 250.54 363.67 259.84 355 247.2 365.41 237.17 365.57 237.24 375.37 250.54"/><polygon class="cls-2" points="366.43 527.78 356.01 537.81 337.73 537.81 323.18 537.81 304.48 537.81 304.48 537.78 294.48 527.78 306.72 521.51 351.49 521.51 366.43 527.78"/><polygon class="cls-2" points="365.41 237.17 355 247.2 336.71 247.2 322.17 247.2 303.47 247.2 303.47 247.17 293.46 237.17 305.7 230.9 350.48 230.9 365.41 237.17"/><polygon class="cls-2" points="356.01 537.81 364.68 550.45 346.4 550.45 337.73 537.81 356.01 537.81"/><polygon class="cls-2" points="364.68 550.45 329.16 632.58 346.4 550.45 364.68 550.45"/><polygon class="cls-2" points="355 247.2 363.67 259.84 345.38 259.84 336.71 247.2 355 247.2"/><polygon class="cls-2" points="363.67 259.84 328.14 341.97 345.38 259.84 363.67 259.84"/><polygon class="cls-2" points="337.73 537.81 346.4 550.45 314.51 550.45 323.18 537.81 337.73 537.81"/><polygon class="cls-2" points="346.4 550.45 329.16 632.58 314.51 550.45 346.4 550.45"/><polygon class="cls-2" points="336.71 247.2 345.38 259.84 313.49 259.84 322.17 247.2 336.71 247.2"/><polygon class="cls-2" points="345.38 259.84 328.14 341.97 313.49 259.84 345.38 259.84"/><polygon class="cls-2" points="314.51 550.45 329.16 632.58 329.13 632.52 295.81 550.45 314.51 550.45"/><path class="cls-2" d="M295.81,550.45l33.32,82.07c-1.29-2.62-42.25-85.65-45.05-91.29Z"/><polygon class="cls-2" points="313.49 259.84 328.14 341.97 328.11 341.91 294.79 259.84 313.49 259.84"/><path class="cls-2" d="M294.79,259.84l33.32,82.07c-1.29-2.62-42.2-85.56-45-91.28Z"/><polygon class="cls-2" points="323.18 537.81 314.51 550.45 295.81 550.45 304.48 537.81 323.18 537.81"/><polygon class="cls-2" points="322.17 247.2 313.49 259.84 294.79 259.84 303.47 247.2 322.17 247.2"/><path class="cls-2" d="M304.48,537.78v0l-8.67,12.64-11.73-9.22-.07-.14c.7-.89,9.51-12.11,10.47-13.31Z"/><path class="cls-2" d="M303.47,247.17v0l-8.68,12.64-11.71-9.21a1.15,1.15,0,0,1-.08-.15l10.46-13.31Z"/><polygon class="cls-2" points="211.65 394.22 211.68 394.27 164.42 485.66 199.94 403.53 211.65 394.22"/><polygon class="cls-2" points="211.65 394.22 199.94 403.53 191.27 390.89 201.69 380.85 201.85 380.92 211.65 394.22"/><polygon class="cls-2" points="211.44 103.29 164.19 194.68 164.18 194.68 199.71 112.55 211.4 103.25 211.44 103.29"/><polygon class="cls-2" points="211.44 685.56 164.18 776.95 199.7 694.83 211.4 685.52 211.44 685.56"/><polygon class="cls-2" points="201.61 672.22 211.4 685.52 199.7 694.83 191.03 682.19 201.45 672.15 201.61 672.22"/><polygon class="cls-2" points="201.61 89.95 211.4 103.25 199.71 112.55 191.04 99.91 201.45 89.88 201.61 89.95"/><polygon class="cls-2" points="201.69 380.85 191.27 390.89 172.98 390.89 158.44 390.89 139.74 390.89 139.74 390.86 129.74 380.85 141.97 374.58 186.75 374.58 201.69 380.85"/><polygon class="cls-2" points="201.45 89.88 191.04 99.91 172.75 99.91 158.21 99.91 139.5 99.91 139.5 99.88 129.5 89.88 141.74 83.61 186.52 83.61 201.45 89.88"/><polygon class="cls-2" points="201.45 672.15 191.03 682.19 172.74 682.19 158.2 682.19 139.5 682.19 139.5 682.15 129.5 672.15 141.73 665.88 186.51 665.88 201.45 672.15"/><polygon class="cls-2" points="191.27 390.89 199.94 403.53 181.66 403.53 172.98 390.89 191.27 390.89"/><polygon class="cls-2" points="199.94 403.53 164.42 485.66 181.66 403.53 199.94 403.53"/><polygon class="cls-2" points="191.04 99.91 199.71 112.55 181.42 112.55 172.75 99.91 191.04 99.91"/><polygon class="cls-2" points="199.71 112.55 164.18 194.68 181.42 112.55 199.71 112.55"/><polygon class="cls-2" points="191.03 682.19 199.7 694.83 181.42 694.83 172.74 682.19 191.03 682.19"/><polygon class="cls-2" points="199.7 694.83 164.18 776.95 181.42 694.83 199.7 694.83"/><polygon class="cls-2" points="172.98 390.89 181.66 403.53 149.77 403.53 158.44 390.89 172.98 390.89"/><polygon class="cls-2" points="181.66 403.53 164.42 485.66 149.77 403.53 181.66 403.53"/><polygon class="cls-2" points="172.75 99.91 181.42 112.55 149.53 112.55 158.21 99.91 172.75 99.91"/><polygon class="cls-2" points="181.42 112.55 164.18 194.68 149.53 112.55 181.42 112.55"/><polygon class="cls-2" points="172.74 682.19 181.42 694.83 149.53 694.83 158.2 682.19 172.74 682.19"/><polygon class="cls-2" points="181.42 694.83 164.18 776.95 149.53 694.83 181.42 694.83"/><polygon class="cls-2" points="149.77 403.53 164.42 485.66 164.39 485.6 131.07 403.53 149.77 403.53"/><path class="cls-2" d="M131.07,403.53l33.32,82.07c-1.29-2.62-42.26-85.65-45-91.29Z"/><polygon class="cls-2" points="149.53 112.55 164.18 194.68 164.15 194.62 130.83 112.55 149.53 112.55"/><polygon class="cls-2" points="149.53 694.83 164.18 776.95 164.15 776.89 130.83 694.83 149.53 694.83"/><path class="cls-2" d="M130.83,112.55l33.32,82.07c-1.29-2.62-42.2-85.56-45-91.28Z"/><path class="cls-2" d="M130.83,694.83l33.32,82.06-45-91.27Z"/><polygon class="cls-2" points="158.44 390.89 149.77 403.53 131.07 403.53 139.74 390.89 158.44 390.89"/><polygon class="cls-2" points="158.21 99.91 149.53 112.55 130.83 112.55 139.5 99.91 158.21 99.91"/><polygon class="cls-2" points="158.2 682.19 149.53 694.83 130.83 694.83 139.5 682.19 158.2 682.19"/><path class="cls-2" d="M139.74,390.86v0l-8.67,12.64-11.73-9.22-.07-.14c.7-.9,9.51-12.11,10.47-13.32Z"/><path class="cls-2" d="M139.5,682.15v0l-8.67,12.64-11.72-9.21-.08-.16c.7-.89,9.51-12.1,10.47-13.31Z"/><path class="cls-2" d="M139.5,99.88v0l-8.67,12.64-11.71-9.21a1.15,1.15,0,0,1-.08-.15L129.5,89.88Z"/><path class="cls-3" d="M501.26,285a9.19,9.19,0,1,1-9.19-9.19A9.19,9.19,0,0,1,501.26,285Z"/><circle class="cls-3" cx="165.27" cy="284.48" r="9.19"/><circle class="cls-3" cx="818.31" cy="284.74" r="9.19"/><circle class="cls-3" cx="1144.96" cy="284.48" r="9.19"/><circle class="cls-3" cx="1471.11" cy="284.74" r="9.19"/><circle class="cls-3" cx="655.11" cy="138.87" r="9.19"/><circle class="cls-3" cx="328.71" cy="138.87" r="9.19"/><circle class="cls-3" cx="981.51" cy="138.87" r="9.19"/><circle class="cls-3" cx="1307.91" cy="138.87" r="9.19"/><circle class="cls-3" cx="492.07" cy="576.16" r="9.19"/><circle class="cls-3" cx="165.27" cy="575.67" r="9.19"/><circle class="cls-3" cx="818.31" cy="575.93" r="9.19"/><circle class="cls-3" cx="1144.96" cy="575.67" r="9.19"/><circle class="cls-3" cx="1471.11" cy="575.93" r="9.19"/><circle class="cls-3" cx="655.11" cy="430.06" r="9.19"/><circle class="cls-3" cx="328.71" cy="430.06" r="9.19"/><circle class="cls-3" cx="981.51" cy="430.06" r="9.19"/><circle class="cls-3" cx="1307.91" cy="430.06" r="9.19"/><circle class="cls-3" cx="655.15" cy="720.91" r="9.19"/><circle class="cls-3" cx="328.75" cy="720.91" r="9.19"/><circle class="cls-3" cx="981.55" cy="720.91" r="9.19"/><circle class="cls-3" cx="1307.95" cy="720.91" r="9.19"/><polyline class="cls-4" points="139.5 99.91 158.21 99.91 172.75 99.91 191.04 99.91"/><polyline class="cls-4" points="130.83 112.55 149.53 112.55 181.42 112.55 199.71 112.55"/><line class="cls-4" x1="201.45" y1="89.88" x2="191.04" y2="99.91"/><polyline class="cls-4" points="211.5 103.17 211.4 103.25 199.71 112.55"/><polyline class="cls-4" points="186.52 83.61 201.45 89.88 201.61 89.95 201.69 89.98"/><line class="cls-4" x1="129.5" y1="89.88" x2="139.5" y2="99.88"/><polyline class="cls-4" points="119.05 103.29 119.12 103.34 130.83 112.55"/><path class="cls-4" d="M141.83,83.56l-.09,0L129.5,89.88,119,103.19a1.15,1.15,0,0,0,.08.15c2.83,5.72,43.74,88.66,45,91.28"/><polyline class="cls-4" points="201.56 89.88 201.61 89.95 211.4 103.25 211.44 103.29 211.51 103.39"/><line class="cls-4" x1="191.04" y1="99.91" x2="199.71" y2="112.55"/><line class="cls-4" x1="172.75" y1="99.91" x2="181.42" y2="112.55"/><line class="cls-4" x1="139.5" y1="99.91" x2="130.83" y2="112.55"/><line class="cls-4" x1="158.21" y1="99.91" x2="149.53" y2="112.55"/><line class="cls-4" x1="149.53" y1="112.55" x2="164.18" y2="194.68"/><line class="cls-4" x1="181.42" y1="112.55" x2="164.18" y2="194.68"/><polyline class="cls-4" points="130.83 112.55 164.15 194.62 164.18 194.68"/><line class="cls-4" x1="199.71" y1="112.55" x2="164.18" y2="194.68"/><polyline class="cls-4" points="211.5 103.17 211.44 103.29 164.19 194.68"/><polyline class="cls-4" points="141.74 83.61 186.52 83.61 186.63 83.61"/><polyline class="cls-4" points="139.74 390.89 158.44 390.89 172.98 390.89 191.27 390.89"/><polyline class="cls-4" points="131.07 403.53 149.77 403.53 181.66 403.53 199.94 403.53"/><line class="cls-4" x1="201.69" y1="380.85" x2="191.27" y2="390.89"/><polyline class="cls-4" points="211.74 394.15 211.65 394.22 199.94 403.53"/><polyline class="cls-4" points="186.75 374.58 201.69 380.85 201.85 380.92 201.93 380.95"/><line class="cls-4" x1="129.74" y1="380.85" x2="139.74" y2="390.86"/><polyline class="cls-4" points="119.29 394.27 119.34 394.31 131.07 403.53"/><path class="cls-4" d="M142.07,374.53l-.1.05-12.23,6.27c-1,1.21-9.77,12.42-10.47,13.32l.07.14c2.79,5.64,43.76,88.67,45,91.29"/><polyline class="cls-4" points="201.8 380.85 201.85 380.92 211.65 394.22 211.68 394.27 211.75 394.36"/><line class="cls-4" x1="191.27" y1="390.89" x2="199.94" y2="403.53"/><line class="cls-4" x1="172.98" y1="390.89" x2="181.66" y2="403.53"/><line class="cls-4" x1="139.74" y1="390.89" x2="131.07" y2="403.53"/><line class="cls-4" x1="158.44" y1="390.89" x2="149.77" y2="403.53"/><line class="cls-4" x1="149.77" y1="403.53" x2="164.42" y2="485.66"/><line class="cls-4" x1="181.66" y1="403.53" x2="164.42" y2="485.66"/><polyline class="cls-4" points="131.07 403.53 164.39 485.6 164.42 485.66"/><line class="cls-4" x1="199.94" y1="403.53" x2="164.42" y2="485.66"/><polyline class="cls-4" points="211.74 394.15 211.68 394.27 164.42 485.66"/><polyline class="cls-4" points="141.97 374.58 186.75 374.58 186.86 374.58"/><polyline class="cls-4" points="139.5 682.19 158.2 682.19 172.74 682.19 191.03 682.19"/><polyline class="cls-4" points="130.83 694.83 149.53 694.83 181.42 694.83 199.7 694.83"/><line class="cls-4" x1="201.45" y1="672.15" x2="191.03" y2="682.19"/><polyline class="cls-4" points="211.5 685.44 211.4 685.52 199.7 694.83"/><polyline class="cls-4" points="186.51 665.88 201.45 672.15 201.61 672.22 201.69 672.25"/><line class="cls-4" x1="129.5" y1="672.15" x2="139.5" y2="682.15"/><polyline class="cls-4" points="119.05 685.57 119.11 685.62 130.83 694.83"/><path class="cls-4" d="M141.83,665.83l-.1,0-12.23,6.27c-1,1.21-9.77,12.42-10.47,13.31l.08.16,45,91.27"/><polyline class="cls-4" points="201.56 672.15 201.61 672.22 211.4 685.52 211.44 685.56 211.51 685.66"/><line class="cls-4" x1="191.03" y1="682.19" x2="199.7" y2="694.83"/><line class="cls-4" x1="172.74" y1="682.19" x2="181.42" y2="694.83"/><line class="cls-4" x1="139.5" y1="682.19" x2="130.83" y2="694.83"/><line class="cls-4" x1="158.2" y1="682.19" x2="149.53" y2="694.83"/><line class="cls-4" x1="149.53" y1="694.83" x2="164.18" y2="776.95"/><line class="cls-4" x1="181.42" y1="694.83" x2="164.18" y2="776.95"/><polyline class="cls-4" points="130.83 694.83 164.15 776.89 164.18 776.95"/><line class="cls-4" x1="199.7" y1="694.83" x2="164.18" y2="776.95"/><polyline class="cls-4" points="211.5 685.44 211.44 685.56 164.18 776.95"/><polyline class="cls-4" points="141.73 665.88 186.51 665.88 186.62 665.88"/><polyline class="cls-4" points="303.47 247.2 322.17 247.2 336.71 247.2 355 247.2"/><polyline class="cls-4" points="294.79 259.84 313.49 259.84 345.38 259.84 363.67 259.84"/><line class="cls-4" x1="365.41" y1="237.17" x2="355" y2="247.2"/><polyline class="cls-4" points="375.47 250.46 375.37 250.54 363.67 259.84"/><polyline class="cls-4" points="350.48 230.9 365.41 237.17 365.57 237.24 365.65 237.27"/><line class="cls-4" x1="293.46" y1="237.17" x2="303.47" y2="247.17"/><polyline class="cls-4" points="283.01 250.58 283.08 250.63 294.79 259.84"/><path class="cls-4" d="M305.79,230.85l-.09.05-12.24,6.27L283,250.48a1.15,1.15,0,0,0,.08.15c2.83,5.72,43.74,88.66,45,91.28"/><polyline class="cls-4" points="365.52 237.17 365.57 237.24 375.37 250.54 375.4 250.59 375.47 250.68"/><line class="cls-4" x1="355" y1="247.2" x2="363.67" y2="259.84"/><line class="cls-4" x1="336.71" y1="247.2" x2="345.38" y2="259.84"/><line class="cls-4" x1="303.47" y1="247.2" x2="294.79" y2="259.84"/><line class="cls-4" x1="322.17" y1="247.2" x2="313.49" y2="259.84"/><line class="cls-4" x1="313.49" y1="259.84" x2="328.14" y2="341.97"/><line class="cls-4" x1="345.38" y1="259.84" x2="328.14" y2="341.97"/><polyline class="cls-4" points="294.79 259.84 328.11 341.91 328.14 341.97"/><line class="cls-4" x1="363.67" y1="259.84" x2="328.14" y2="341.97"/><polyline class="cls-4" points="375.47 250.46 375.4 250.59 328.15 341.97"/><polyline class="cls-4" points="305.7 230.9 350.48 230.9 350.59 230.9"/><polyline class="cls-4" points="304.48 537.81 323.18 537.81 337.73 537.81 356.01 537.81"/><polyline class="cls-4" points="295.81 550.45 314.51 550.45 346.4 550.45 364.68 550.45"/><line class="cls-4" x1="366.43" y1="527.78" x2="356.01" y2="537.81"/><polyline class="cls-4" points="376.48 541.07 376.38 541.15 364.68 550.45"/><polyline class="cls-4" points="351.49 521.51 366.43 527.78 366.59 527.85 366.67 527.88"/><line class="cls-4" x1="294.48" y1="527.78" x2="304.48" y2="537.78"/><polyline class="cls-4" points="284.03 541.19 284.08 541.23 295.81 550.45"/><path class="cls-4" d="M306.81,521.46l-.09,0-12.24,6.27c-1,1.2-9.77,12.42-10.47,13.31l.07.14c2.8,5.64,43.76,88.67,45.05,91.29"/><polyline class="cls-4" points="366.54 527.78 366.59 527.85 376.38 541.15 376.42 541.19 376.49 541.29"/><line class="cls-4" x1="356.01" y1="537.81" x2="364.68" y2="550.45"/><line class="cls-4" x1="337.73" y1="537.81" x2="346.4" y2="550.45"/><line class="cls-4" x1="304.48" y1="537.81" x2="295.81" y2="550.45"/><line class="cls-4" x1="323.18" y1="537.81" x2="314.51" y2="550.45"/><line class="cls-4" x1="314.51" y1="550.45" x2="329.16" y2="632.58"/><line class="cls-4" x1="346.4" y1="550.45" x2="329.16" y2="632.58"/><polyline class="cls-4" points="295.81 550.45 329.13 632.52 329.16 632.58"/><line class="cls-4" x1="364.68" y1="550.45" x2="329.16" y2="632.58"/><polyline class="cls-4" points="376.48 541.07 376.42 541.19 329.16 632.58"/><polyline class="cls-4" points="306.72 521.51 351.49 521.51 351.61 521.51"/><polyline class="cls-4" points="466.14 683.62 484.84 683.62 499.38 683.62 517.67 683.62"/><polyline class="cls-4" points="457.47 696.26 476.17 696.26 508.06 696.26 526.34 696.26"/><line class="cls-4" x1="528.09" y1="673.59" x2="517.67" y2="683.62"/><polyline class="cls-4" points="538.14 686.88 538.04 686.96 526.34 696.26"/><polyline class="cls-4" points="513.15 667.32 528.09 673.59 528.25 673.66 528.33 673.69"/><line class="cls-4" x1="456.14" y1="673.59" x2="466.14" y2="683.59"/><polyline class="cls-4" points="445.69 687 445.74 687.04 457.47 696.26"/><path class="cls-4" d="M468.47,667.27l-.1.05-12.23,6.27c-1,1.2-9.77,12.42-10.47,13.31l.07.14c2.79,5.64,43.76,88.67,45.05,91.29"/><polyline class="cls-4" points="528.2 673.59 528.25 673.66 538.04 686.96 538.08 687 538.15 687.1"/><line class="cls-4" x1="517.67" y1="683.62" x2="526.34" y2="696.26"/><line class="cls-4" x1="499.38" y1="683.62" x2="508.06" y2="696.26"/><line class="cls-4" x1="466.14" y1="683.62" x2="457.47" y2="696.26"/><line class="cls-4" x1="484.84" y1="683.62" x2="476.17" y2="696.26"/><line class="cls-4" x1="476.17" y1="696.26" x2="490.82" y2="778.39"/><line class="cls-4" x1="508.06" y1="696.26" x2="490.82" y2="778.39"/><polyline class="cls-4" points="457.47 696.26 490.79 778.33 490.82 778.39"/><line class="cls-4" x1="526.34" y1="696.26" x2="490.82" y2="778.39"/><polyline class="cls-4" points="538.14 686.88 538.08 687 490.82 778.39"/><polyline class="cls-4" points="468.37 667.32 513.15 667.32 513.26 667.32"/><polyline class="cls-4" points="466.18 392.53 484.88 392.53 499.43 392.53 517.71 392.53"/><polyline class="cls-4" points="457.51 405.17 476.21 405.17 508.1 405.17 526.38 405.17"/><line class="cls-4" x1="528.13" y1="382.5" x2="517.71" y2="392.53"/><polyline class="cls-4" points="538.18 395.79 538.08 395.87 526.38 405.17"/><polyline class="cls-4" points="513.19 376.23 528.13 382.5 528.29 382.57 528.37 382.6"/><line class="cls-4" x1="456.18" y1="382.5" x2="466.18" y2="392.5"/><polyline class="cls-4" points="445.73 395.91 445.78 395.95 457.51 405.17"/><path class="cls-4" d="M468.51,376.18l-.09.05-12.24,6.27c-1,1.2-9.77,12.42-10.47,13.31l.07.14c2.8,5.65,43.76,88.67,45.05,91.29"/><polyline class="cls-4" points="528.24 382.5 528.29 382.57 538.08 395.87 538.12 395.91 538.19 396.01"/><line class="cls-4" x1="517.71" y1="392.53" x2="526.38" y2="405.17"/><line class="cls-4" x1="499.43" y1="392.53" x2="508.1" y2="405.17"/><line class="cls-4" x1="466.18" y1="392.53" x2="457.51" y2="405.17"/><line class="cls-4" x1="484.88" y1="392.53" x2="476.21" y2="405.17"/><line class="cls-4" x1="476.21" y1="405.17" x2="490.86" y2="487.3"/><line class="cls-4" x1="508.1" y1="405.17" x2="490.86" y2="487.3"/><polyline class="cls-4" points="457.51 405.17 490.83 487.24 490.86 487.3"/><line class="cls-4" x1="526.38" y1="405.17" x2="490.86" y2="487.3"/><polyline class="cls-4" points="538.18 395.79 538.12 395.91 490.86 487.3"/><polyline class="cls-4" points="468.42 376.23 513.19 376.23 513.31 376.23"/><polyline class="cls-4" points="466.18 99.24 484.88 99.24 499.43 99.24 517.71 99.24"/><polyline class="cls-4" points="457.51 111.88 476.21 111.88 508.1 111.88 526.38 111.88"/><line class="cls-4" x1="528.13" y1="89.2" x2="517.71" y2="99.24"/><polyline class="cls-4" points="538.18 102.5 538.09 102.57 526.38 111.88"/><polyline class="cls-4" points="513.19 82.93 528.13 89.2 528.29 89.27 528.37 89.3"/><line class="cls-4" x1="456.18" y1="89.2" x2="466.18" y2="99.21"/><polyline class="cls-4" points="445.73 102.62 445.78 102.66 457.51 111.88"/><path class="cls-4" d="M468.51,82.88l-.09.05L456.18,89.2c-1,1.21-9.77,12.42-10.47,13.32l.07.14c2.8,5.64,43.76,88.66,45.05,91.28"/><polyline class="cls-4" points="528.24 89.2 528.29 89.27 538.09 102.57 538.12 102.62 538.19 102.71"/><line class="cls-4" x1="517.71" y1="99.24" x2="526.38" y2="111.88"/><line class="cls-4" x1="499.43" y1="99.24" x2="508.1" y2="111.88"/><line class="cls-4" x1="466.18" y1="99.24" x2="457.51" y2="111.88"/><line class="cls-4" x1="484.88" y1="99.24" x2="476.21" y2="111.88"/><line class="cls-4" x1="476.21" y1="111.88" x2="490.86" y2="194"/><line class="cls-4" x1="508.1" y1="111.88" x2="490.86" y2="194"/><polyline class="cls-4" points="457.51 111.88 490.83 193.94 490.86 194"/><line class="cls-4" x1="526.38" y1="111.88" x2="490.86" y2="194"/><polyline class="cls-4" points="538.18 102.5 538.12 102.62 490.86 194"/><polyline class="cls-4" points="468.42 82.93 513.19 82.93 513.31 82.93"/><polyline class="cls-4" points="629.96 243.52 648.66 243.52 663.2 243.52 681.49 243.52"/><polyline class="cls-4" points="621.29 256.16 639.99 256.16 671.88 256.16 690.16 256.16"/><line class="cls-4" x1="691.91" y1="233.49" x2="681.49" y2="243.52"/><polyline class="cls-4" points="701.96 246.78 701.86 246.86 690.16 256.16"/><polyline class="cls-4" points="676.97 227.22 691.91 233.49 692.07 233.56 692.15 233.59"/><line class="cls-4" x1="619.96" y1="233.49" x2="629.96" y2="243.49"/><polyline class="cls-4" points="609.51 246.9 609.56 246.94 621.29 256.16"/><path class="cls-4" d="M632.29,227.17l-.1.05L620,233.49c-1,1.2-9.77,12.42-10.47,13.31l.07.14,45.05,91.29"/><polyline class="cls-4" points="692.02 233.49 692.07 233.56 701.86 246.86 701.9 246.9 701.97 247"/><line class="cls-4" x1="681.49" y1="243.52" x2="690.16" y2="256.16"/><line class="cls-4" x1="663.2" y1="243.52" x2="671.88" y2="256.16"/><line class="cls-4" x1="629.96" y1="243.52" x2="621.29" y2="256.16"/><line class="cls-4" x1="648.66" y1="243.52" x2="639.99" y2="256.16"/><line class="cls-4" x1="639.99" y1="256.16" x2="654.64" y2="338.29"/><line class="cls-4" x1="671.88" y1="256.16" x2="654.64" y2="338.29"/><polyline class="cls-4" points="621.29 256.16 654.61 338.23 654.64 338.29"/><line class="cls-4" x1="690.16" y1="256.16" x2="654.64" y2="338.29"/><polyline class="cls-4" points="701.96 246.78 701.9 246.9 654.64 338.29"/><polyline class="cls-4" points="632.19 227.22 676.97 227.22 677.08 227.22"/><polyline class="cls-4" points="629.96 536.72 648.66 536.72 663.2 536.72 681.49 536.72"/><polyline class="cls-4" points="621.28 549.36 639.98 549.36 671.87 549.36 690.16 549.36"/><line class="cls-4" x1="691.9" y1="526.69" x2="681.49" y2="536.72"/><polyline class="cls-4" points="701.96 539.98 701.86 540.06 690.16 549.36"/><polyline class="cls-4" points="676.97 520.42 691.9 526.69 692.06 526.76 692.14 526.79"/><line class="cls-4" x1="619.95" y1="526.69" x2="629.96" y2="536.69"/><polyline class="cls-4" points="609.5 540.1 609.57 540.15 621.28 549.36"/><path class="cls-4" d="M632.29,520.37l-.1,0L620,526.69,609.49,540a1.15,1.15,0,0,0,.08.15c2.83,5.72,43.74,88.66,45,91.28"/><polyline class="cls-4" points="692.01 526.69 692.06 526.76 701.86 540.06 701.89 540.11 701.96 540.2"/><line class="cls-4" x1="681.49" y1="536.72" x2="690.16" y2="549.36"/><line class="cls-4" x1="663.2" y1="536.72" x2="671.87" y2="549.36"/><line class="cls-4" x1="629.96" y1="536.72" x2="621.28" y2="549.36"/><line class="cls-4" x1="648.66" y1="536.72" x2="639.98" y2="549.36"/><line class="cls-4" x1="639.98" y1="549.36" x2="654.63" y2="631.49"/><line class="cls-4" x1="671.87" y1="549.36" x2="654.63" y2="631.49"/><polyline class="cls-4" points="621.28 549.36 654.6 631.43 654.63 631.49"/><line class="cls-4" x1="690.16" y1="549.36" x2="654.63" y2="631.49"/><polyline class="cls-4" points="701.96 539.98 701.89 540.11 654.64 631.49"/><polyline class="cls-4" points="632.19 520.42 676.97 520.42 677.08 520.42"/><polyline class="cls-4" points="792.74 683.2 811.45 683.2 825.99 683.2 844.28 683.2"/><polyline class="cls-4" points="784.07 695.83 802.77 695.83 834.66 695.83 852.95 695.83"/><line class="cls-4" x1="854.69" y1="673.16" x2="844.28" y2="683.2"/><polyline class="cls-4" points="864.74 686.45 864.64 686.53 852.95 695.83"/><polyline class="cls-4" points="839.76 666.89 854.69 673.16 854.85 673.23 854.93 673.26"/><line class="cls-4" x1="782.74" y1="673.16" x2="792.74" y2="683.16"/><polyline class="cls-4" points="772.29 686.58 772.36 686.64 784.07 695.83"/><path class="cls-4" d="M795.07,666.84l-.09,0-12.24,6.27-10.46,13.31.08.17c2.92,5.9,43.74,88.64,45,91.26"/><polyline class="cls-4" points="854.8 673.16 854.85 673.23 864.64 686.53 864.68 686.57 864.75 686.67"/><line class="cls-4" x1="844.28" y1="683.2" x2="852.95" y2="695.83"/><line class="cls-4" x1="825.99" y1="683.2" x2="834.66" y2="695.83"/><line class="cls-4" x1="792.74" y1="683.2" x2="784.07" y2="695.83"/><line class="cls-4" x1="811.45" y1="683.2" x2="802.77" y2="695.83"/><line class="cls-4" x1="802.77" y1="695.83" x2="817.42" y2="777.96"/><line class="cls-4" x1="834.66" y1="695.83" x2="817.42" y2="777.96"/><polyline class="cls-4" points="784.07 695.83 817.39 777.9 817.42 777.96"/><line class="cls-4" x1="852.95" y1="695.83" x2="817.42" y2="777.96"/><polyline class="cls-4" points="864.74 686.45 864.68 686.57 817.43 777.96"/><polyline class="cls-4" points="794.98 666.89 839.76 666.89 839.87 666.89"/><polyline class="cls-4" points="794.05 393.31 812.75 393.31 827.29 393.31 845.58 393.31"/><polyline class="cls-4" points="785.38 405.95 804.08 405.95 835.97 405.95 854.25 405.95"/><polyline class="cls-4" points="856 383.27 855.99 383.28 845.58 393.31"/><polyline class="cls-4" points="866.05 396.57 865.96 396.64 854.25 405.95"/><polyline class="cls-4" points="841.06 377 855.99 383.28 856.17 383.35 856.24 383.38"/><line class="cls-4" x1="784.05" y1="383.27" x2="794.05" y2="393.28"/><polyline class="cls-4" points="773.6 396.69 773.65 396.73 785.38 405.95"/><path class="cls-4" d="M796.38,377l-.08,0-12.25,6.27c-1,1.21-9.77,12.43-10.47,13.32l.07.14c2.79,5.64,43.76,88.67,45.05,91.29"/><polyline class="cls-4" points="856.11 383.27 856.17 383.35 865.96 396.64 865.99 396.69 866.06 396.78"/><line class="cls-4" x1="845.58" y1="393.31" x2="854.25" y2="405.95"/><line class="cls-4" x1="827.29" y1="393.31" x2="835.97" y2="405.95"/><line class="cls-4" x1="794.05" y1="393.31" x2="785.38" y2="405.95"/><line class="cls-4" x1="812.75" y1="393.31" x2="804.08" y2="405.95"/><line class="cls-4" x1="804.08" y1="405.95" x2="818.73" y2="488.08"/><line class="cls-4" x1="835.97" y1="405.95" x2="818.73" y2="488.08"/><polyline class="cls-4" points="785.38 405.95 818.7 488.02 818.73 488.08"/><line class="cls-4" x1="854.25" y1="405.95" x2="818.73" y2="488.08"/><polyline class="cls-4" points="866.05 396.57 865.99 396.69 818.73 488.08"/><polyline class="cls-4" points="796.28 377 796.3 377 841.06 377 841.17 377"/><polyline class="cls-4" points="792.96 98.89 811.66 98.89 826.2 98.89 844.49 98.89"/><polyline class="cls-4" points="784.29 111.53 802.99 111.53 834.87 111.53 853.16 111.53"/><line class="cls-4" x1="854.91" y1="88.86" x2="844.49" y2="98.89"/><polyline class="cls-4" points="864.96 102.15 864.86 102.23 853.16 111.53"/><polyline class="cls-4" points="839.97 82.59 854.91 88.86 855.07 88.93 855.15 88.96"/><line class="cls-4" x1="782.96" y1="88.86" x2="792.96" y2="98.86"/><polyline class="cls-4" points="772.5 102.27 772.57 102.32 784.29 111.53"/><path class="cls-4" d="M795.29,82.54l-.1,0L783,88.86c-1,1.2-9.77,12.42-10.47,13.31a1.15,1.15,0,0,0,.08.15c2.83,5.72,43.75,88.66,45,91.28"/><polyline class="cls-4" points="855.02 88.86 855.07 88.93 864.86 102.23 864.9 102.27 864.97 102.37"/><line class="cls-4" x1="844.49" y1="98.89" x2="853.16" y2="111.53"/><line class="cls-4" x1="826.2" y1="98.89" x2="834.87" y2="111.53"/><line class="cls-4" x1="792.96" y1="98.89" x2="784.29" y2="111.53"/><line class="cls-4" x1="811.66" y1="98.89" x2="802.99" y2="111.53"/><line class="cls-4" x1="802.99" y1="111.53" x2="817.64" y2="193.66"/><line class="cls-4" x1="834.87" y1="111.53" x2="817.64" y2="193.66"/><polyline class="cls-4" points="784.29 111.53 817.61 193.6 817.64 193.66"/><line class="cls-4" x1="853.16" y1="111.53" x2="817.64" y2="193.66"/><polyline class="cls-4" points="864.96 102.15 864.9 102.27 817.64 193.66"/><polyline class="cls-4" points="795.19 82.59 839.97 82.59 840.08 82.59"/><polyline class="cls-4" points="956.46 245.54 975.16 245.54 989.7 245.54 1007.99 245.54"/><polyline class="cls-4" points="947.78 258.18 966.49 258.18 998.37 258.18 1016.66 258.18"/><line class="cls-4" x1="1018.4" y1="235.5" x2="1007.99" y2="245.54"/><polyline class="cls-4" points="1028.46 248.8 1028.36 248.88 1016.66 258.18"/><polyline class="cls-4" points="1003.47 229.23 1018.4 235.5 1018.56 235.57 1018.64 235.6"/><line class="cls-4" x1="946.45" y1="235.5" x2="956.46" y2="245.51"/><polyline class="cls-4" points="936 248.92 936.07 248.97 947.78 258.18"/><path class="cls-4" d="M958.79,229.18l-.1,0-12.24,6.27L936,248.82a1.15,1.15,0,0,0,.08.15c2.83,5.72,43.74,88.65,45,91.27"/><polyline class="cls-4" points="1018.51 235.5 1018.56 235.57 1028.36 248.88 1028.4 248.92 1028.46 249.01"/><line class="cls-4" x1="1007.99" y1="245.54" x2="1016.66" y2="258.18"/><line class="cls-4" x1="989.7" y1="245.54" x2="998.37" y2="258.18"/><line class="cls-4" x1="956.46" y1="245.54" x2="947.78" y2="258.18"/><line class="cls-4" x1="975.16" y1="245.54" x2="966.49" y2="258.18"/><line class="cls-4" x1="966.49" y1="258.18" x2="981.13" y2="340.3"/><line class="cls-4" x1="998.37" y1="258.18" x2="981.13" y2="340.3"/><polyline class="cls-4" points="947.78 258.18 981.1 340.24 981.13 340.3"/><line class="cls-4" x1="1016.66" y1="258.18" x2="981.13" y2="340.3"/><polyline class="cls-4" points="1028.46 248.8 1028.4 248.92 981.14 340.3"/><polyline class="cls-4" points="958.69 229.23 1003.47 229.23 1003.58 229.23"/><polyline class="cls-4" points="956.45 536.95 975.15 536.95 989.7 536.95 1007.98 536.95"/><polyline class="cls-4" points="947.78 549.59 966.48 549.59 998.37 549.59 1016.65 549.59"/><line class="cls-4" x1="1018.4" y1="526.92" x2="1007.98" y2="536.95"/><polyline class="cls-4" points="1028.45 540.21 1028.35 540.29 1016.65 549.59"/><polyline class="cls-4" points="1003.46 520.65 1018.4 526.92 1018.56 526.99 1018.64 527.02"/><line class="cls-4" x1="946.45" y1="526.92" x2="956.45" y2="536.92"/><polyline class="cls-4" points="936 540.33 936.05 540.37 947.78 549.59"/><path class="cls-4" d="M958.78,520.6l-.09,0-12.24,6.27c-1,1.2-9.77,12.42-10.47,13.31l.07.14c2.79,5.64,43.76,88.67,45.05,91.29"/><polyline class="cls-4" points="1018.51 526.92 1018.56 526.99 1028.35 540.29 1028.39 540.33 1028.46 540.43"/><line class="cls-4" x1="1007.98" y1="536.95" x2="1016.65" y2="549.59"/><line class="cls-4" x1="989.7" y1="536.95" x2="998.37" y2="549.59"/><line class="cls-4" x1="956.45" y1="536.95" x2="947.78" y2="549.59"/><line class="cls-4" x1="975.15" y1="536.95" x2="966.48" y2="549.59"/><line class="cls-4" x1="966.48" y1="549.59" x2="981.13" y2="631.72"/><line class="cls-4" x1="998.37" y1="549.59" x2="981.13" y2="631.72"/><polyline class="cls-4" points="947.78 549.59 981.1 631.66 981.13 631.72"/><line class="cls-4" x1="1016.65" y1="549.59" x2="981.13" y2="631.72"/><polyline class="cls-4" points="1028.45 540.21 1028.39 540.33 981.13 631.72"/><polyline class="cls-4" points="958.69 520.65 1003.46 520.65 1003.57 520.65"/><polyline class="cls-4" points="1119.03 682.5 1137.74 682.5 1152.28 682.5 1170.57 682.5"/><polyline class="cls-4" points="1110.36 695.13 1129.06 695.13 1160.95 695.13 1179.24 695.13"/><line class="cls-4" x1="1180.98" y1="672.46" x2="1170.57" y2="682.5"/><polyline class="cls-4" points="1191.03 685.75 1190.93 685.83 1179.24 695.13"/><polyline class="cls-4" points="1166.05 666.19 1180.98 672.46 1181.14 672.53 1181.22 672.56"/><line class="cls-4" x1="1109.03" y1="672.46" x2="1119.03" y2="682.46"/><polyline class="cls-4" points="1098.58 685.88 1098.65 685.94 1110.36 695.13"/><path class="cls-4" d="M1121.36,666.14l-.09.05L1109,672.46l-10.46,13.31.08.17c2.92,5.9,43.74,88.64,45,91.26"/><polyline class="cls-4" points="1181.09 672.46 1181.14 672.53 1190.93 685.83 1190.97 685.87 1191.04 685.97"/><line class="cls-4" x1="1170.57" y1="682.5" x2="1179.24" y2="695.13"/><line class="cls-4" x1="1152.28" y1="682.5" x2="1160.95" y2="695.13"/><line class="cls-4" x1="1119.03" y1="682.5" x2="1110.36" y2="695.13"/><line class="cls-4" x1="1137.74" y1="682.5" x2="1129.06" y2="695.13"/><line class="cls-4" x1="1129.06" y1="695.13" x2="1143.71" y2="777.26"/><line class="cls-4" x1="1160.95" y1="695.13" x2="1143.71" y2="777.26"/><polyline class="cls-4" points="1110.36 695.13 1143.68 777.2 1143.71 777.26"/><line class="cls-4" x1="1179.24" y1="695.13" x2="1143.71" y2="777.26"/><polyline class="cls-4" points="1191.03 685.75 1190.97 685.87 1143.72 777.26"/><polyline class="cls-4" points="1121.27 666.19 1166.05 666.19 1166.16 666.19"/><polyline class="cls-4" points="1118.87 390.38 1137.57 390.38 1152.12 390.38 1170.4 390.38"/><polyline class="cls-4" points="1110.2 403.02 1128.9 403.02 1160.79 403.02 1179.08 403.02"/><line class="cls-4" x1="1180.82" y1="380.34" x2="1170.4" y2="390.38"/><polyline class="cls-4" points="1190.87 393.64 1190.78 393.71 1179.08 403.02"/><polyline class="cls-4" points="1165.88 374.07 1180.82 380.34 1180.98 380.41 1181.06 380.44"/><line class="cls-4" x1="1108.87" y1="380.34" x2="1118.87" y2="390.35"/><polyline class="cls-4" points="1098.42 393.76 1098.47 393.8 1110.2 403.02"/><path class="cls-4" d="M1121.2,374l-.09.05-12.24,6.27c-1,1.21-9.76,12.42-10.47,13.32l.07.14c2.8,5.64,43.76,88.66,45,91.28"/><polyline class="cls-4" points="1180.93 380.34 1180.98 380.41 1190.78 393.71 1190.81 393.76 1190.88 393.85"/><line class="cls-4" x1="1170.4" y1="390.38" x2="1179.08" y2="403.02"/><line class="cls-4" x1="1152.12" y1="390.38" x2="1160.79" y2="403.02"/><line class="cls-4" x1="1118.87" y1="390.38" x2="1110.2" y2="403.02"/><line class="cls-4" x1="1137.57" y1="390.38" x2="1128.9" y2="403.02"/><line class="cls-4" x1="1128.9" y1="403.02" x2="1143.55" y2="485.14"/><line class="cls-4" x1="1160.79" y1="403.02" x2="1143.55" y2="485.14"/><polyline class="cls-4" points="1110.2 403.02 1143.52 485.08 1143.55 485.14"/><line class="cls-4" x1="1179.08" y1="403.02" x2="1143.55" y2="485.14"/><polyline class="cls-4" points="1190.87 393.64 1190.81 393.76 1143.55 485.14"/><polyline class="cls-4" points="1121.11 374.07 1165.88 374.07 1166 374.07"/><polyline class="cls-4" points="1118.94 99.91 1137.64 99.91 1152.19 99.91 1170.47 99.91"/><polyline class="cls-4" points="1110.27 112.55 1128.97 112.55 1160.86 112.55 1179.14 112.55"/><line class="cls-4" x1="1180.89" y1="89.88" x2="1170.47" y2="99.91"/><polyline class="cls-4" points="1190.94 103.17 1190.84 103.25 1179.14 112.55"/><polyline class="cls-4" points="1165.95 83.61 1180.89 89.88 1181.05 89.95 1181.13 89.98"/><line class="cls-4" x1="1108.94" y1="89.88" x2="1118.94" y2="99.88"/><polyline class="cls-4" points="1098.49 103.29 1098.54 103.33 1110.27 112.55"/><path class="cls-4" d="M1121.27,83.56l-.09,0-12.24,6.27c-1,1.2-9.77,12.42-10.47,13.31l.07.14c2.8,5.64,43.76,88.67,45,91.29"/><polyline class="cls-4" points="1181 89.88 1181.05 89.95 1190.84 103.25 1190.88 103.29 1190.95 103.39"/><line class="cls-4" x1="1170.47" y1="99.91" x2="1179.14" y2="112.55"/><line class="cls-4" x1="1152.19" y1="99.91" x2="1160.86" y2="112.55"/><line class="cls-4" x1="1118.94" y1="99.91" x2="1110.27" y2="112.55"/><line class="cls-4" x1="1137.64" y1="99.91" x2="1128.97" y2="112.55"/><line class="cls-4" x1="1128.97" y1="112.55" x2="1143.62" y2="194.68"/><line class="cls-4" x1="1160.86" y1="112.55" x2="1143.62" y2="194.68"/><polyline class="cls-4" points="1110.27 112.55 1143.59 194.62 1143.62 194.68"/><line class="cls-4" x1="1179.14" y1="112.55" x2="1143.62" y2="194.68"/><polyline class="cls-4" points="1190.94 103.17 1190.88 103.29 1143.62 194.68"/><polyline class="cls-4" points="1121.18 83.61 1165.95 83.61 1166.07 83.61"/><polyline class="cls-4" points="1446.68 99.91 1465.38 99.91 1479.92 99.91 1498.21 99.91"/><polyline class="cls-4" points="1438.01 112.55 1456.71 112.55 1488.59 112.55 1506.88 112.55"/><line class="cls-4" x1="1508.63" y1="89.88" x2="1498.21" y2="99.91"/><polyline class="cls-4" points="1518.68 103.17 1518.58 103.25 1506.88 112.55"/><polyline class="cls-4" points="1493.69 83.61 1508.63 89.88 1508.79 89.95 1508.87 89.98"/><line class="cls-4" x1="1436.68" y1="89.88" x2="1446.68" y2="99.88"/><polyline class="cls-4" points="1426.23 103.29 1426.28 103.33 1438.01 112.55"/><path class="cls-4" d="M1449,83.56l-.1,0-12.23,6.27c-1,1.2-9.77,12.42-10.47,13.31l.07.14c2.79,5.64,43.76,88.67,45,91.29"/><polyline class="cls-4" points="1508.74 89.88 1508.79 89.95 1518.58 103.25 1518.62 103.29 1518.69 103.39"/><line class="cls-4" x1="1498.21" y1="99.91" x2="1506.88" y2="112.55"/><line class="cls-4" x1="1479.92" y1="99.91" x2="1488.59" y2="112.55"/><line class="cls-4" x1="1446.68" y1="99.91" x2="1438.01" y2="112.55"/><line class="cls-4" x1="1465.38" y1="99.91" x2="1456.71" y2="112.55"/><line class="cls-4" x1="1456.71" y1="112.55" x2="1471.36" y2="194.68"/><line class="cls-4" x1="1488.59" y1="112.55" x2="1471.36" y2="194.68"/><polyline class="cls-4" points="1438.01 112.55 1471.33 194.62 1471.36 194.68"/><line class="cls-4" x1="1506.88" y1="112.55" x2="1471.36" y2="194.68"/><polyline class="cls-4" points="1518.68 103.17 1518.62 103.29 1471.36 194.68"/><polyline class="cls-4" points="1448.91 83.61 1493.69 83.61 1493.8 83.61"/><polyline class="cls-4" points="1283.19 244.61 1301.89 244.61 1316.44 244.61 1334.72 244.61"/><polyline class="cls-4" points="1274.52 257.25 1293.22 257.25 1325.11 257.25 1343.4 257.25"/><line class="cls-4" x1="1345.14" y1="234.58" x2="1334.72" y2="244.61"/><polyline class="cls-4" points="1355.19 247.87 1355.09 247.95 1343.4 257.25"/><polyline class="cls-4" points="1330.2 228.31 1345.14 234.58 1345.3 234.65 1345.38 234.68"/><line class="cls-4" x1="1273.19" y1="234.58" x2="1283.19" y2="244.58"/><polyline class="cls-4" points="1262.74 247.99 1262.79 248.03 1274.52 257.25"/><path class="cls-4" d="M1285.52,228.26l-.09.05-12.24,6.27c-1,1.2-9.76,12.42-10.47,13.31l.07.14c2.8,5.64,43.76,88.67,45,91.29"/><polyline class="cls-4" points="1345.25 234.58 1345.3 234.65 1355.09 247.95 1355.13 247.99 1355.2 248.09"/><line class="cls-4" x1="1334.72" y1="244.61" x2="1343.4" y2="257.25"/><line class="cls-4" x1="1316.44" y1="244.61" x2="1325.11" y2="257.25"/><line class="cls-4" x1="1283.19" y1="244.61" x2="1274.52" y2="257.25"/><line class="cls-4" x1="1301.89" y1="244.61" x2="1293.22" y2="257.25"/><line class="cls-4" x1="1293.22" y1="257.25" x2="1307.87" y2="339.38"/><line class="cls-4" x1="1325.11" y1="257.25" x2="1307.87" y2="339.38"/><polyline class="cls-4" points="1274.52 257.25 1307.84 339.32 1307.87 339.38"/><line class="cls-4" x1="1343.4" y1="257.25" x2="1307.87" y2="339.38"/><polyline class="cls-4" points="1355.19 247.87 1355.13 247.99 1307.87 339.38"/><polyline class="cls-4" points="1285.43 228.31 1330.2 228.31 1330.32 228.31"/><polyline class="cls-4" points="1445.59 390.85 1464.29 390.85 1478.83 390.85 1497.12 390.85"/><polyline class="cls-4" points="1436.92 403.49 1455.62 403.49 1487.5 403.49 1505.79 403.49"/><line class="cls-4" x1="1507.54" y1="380.81" x2="1497.12" y2="390.85"/><polyline class="cls-4" points="1517.59 394.11 1517.5 394.18 1505.79 403.49"/><polyline class="cls-4" points="1492.6 374.54 1507.54 380.81 1507.7 380.88 1507.78 380.91"/><line class="cls-4" x1="1435.58" y1="380.81" x2="1445.59" y2="390.82"/><polyline class="cls-4" points="1425.13 394.23 1425.2 394.28 1436.92 403.49"/><path class="cls-4" d="M1447.92,374.49l-.1.05-12.24,6.27-10.46,13.32a1.15,1.15,0,0,0,.08.15c2.83,5.72,43.75,88.66,45,91.28"/><polyline class="cls-4" points="1507.65 380.81 1507.7 380.88 1517.5 394.18 1517.53 394.23 1517.6 394.32"/><line class="cls-4" x1="1497.12" y1="390.85" x2="1505.79" y2="403.49"/><line class="cls-4" x1="1478.83" y1="390.85" x2="1487.5" y2="403.49"/><line class="cls-4" x1="1445.59" y1="390.85" x2="1436.92" y2="403.49"/><line class="cls-4" x1="1464.29" y1="390.85" x2="1455.62" y2="403.49"/><line class="cls-4" x1="1455.62" y1="403.49" x2="1470.27" y2="485.62"/><line class="cls-4" x1="1487.5" y1="403.49" x2="1470.27" y2="485.62"/><polyline class="cls-4" points="1436.92 403.49 1470.24 485.56 1470.27 485.62"/><line class="cls-4" x1="1505.79" y1="403.49" x2="1470.27" y2="485.62"/><polyline class="cls-4" points="1517.59 394.11 1517.53 394.23 1470.27 485.62"/><polyline class="cls-4" points="1447.82 374.54 1492.6 374.54 1492.71 374.54"/><polyline class="cls-4" points="1281.41 535.04 1300.11 535.04 1314.65 535.04 1332.94 535.04"/><polyline class="cls-4" points="1272.74 547.68 1291.44 547.68 1323.32 547.68 1341.61 547.68"/><line class="cls-4" x1="1343.35" y1="525" x2="1332.94" y2="535.04"/><polyline class="cls-4" points="1353.41 538.3 1353.32 538.37 1341.61 547.68"/><polyline class="cls-4" points="1328.42 518.73 1343.35 525 1343.51 525.07 1343.59 525.1"/><line class="cls-4" x1="1271.4" y1="525" x2="1281.41" y2="535.01"/><polyline class="cls-4" points="1260.95 538.42 1261.02 538.47 1272.74 547.68"/><path class="cls-4" d="M1283.74,518.68l-.1.05L1271.4,525l-10.46,13.32a1.15,1.15,0,0,0,.08.15c2.83,5.72,43.75,88.65,45,91.27"/><polyline class="cls-4" points="1343.46 525 1343.51 525.07 1353.32 538.37 1353.35 538.42 1353.42 538.51"/><line class="cls-4" x1="1332.94" y1="535.04" x2="1341.61" y2="547.68"/><line class="cls-4" x1="1314.65" y1="535.04" x2="1323.32" y2="547.68"/><line class="cls-4" x1="1281.41" y1="535.04" x2="1272.74" y2="547.68"/><line class="cls-4" x1="1300.11" y1="535.04" x2="1291.44" y2="547.68"/><line class="cls-4" x1="1291.44" y1="547.68" x2="1306.09" y2="629.8"/><line class="cls-4" x1="1323.32" y1="547.68" x2="1306.09" y2="629.8"/><polyline class="cls-4" points="1272.74 547.68 1306.06 629.74 1306.09 629.8"/><line class="cls-4" x1="1341.61" y1="547.68" x2="1306.09" y2="629.8"/><polyline class="cls-4" points="1353.41 538.3 1353.35 538.42 1306.09 629.8"/><polyline class="cls-4" points="1283.64 518.73 1328.42 518.73 1328.53 518.73"/><polyline class="cls-4" points="1446.67 681.7 1465.38 681.7 1479.92 681.7 1498.21 681.7"/><polyline class="cls-4" points="1438 694.34 1456.7 694.34 1488.59 694.34 1506.88 694.34"/><line class="cls-4" x1="1508.62" y1="671.67" x2="1498.21" y2="681.7"/><polyline class="cls-4" points="1518.67 684.96 1518.57 685.04 1506.88 694.34"/><polyline class="cls-4" points="1493.69 665.4 1508.62 671.67 1508.78 671.74 1508.86 671.77"/><line class="cls-4" x1="1436.67" y1="671.67" x2="1446.67" y2="681.67"/><polyline class="cls-4" points="1426.22 685.08 1426.29 685.13 1438 694.34"/><path class="cls-4" d="M1449,665.35l-.09,0-12.24,6.27L1426.21,685a1.15,1.15,0,0,0,.08.15c2.83,5.72,43.74,88.66,45,91.28"/><polyline class="cls-4" points="1508.73 671.67 1508.78 671.74 1518.57 685.04 1518.61 685.08 1518.68 685.18"/><line class="cls-4" x1="1498.21" y1="681.7" x2="1506.88" y2="694.34"/><line class="cls-4" x1="1479.92" y1="681.7" x2="1488.59" y2="694.34"/><line class="cls-4" x1="1446.67" y1="681.7" x2="1438" y2="694.34"/><line class="cls-4" x1="1465.38" y1="681.7" x2="1456.7" y2="694.34"/><line class="cls-4" x1="1456.7" y1="694.34" x2="1471.35" y2="776.47"/><line class="cls-4" x1="1488.59" y1="694.34" x2="1471.35" y2="776.47"/><polyline class="cls-4" points="1438 694.34 1471.32 776.41 1471.35 776.47"/><line class="cls-4" x1="1506.88" y1="694.34" x2="1471.35" y2="776.47"/><polyline class="cls-4" points="1518.67 684.96 1518.61 685.08 1471.36 776.47"/><polyline class="cls-4" points="1448.91 665.4 1493.69 665.4 1493.8 665.4"/></svg>