<svg id="Layer_1" data-name="Layer 1" xmlns="http://www.w3.org/2000/svg" viewBox="0 0 1303.28 802.45"><defs><style>.cls-1{fill:#ffe539;}.cls-2,.cls-3,.cls-4{fill:none;stroke:#003e6a;stroke-miterlimit:10;}.cls-2{stroke-width:1.5px;}.cls-4{stroke-width:0.5px;}</style></defs><title>YellowSpikes</title><path class="cls-1" d="M917.79,557.49a78.75,78.75,0,0,0-9.22-2.74c-2.84-.65-6.05-1.34-9.57-2-.08,0-.16,0-.25,0L920.05,439l.17-.21a4.08,4.08,0,0,1,1.43,3c1.16,16,1.23,60.75,2.77,120.94C924.42,560.86,922.14,559.16,917.79,557.49Z"/><path class="cls-1" d="M876.24,549.33c-3.6-.44-7.41-.88-11.39-1.32q-5.58-.59-11.6-1.19c-4-.39-8.17-.75-12.49-1.15s-8.59-.67-13.08-1a1.24,1.24,0,0,1-.42,0c-.25-10.57-.51-20.81-.68-30.49,40.63-35.07,69.27-60.54,89.45-75.6a3.17,3.17,0,0,1,4.19.23l-.17.21-21.3,113.77c-3.38-.61-7-1.21-11-1.82C884.15,550.38,880.3,549.85,876.24,549.33Z"/><path class="cls-1" d="M815.7,543.84c-3.77-.27-7.66-.5-11.6-.73s-8.17-.49-12.4-.72h-.43l.05-.47,31.13-126.29a4.59,4.59,0,0,1,1.93,3.56c1,14.17,1.28,49.23,2.2,94.92.17,9.68.43,19.92.68,30.49C823.49,544.34,819.64,544.07,815.7,543.84Z"/><path class="cls-1" d="M676.78,539.13a3,3,0,0,0-.89,0v0c15.81-14,30.39-27,43.91-39,7.86-7,15.3-13.65,22.44-19.92,31.7-28,56.48-49.42,76.27-64.4a3.37,3.37,0,0,1,3.94-.15L791.32,541.92l-.05.47-13.46-.69c-4.78-.19-9.7-.42-14.65-.57-4.66-.23-9.44-.38-14.27-.57-5.08-.14-10.24-.33-15.45-.44-4.53-.15-9.11-.25-13.76-.35l-14.15-.31L692,539.27C687,539.21,681.91,539.15,676.78,539.13Z"/><path class="cls-1" d="M742.24,480.18c-7.14,6.27-14.58,12.93-22.44,19.92l-.51-.56-53-116.44a3.32,3.32,0,0,1,2.24,1.07C693.57,409.35,714.84,437.27,742.24,480.18Z"/><path class="cls-1" d="M660.9,539c-2.2,0-4.36,0-6.48,0v0q-23.92-21.54-44.17-39.89l56-116,53,116.44.51.56c-13.52,11.95-28.1,25-43.91,39v0c-3.55,0-7.15-.07-10.75-.08Z"/><path class="cls-1" d="M666.28,383.1l-56,116c-7.39-6.71-14.43-13-21.14-19.08l.34-.38c27.74-42.73,49-70.51,74.28-95.49A3.4,3.4,0,0,1,666.28,383.1Z"/><path class="cls-1" d="M596.74,539.56c-5.08.07-10.08.22-15,.32-5.17.15-10.25.26-15.25.45-5.46.14-10.84.33-16.13.52a3.52,3.52,0,0,1-.72,0L509.13,415.11l-.34-.59a3.44,3.44,0,0,1,4.15.1c19.76,15.18,44.48,36.94,76.17,65.4,6.71,6,13.75,12.37,21.14,19.08q20.31,18.36,44.17,39.89v0c-2.92,0-5.8,0-8.68,0-5.93,0-11.77,0-17.57.06l-16.31.19C606.78,539.35,601.74,539.46,596.74,539.56Z"/><path class="cls-1" d="M503.78,543.24a4.4,4.4,0,0,1-.81,0c.38-10.57.68-20.8,1-30.49,1.29-45.54,1.81-80.52,3-94.77a4.67,4.67,0,0,1,1.88-3.5l.34.59,40.52,125.78c-5,.19-9.91.43-14.7.62l-15.67.82C514,542.61,508.82,542.93,503.78,543.24Z"/><path class="cls-1" d="M448.07,548.35c-5.13.65-9.83,1.31-14.11,2-.47,0-.93.13-1.36.21L411.68,436.88l-.17-.34a3.46,3.46,0,0,1,4,.23c20,15.22,48.37,40.84,88.45,76-.29,9.69-.59,19.92-1,30.49-4.78.36-9.44.68-13.93,1-4.71.37-9.24.77-13.6,1.13-4.75.45-9.32.9-13.64,1.34Q454.5,547.49,448.07,548.35Z"/><path class="cls-1" d="M411.68,436.88,432.6,550.61c-4.74.83-8.94,1.66-12.5,2.53a0,0,0,0,0,0,0c-9.28,2.25-14.33,4.72-14.34,7.34,2-59.45,2.41-103.82,3.7-120.31a4.67,4.67,0,0,1,2.09-3.67Z"/><path class="cls-2" d="M420.1,553.14c3.56-.87,7.76-1.7,12.5-2.53.43-.08.89-.17,1.36-.21,4.28-.74,9-1.4,14.11-2q6.42-.87,13.73-1.6c4.32-.44,8.89-.89,13.64-1.34,4.36-.36,8.89-.76,13.6-1.13,4.49-.32,9.15-.64,13.93-1a4.4,4.4,0,0,0,.81,0c5-.31,10.21-.63,15.5-.91l15.67-.82c4.79-.19,9.7-.43,14.7-.62a3.52,3.52,0,0,0,.72,0c5.29-.19,10.67-.38,16.13-.52,5-.19,10.08-.3,15.25-.45,4.91-.1,9.91-.25,15-.32s10-.21,15.12-.27l16.31-.19c5.8,0,11.64-.08,17.57-.06,2.88,0,5.76,0,8.68,0,2.12,0,4.28,0,6.48,0l4.24,0c3.6,0,7.2,0,10.75.08a3,3,0,0,1,.89,0c5.13,0,10.21.08,15.2.14l13.55.19,14.15.31c4.65.1,9.23.2,13.76.35,5.21.11,10.37.3,15.45.44,4.83.19,9.61.34,14.27.57,5,.15,9.87.38,14.65.57l13.46.69h.43c4.23.23,8.34.45,12.4.72s7.83.46,11.6.73c3.94.23,7.79.5,11.56.76a1.24,1.24,0,0,0,.42,0c4.49.35,8.85.71,13.08,1s8.47.76,12.49,1.15,7.88.8,11.6,1.19c4,.44,7.79.88,11.39,1.32,4.06.52,7.91,1,11.51,1.57,4,.61,7.62,1.21,11,1.82.09,0,.17,0,.25,0,3.52.65,6.73,1.34,9.57,2a78.75,78.75,0,0,1,9.22,2.74c4.35,1.67,6.63,3.37,6.63,5.15,0,3.13-7.31,6.06-20.49,8.71-4.16.83-8.86,1.66-14.16,2.44-4.11.57-8.51,1.15-13.26,1.72s-9.74,1.1-15,1.59c-4.36.45-9,.85-13.77,1.21q-6.86.62-14.23,1.09c-4.4.32-8.94.64-13.6.87s-9.23.6-14.06.83-10,.51-15.16.74c-4.45.2-8.94.39-13.56.54-4.06.15-8.21.31-12.45.42-4.53.15-9.1.3-13.76.4s-9.62.26-14.53.37-9.91.17-15,.23-10,.17-15.16.2c-5.29.06-10.67.08-16.09.1-4.79,0-9.57,0-14.44,0-3.56,0-7.16,0-10.76,0H660.8c-4.53,0-9-.08-13.42-.14-5.08,0-10.12-.09-15.12-.15-5.33-.11-10.58-.17-15.79-.27-5-.11-9.83-.21-14.65-.36-5.8-.15-11.52-.3-17.15-.49-5.21-.15-10.38-.34-15.41-.57s-9.7-.34-14.44-.57-9.44-.42-14-.69c-4.78-.23-9.48-.51-14-.78-4.79-.27-9.49-.54-14.06-.86-4.82-.31-9.48-.67-14-1-4.7-.36-9.27-.71-13.67-1.11-4.79-.4-9.36-.84-13.76-1.28s-8.34-.88-12.23-1.37-7.66-.91-11.18-1.39c-3.81-.53-7.36-1-10.7-1.57-3.64-.65-7-1.26-10.08-1.86-3.76-.78-7.06-1.55-9.9-2.37a42.78,42.78,0,0,1-8.07-3c-2.24-1.2-3.38-2.43-3.37-3.7,0-2.62,5.06-5.09,14.34-7.34"/><path class="cls-2" d="M589.45,479.64c27.74-42.73,49-70.51,74.28-95.49a3.4,3.4,0,0,1,2.55-1,3.32,3.32,0,0,1,2.24,1.07c25.05,25.18,46.32,53.1,73.72,96,0,0,0,0,0,.09"/><path class="cls-2" d="M405.72,560.52c2-59.45,2.41-103.82,3.7-120.31a4.67,4.67,0,0,1,2.09-3.67,3.46,3.46,0,0,1,4,.23c20,15.22,48.37,40.84,88.45,76"/><path class="cls-2" d="M654.42,539q-23.92-21.54-44.17-39.89c-7.39-6.71-14.43-13-21.14-19.08-31.69-28.46-56.41-50.22-76.17-65.4a3.44,3.44,0,0,0-4.15-.1,4.67,4.67,0,0,0-1.88,3.5c-1.16,14.25-1.68,49.23-3,94.77-.29,9.69-.59,19.92-1,30.49v.05"/><path class="cls-2" d="M924.42,562.64c-1.54-60.19-1.61-104.94-2.77-120.94a4.08,4.08,0,0,0-1.43-3,3.17,3.17,0,0,0-4.19-.23c-20.18,15.06-48.82,40.53-89.45,75.6"/><path class="cls-2" d="M675.89,539.08c15.81-14,30.39-27,43.91-39,7.86-7,15.3-13.65,22.44-19.92,31.7-28,56.48-49.42,76.27-64.4a3.37,3.37,0,0,1,3.94-.15,4.59,4.59,0,0,1,1.93,3.56c1,14.17,1.28,49.23,2.2,94.92.17,9.68.43,19.92.68,30.49v0"/><line class="cls-3" x1="509.13" y1="415.11" x2="549.65" y2="540.89"/><polyline class="cls-3" points="822.54 415.25 822.45 415.63 791.32 541.92"/><line class="cls-3" x1="920.05" y1="438.95" x2="898.75" y2="552.72"/><line class="cls-3" x1="411.68" y1="436.88" x2="432.6" y2="550.61"/><line class="cls-3" x1="666.28" y1="383.1" x2="610.25" y2="499.1"/><line class="cls-3" x1="666.28" y1="383.1" x2="719.29" y2="499.54"/><polyline class="cls-4" points="436.92 571.69 437.13 571.48 461.8 546.75"/><polyline class="cls-4" points="427.11 569.37 448.07 548.35 448.54 547.88"/><polyline class="cls-4" points="417.04 567.38 417.16 567.25 433.96 550.4"/><path class="cls-4" d="M409.09,564.22l11-11a0,0,0,0,1,0,0"/><polyline class="cls-4" points="447.63 573.26 447.84 573.05 475.44 545.41 475.61 545.24"/><polyline class="cls-4" points="458.8 574.65 459.02 574.45 489.04 544.33"/><polyline class="cls-4" points="471.16 575.89 471.25 575.81 503.78 543.24 503.82 543.2"/><polyline class="cls-4" points="484.84 577.26 485.01 577.09 519.32 542.72"/><polyline class="cls-4" points="498.64 578.24 498.68 578.2 534.95 541.89"/><line class="cls-4" x1="512.74" y1="578.89" x2="550.37" y2="541.19"/><line class="cls-4" x1="526.75" y1="580.09" x2="566.5" y2="540.33"/><polyline class="cls-4" points="540.63 581.04 540.8 580.87 581.75 539.88"/><polyline class="cls-4" points="554.82 581.56 596.74 539.56 597 539.31"/><polyline class="cls-4" points="569 582.38 569.26 582.13 611.86 539.5"/><polyline class="cls-4" points="584.58 582.78 584.67 582.7 628.17 539.1"/><polyline class="cls-4" points="601.73 583.27 601.82 583.19 645.74 539.13"/><polyline class="cls-4" points="616.47 583.54 660.9 539.02 661.24 538.68"/><polyline class="cls-4" points="632.26 583.69 676.78 539.13 677.25 538.66"/><polyline class="cls-4" points="647.29 584.05 647.38 583.97 691.98 539.32"/><line class="cls-4" x1="660.8" y1="584.11" x2="705.53" y2="539.46"/><line class="cls-4" x1="675.71" y1="583.66" x2="719.68" y2="539.77"/><line class="cls-4" x1="690.15" y1="583.76" x2="733.44" y2="540.54"/><line class="cls-4" x1="706.24" y1="583.61" x2="748.89" y2="541.07"/><line class="cls-4" x1="721.4" y1="583.25" x2="763.16" y2="541.55"/><line class="cls-4" x1="736.35" y1="583.4" x2="777.81" y2="541.99"/><polyline class="cls-4" points="750.37 583.71 750.88 583.2 791.7 542.39"/><line class="cls-4" x1="764.64" y1="582.8" x2="804.1" y2="543.41"/><polyline class="cls-4" points="776.63 582.84 777.09 582.38 815.7 543.84 816.09 543.46"/><polyline class="cls-4" points="790.26 582.22 790.65 581.84 827.68 544.86"/><line class="cls-4" x1="805.81" y1="581.02" x2="840.72" y2="546.18"/><line class="cls-4" x1="819.87" y1="580.14" x2="853.25" y2="546.82"/><line class="cls-4" x1="833.47" y1="579.31" x2="864.85" y2="548.01"/><polyline class="cls-4" points="847.66 577.85 876.24 549.33 876.58 548.99"/><line class="cls-4" x1="861.47" y1="577.1" x2="887.75" y2="550.9"/><polyline class="cls-4" points="876.47 575.26 899 552.76 899.51 552.26"/><line class="cls-4" x1="889.77" y1="573.75" x2="908.52" y2="555.04"/><line class="cls-2" x1="917.79" y1="557.49" x2="918.13" y2="557.16"/><polyline class="cls-4" points="903.59 571.69 903.93 571.35 917.79 557.49"/><polygon class="cls-3" points="808.12 205.01 803.25 329.94 776.7 326.02 808.12 205.01"/><polygon class="cls-3" points="539.37 205.27 547.49 330.02 573.93 325.42 539.37 205.27"/><polygon class="cls-3" points="952.98 242.16 909.58 359.41 885.56 347.44 952.98 242.16"/><polygon class="cls-3" points="1071.86 315.06 999.67 417.13 979.55 399.37 1071.86 315.06"/><polygon class="cls-3" points="387.95 242.16 431.34 359.41 455.37 347.44 387.95 242.16"/><polygon class="cls-3" points="265.06 315.06 337.26 417.13 357.38 399.37 265.06 315.06"/><polygon class="cls-3" points="677.93 191.89 688.11 316.5 661.28 315.8 677.93 191.89"/></svg>