<svg id="Layer_1" data-name="Layer 1" xmlns="http://www.w3.org/2000/svg" viewBox="0 0 1631.06 873.47"><defs><style>.cls-1{fill:#f1563f;}.cls-2,.cls-3{fill:none;stroke:#fff;}.cls-2{stroke-miterlimit:10;}.cls-3{stroke-linecap:round;stroke-linejoin:round;}</style></defs><title>KeyPattern</title><rect class="cls-1" x="-0.51" y="-1.31" width="1631.06" height="873.47"/><circle class="cls-2" cx="488.31" cy="290.2" r="9.19"/><circle class="cls-2" cx="161.52" cy="289.71" r="9.19"/><circle class="cls-2" cx="814.55" cy="289.97" r="9.19"/><circle class="cls-2" cx="1141.2" cy="289.71" r="9.19"/><circle class="cls-2" cx="1467.36" cy="289.97" r="9.19"/><circle class="cls-2" cx="651.35" cy="144.1" r="9.19"/><circle class="cls-2" cx="324.95" cy="144.1" r="9.19"/><circle class="cls-2" cx="977.75" cy="144.1" r="9.19"/><circle class="cls-2" cx="1304.15" cy="144.1" r="9.19"/><circle class="cls-2" cx="488.31" cy="581.39" r="9.19"/><circle class="cls-2" cx="161.52" cy="580.89" r="9.19"/><circle class="cls-2" cx="814.55" cy="581.16" r="9.19"/><circle class="cls-2" cx="1141.2" cy="580.89" r="9.19"/><circle class="cls-2" cx="1467.36" cy="581.16" r="9.19"/><circle class="cls-2" cx="651.35" cy="435.28" r="9.19"/><circle class="cls-2" cx="324.95" cy="435.28" r="9.19"/><circle class="cls-2" cx="977.75" cy="435.28" r="9.19"/><circle class="cls-2" cx="1304.15" cy="435.28" r="9.19"/><circle class="cls-2" cx="651.39" cy="726.14" r="9.19"/><circle class="cls-2" cx="324.99" cy="726.14" r="9.19"/><circle class="cls-2" cx="977.8" cy="726.14" r="9.19"/><circle class="cls-2" cx="1304.2" cy="726.14" r="9.19"/><line class="cls-3" x1="108.63" y1="217.16" x2="162.45" y2="122.32"/><line class="cls-3" x1="168.17" y1="112.24" x2="172.14" y2="105.24"/><line class="cls-3" x1="121.6" y1="224.53" x2="175.43" y2="129.68"/><line class="cls-3" x1="181.15" y1="119.6" x2="185.12" y2="112.6"/><path class="cls-3" d="M183.75,122.58l-.61,1.08a1.32,1.32,0,0,1-1.8.49l-17.45-9.9a1.31,1.31,0,0,1-.49-1.79l.61-1.08a1.31,1.31,0,0,1,1.79-.49l17.45,9.9A1.32,1.32,0,0,1,183.75,122.58Z"/><rect class="cls-3" x="169.73" y="109.53" width="3.87" height="22.7" rx="1.32" ry="1.32" transform="translate(-18.19 210.51) rotate(-60.42)"/><path class="cls-3" d="M179.93,129.31l-.61,1.07a1.3,1.3,0,0,1-1.79.49L160.08,121a1.31,1.31,0,0,1-.5-1.79l.61-1.07a1.31,1.31,0,0,1,1.79-.5l17.45,9.9A1.31,1.31,0,0,1,179.93,129.31Z"/><path class="cls-3" d="M108.62,217.16s2.29,10.68,13,7.37"/><line class="cls-3" x1="144.09" y1="184.93" x2="159.15" y2="193.48"/><line class="cls-3" x1="128.39" y1="212.59" x2="143.45" y2="221.14"/><line class="cls-3" x1="148.47" y1="196.71" x2="140.75" y2="210.31"/><line class="cls-3" x1="143.45" y1="221.14" x2="147.44" y2="214.11"/><line class="cls-3" x1="155.16" y1="200.51" x2="159.15" y2="193.48"/><line class="cls-3" x1="147.44" y1="214.11" x2="140.75" y2="210.31"/><line class="cls-3" x1="155.16" y1="200.51" x2="148.47" y2="196.71"/><circle class="cls-3" cx="191.29" cy="86.62" r="26.06"/><circle class="cls-3" cx="191.29" cy="86.62" r="19.04"/><line class="cls-3" x1="270.55" y1="363.99" x2="324.38" y2="269.15"/><line class="cls-3" x1="330.1" y1="259.07" x2="334.07" y2="252.07"/><line class="cls-3" x1="283.53" y1="371.36" x2="337.35" y2="276.51"/><line class="cls-3" x1="343.08" y1="266.43" x2="347.05" y2="259.43"/><path class="cls-3" d="M345.67,269.41l-.61,1.08a1.31,1.31,0,0,1-1.79.49l-17.45-9.9a1.31,1.31,0,0,1-.49-1.79l.61-1.08a1.31,1.31,0,0,1,1.79-.49l17.45,9.9A1.31,1.31,0,0,1,345.67,269.41Z"/><rect class="cls-3" x="331.66" y="256.36" width="3.87" height="22.7" rx="1.32" ry="1.32" transform="translate(-63.89 425.7) rotate(-60.42)"/><rect class="cls-3" x="329.75" y="259.73" width="3.87" height="22.7" rx="1.32" ry="1.32" transform="translate(-67.78 425.75) rotate(-60.42)"/><path class="cls-3" d="M270.55,364s2.29,10.69,13,7.37"/><line class="cls-3" x1="306.02" y1="331.76" x2="321.08" y2="340.31"/><line class="cls-3" x1="290.32" y1="359.43" x2="305.38" y2="367.97"/><line class="cls-3" x1="310.4" y1="343.54" x2="302.68" y2="357.14"/><line class="cls-3" x1="305.38" y1="367.97" x2="309.37" y2="360.94"/><line class="cls-3" x1="317.09" y1="347.34" x2="321.08" y2="340.31"/><line class="cls-3" x1="309.37" y1="360.94" x2="302.68" y2="357.14"/><line class="cls-3" x1="317.09" y1="347.34" x2="310.4" y2="343.54"/><circle class="cls-3" cx="353.22" cy="233.45" r="26.06"/><circle class="cls-3" cx="353.22" cy="233.45" r="19.04"/><line class="cls-3" x1="271.08" y1="654.71" x2="324.91" y2="559.87"/><line class="cls-3" x1="330.63" y1="549.78" x2="334.6" y2="542.79"/><line class="cls-3" x1="284.06" y1="662.08" x2="337.88" y2="567.23"/><line class="cls-3" x1="343.6" y1="557.15" x2="347.57" y2="550.15"/><path class="cls-3" d="M346.2,560.13l-.61,1.08a1.31,1.31,0,0,1-1.79.49l-17.45-9.91a1.32,1.32,0,0,1-.5-1.79l.61-1.07a1.31,1.31,0,0,1,1.79-.49l17.46,9.9A1.31,1.31,0,0,1,346.2,560.13Z"/><rect class="cls-3" x="332.19" y="547.08" width="3.87" height="22.7" rx="1.32" ry="1.32" transform="translate(-316.46 573.39) rotate(-60.42)"/><path class="cls-3" d="M342.39,566.86l-.61,1.07a1.32,1.32,0,0,1-1.8.49l-17.45-9.9a1.31,1.31,0,0,1-.49-1.79l.61-1.08a1.31,1.31,0,0,1,1.79-.49l17.45,9.9A1.31,1.31,0,0,1,342.39,566.86Z"/><path class="cls-3" d="M271.08,654.71s2.29,10.68,13,7.36"/><line class="cls-3" x1="306.55" y1="622.48" x2="321.61" y2="631.02"/><line class="cls-3" x1="290.85" y1="650.14" x2="305.91" y2="658.69"/><line class="cls-3" x1="310.92" y1="634.26" x2="303.21" y2="647.86"/><line class="cls-3" x1="305.91" y1="658.69" x2="309.9" y2="651.66"/><line class="cls-3" x1="317.62" y1="638.06" x2="321.61" y2="631.02"/><line class="cls-3" x1="309.9" y1="651.66" x2="303.21" y2="647.86"/><line class="cls-3" x1="317.62" y1="638.06" x2="310.92" y2="634.26"/><circle class="cls-3" cx="353.75" cy="524.17" r="26.06"/><circle class="cls-3" cx="353.75" cy="524.17" r="19.04"/><line class="cls-3" x1="433.52" y1="799.66" x2="487.35" y2="704.82"/><line class="cls-3" x1="493.07" y1="694.74" x2="497.04" y2="687.74"/><line class="cls-3" x1="446.5" y1="807.03" x2="500.32" y2="712.18"/><line class="cls-3" x1="506.05" y1="702.1" x2="510.02" y2="695.1"/><rect class="cls-3" x="496.54" y="688.67" width="3.86" height="22.7" rx="1.31" ry="1.31" transform="translate(-356.37 788.03) rotate(-60.42)"/><rect class="cls-3" x="494.63" y="692.03" width="3.87" height="22.7" rx="1.32" ry="1.32" transform="translate(-360.26 788.07) rotate(-60.42)"/><rect class="cls-3" x="492.72" y="695.4" width="3.87" height="22.7" rx="1.32" ry="1.32" transform="translate(-364.15 788.12) rotate(-60.42)"/><path class="cls-3" d="M433.52,799.66s2.29,10.69,13,7.37"/><line class="cls-3" x1="468.99" y1="767.43" x2="484.05" y2="775.98"/><line class="cls-3" x1="453.29" y1="795.1" x2="468.35" y2="803.64"/><line class="cls-3" x1="473.37" y1="779.21" x2="465.65" y2="792.81"/><line class="cls-3" x1="468.35" y1="803.64" x2="472.34" y2="796.61"/><line class="cls-3" x1="480.06" y1="783.01" x2="484.05" y2="775.98"/><line class="cls-3" x1="472.34" y1="796.61" x2="465.65" y2="792.81"/><line class="cls-3" x1="480.06" y1="783.01" x2="473.37" y2="779.21"/><circle class="cls-3" cx="516.19" cy="669.12" r="26.06"/><circle class="cls-3" cx="516.19" cy="669.12" r="19.04"/><line class="cls-3" x1="433.76" y1="509.63" x2="487.59" y2="414.78"/><line class="cls-3" x1="493.31" y1="404.7" x2="497.28" y2="397.7"/><line class="cls-3" x1="446.74" y1="516.99" x2="500.56" y2="422.14"/><line class="cls-3" x1="506.29" y1="412.06" x2="510.26" y2="405.07"/><path class="cls-3" d="M508.88,415.05l-.61,1.07a1.31,1.31,0,0,1-1.79.49L489,406.71a1.31,1.31,0,0,1-.49-1.79l.61-1.08a1.3,1.3,0,0,1,1.78-.49l17.46,9.9A1.32,1.32,0,0,1,508.88,415.05Z"/><path class="cls-3" d="M507,418.41l-.61,1.07a1.31,1.31,0,0,1-1.8.49l-17.45-9.9a1.31,1.31,0,0,1-.49-1.79l.61-1.07a1.31,1.31,0,0,1,1.79-.5l17.45,9.9A1.33,1.33,0,0,1,507,418.41Z"/><rect class="cls-3" x="492.96" y="405.36" width="3.87" height="22.7" rx="1.32" ry="1.32" transform="translate(-111.78 641.44) rotate(-60.42)"/><path class="cls-3" d="M433.76,509.62s2.29,10.69,13,7.37"/><line class="cls-3" x1="469.23" y1="477.39" x2="484.29" y2="485.94"/><line class="cls-3" x1="453.53" y1="505.06" x2="468.59" y2="513.6"/><line class="cls-3" x1="473.61" y1="489.17" x2="465.89" y2="502.77"/><line class="cls-3" x1="468.59" y1="513.6" x2="472.58" y2="506.57"/><line class="cls-3" x1="480.3" y1="492.97" x2="484.29" y2="485.94"/><line class="cls-3" x1="472.58" y1="506.57" x2="465.89" y2="502.77"/><line class="cls-3" x1="480.3" y1="492.97" x2="473.61" y2="489.17"/><circle class="cls-3" cx="516.43" cy="379.08" r="26.06"/><circle class="cls-3" cx="516.43" cy="379.08" r="19.04"/><line class="cls-3" x1="434.51" y1="219.39" x2="488.34" y2="124.54"/><line class="cls-3" x1="494.06" y1="114.46" x2="498.03" y2="107.46"/><line class="cls-3" x1="447.49" y1="226.75" x2="501.31" y2="131.9"/><line class="cls-3" x1="507.04" y1="121.82" x2="511.01" y2="114.83"/><rect class="cls-3" x="497.53" y="108.39" width="3.86" height="22.7" rx="1.31" ry="1.31" transform="translate(148.8 495.02) rotate(-60.42)"/><rect class="cls-3" x="495.62" y="111.75" width="3.87" height="22.7" rx="1.32" ry="1.32" transform="translate(144.91 495.07) rotate(-60.42)"/><path class="cls-3" d="M505.82,131.53l-.61,1.07a1.32,1.32,0,0,1-1.8.5L486,123.19a1.31,1.31,0,0,1-.49-1.79l.61-1.07a1.31,1.31,0,0,1,1.79-.5l17.45,9.9A1.32,1.32,0,0,1,505.82,131.53Z"/><path class="cls-3" d="M434.51,219.38s2.29,10.69,13,7.37"/><line class="cls-3" x1="469.98" y1="187.15" x2="485.04" y2="195.7"/><line class="cls-3" x1="454.28" y1="214.82" x2="469.34" y2="223.36"/><line class="cls-3" x1="474.36" y1="198.93" x2="466.64" y2="212.53"/><line class="cls-3" x1="469.34" y1="223.36" x2="473.33" y2="216.33"/><line class="cls-3" x1="481.05" y1="202.73" x2="485.04" y2="195.7"/><line class="cls-3" x1="473.33" y1="216.33" x2="466.64" y2="212.53"/><line class="cls-3" x1="481.05" y1="202.73" x2="474.36" y2="198.93"/><circle class="cls-3" cx="517.18" cy="88.84" r="26.06"/><circle class="cls-3" cx="517.18" cy="88.84" r="19.04"/><line class="cls-3" x1="598.53" y1="363.53" x2="652.36" y2="268.68"/><line class="cls-3" x1="658.08" y1="258.6" x2="662.05" y2="251.61"/><line class="cls-3" x1="611.51" y1="370.89" x2="665.33" y2="276.05"/><line class="cls-3" x1="671.06" y1="265.96" x2="675.03" y2="258.97"/><path class="cls-3" d="M673.65,269,673,270a1.3,1.3,0,0,1-1.79.49l-17.45-9.9a1.31,1.31,0,0,1-.49-1.79l.61-1.07a1.3,1.3,0,0,1,1.78-.5l17.46,9.91A1.31,1.31,0,0,1,673.65,269Z"/><path class="cls-3" d="M671.75,272.31l-.61,1.07a1.31,1.31,0,0,1-1.8.5L651.89,264a1.31,1.31,0,0,1-.49-1.79l.61-1.07a1.31,1.31,0,0,1,1.79-.5l17.45,9.9A1.33,1.33,0,0,1,671.75,272.31Z"/><path class="cls-3" d="M669.84,275.67l-.61,1.07a1.32,1.32,0,0,1-1.8.5L650,267.34a1.32,1.32,0,0,1-.49-1.8l.61-1.07a1.32,1.32,0,0,1,1.79-.5l17.45,9.91A1.31,1.31,0,0,1,669.84,275.67Z"/><path class="cls-3" d="M598.53,363.53s2.29,10.68,13,7.36"/><line class="cls-3" x1="634" y1="331.29" x2="649.06" y2="339.84"/><line class="cls-3" x1="618.3" y1="358.96" x2="633.36" y2="367.51"/><line class="cls-3" x1="638.38" y1="343.07" x2="630.66" y2="356.67"/><line class="cls-3" x1="633.36" y1="367.51" x2="637.35" y2="360.47"/><line class="cls-3" x1="645.07" y1="346.87" x2="649.06" y2="339.84"/><line class="cls-3" x1="637.35" y1="360.47" x2="630.66" y2="356.67"/><line class="cls-3" x1="645.07" y1="346.87" x2="638.38" y2="343.07"/><circle class="cls-3" cx="681.2" cy="232.98" r="26.06"/><circle class="cls-3" cx="681.2" cy="232.98" r="19.04"/><line class="cls-3" x1="597.03" y1="656.03" x2="650.86" y2="561.18"/><line class="cls-3" x1="656.58" y1="551.1" x2="660.55" y2="544.1"/><line class="cls-3" x1="610.01" y1="663.39" x2="663.83" y2="568.54"/><line class="cls-3" x1="669.55" y1="558.46" x2="673.53" y2="551.47"/><path class="cls-3" d="M672.15,561.45l-.61,1.07a1.31,1.31,0,0,1-1.79.49l-17.45-9.9a1.32,1.32,0,0,1-.5-1.79l.61-1.08a1.31,1.31,0,0,1,1.79-.49l17.46,9.9A1.32,1.32,0,0,1,672.15,561.45Z"/><rect class="cls-3" x="658.14" y="548.39" width="3.87" height="22.7" rx="1.32" ry="1.32" transform="matrix(0.49, -0.87, 0.87, 0.49, -152.53, 857.53)"/><rect class="cls-3" x="656.23" y="551.76" width="3.87" height="22.7" rx="1.32" ry="1.32" transform="translate(-156.42 857.58) rotate(-60.42)"/><path class="cls-3" d="M597,656s2.29,10.69,13,7.37"/><line class="cls-3" x1="632.5" y1="623.79" x2="647.56" y2="632.34"/><line class="cls-3" x1="616.8" y1="651.46" x2="631.86" y2="660"/><line class="cls-3" x1="636.88" y1="635.57" x2="629.16" y2="649.17"/><line class="cls-3" x1="631.86" y1="660" x2="635.85" y2="652.97"/><line class="cls-3" x1="643.57" y1="639.37" x2="647.56" y2="632.34"/><line class="cls-3" x1="635.85" y1="652.97" x2="629.16" y2="649.17"/><line class="cls-3" x1="643.57" y1="639.37" x2="636.88" y2="635.57"/><circle class="cls-3" cx="679.7" cy="525.48" r="26.06"/><circle class="cls-3" cx="679.7" cy="525.48" r="19.04"/><line class="cls-3" x1="761.77" y1="801.47" x2="815.6" y2="706.62"/><line class="cls-3" x1="821.32" y1="696.54" x2="825.29" y2="689.54"/><line class="cls-3" x1="774.75" y1="808.83" x2="828.57" y2="713.99"/><line class="cls-3" x1="834.3" y1="703.9" x2="838.27" y2="696.91"/><path class="cls-3" d="M836.9,706.89l-.61,1.07a1.32,1.32,0,0,1-1.8.49L817,698.55a1.31,1.31,0,0,1-.49-1.79l.61-1.07a1.31,1.31,0,0,1,1.79-.5l17.45,9.91A1.32,1.32,0,0,1,836.9,706.89Z"/><path class="cls-3" d="M835,710.25l-.61,1.07a1.31,1.31,0,0,1-1.8.5l-17.45-9.91a1.31,1.31,0,0,1-.49-1.79l.61-1.07a1.31,1.31,0,0,1,1.79-.5l17.45,9.9A1.32,1.32,0,0,1,835,710.25Z"/><path class="cls-3" d="M833.08,713.61l-.61,1.07a1.31,1.31,0,0,1-1.79.5l-17.46-9.91a1.32,1.32,0,0,1-.49-1.79l.61-1.07a1.31,1.31,0,0,1,1.79-.5l17.45,9.91A1.31,1.31,0,0,1,833.08,713.61Z"/><path class="cls-3" d="M761.77,801.46s2.29,10.69,13,7.37"/><line class="cls-3" x1="797.24" y1="769.23" x2="812.3" y2="777.78"/><line class="cls-3" x1="781.54" y1="796.9" x2="796.6" y2="805.45"/><line class="cls-3" x1="801.62" y1="781.01" x2="793.9" y2="794.61"/><line class="cls-3" x1="796.6" y1="805.45" x2="800.59" y2="798.41"/><line class="cls-3" x1="808.31" y1="784.81" x2="812.3" y2="777.78"/><line class="cls-3" x1="800.59" y1="798.41" x2="793.9" y2="794.61"/><line class="cls-3" x1="808.31" y1="784.81" x2="801.62" y2="781.01"/><circle class="cls-3" cx="844.44" cy="670.92" r="26.06"/><circle class="cls-3" cx="844.44" cy="670.92" r="19.04"/><line class="cls-3" x1="760.66" y1="509.26" x2="814.49" y2="414.42"/><line class="cls-3" x1="820.21" y1="404.33" x2="824.18" y2="397.34"/><line class="cls-3" x1="773.64" y1="516.62" x2="827.46" y2="421.78"/><line class="cls-3" x1="833.18" y1="411.7" x2="837.15" y2="404.7"/><path class="cls-3" d="M835.78,414.68l-.61,1.08a1.31,1.31,0,0,1-1.79.49l-17.45-9.91a1.32,1.32,0,0,1-.5-1.79l.61-1.07a1.32,1.32,0,0,1,1.79-.5l17.46,9.91A1.31,1.31,0,0,1,835.78,414.68Z"/><path class="cls-3" d="M833.88,418l-.61,1.07a1.31,1.31,0,0,1-1.8.5L814,409.7a1.31,1.31,0,0,1-.49-1.79l.61-1.07a1.31,1.31,0,0,1,1.79-.5l17.45,9.91A1.32,1.32,0,0,1,833.88,418Z"/><rect class="cls-3" x="819.86" y="404.99" width="3.87" height="22.7" rx="1.32" ry="1.32" transform="translate(54.09 925.56) rotate(-60.42)"/><path class="cls-3" d="M760.66,509.26s2.29,10.68,13,7.36"/><line class="cls-3" x1="796.13" y1="477.03" x2="811.19" y2="485.57"/><line class="cls-3" x1="780.43" y1="504.69" x2="795.49" y2="513.24"/><line class="cls-3" x1="800.5" y1="488.8" x2="792.79" y2="502.41"/><line class="cls-3" x1="795.49" y1="513.24" x2="799.48" y2="506.21"/><line class="cls-3" x1="807.2" y1="492.6" x2="811.19" y2="485.57"/><line class="cls-3" x1="799.48" y1="506.21" x2="792.79" y2="502.41"/><line class="cls-3" x1="807.2" y1="492.6" x2="800.5" y2="488.8"/><circle class="cls-3" cx="843.33" cy="378.72" r="26.06"/><circle class="cls-3" cx="843.33" cy="378.72" r="19.04"/><line class="cls-3" x1="760.66" y1="216.97" x2="814.49" y2="122.13"/><line class="cls-3" x1="820.21" y1="112.04" x2="824.18" y2="105.05"/><line class="cls-3" x1="773.64" y1="224.33" x2="827.46" y2="129.49"/><line class="cls-3" x1="833.18" y1="119.41" x2="837.15" y2="112.41"/><path class="cls-3" d="M835.78,122.39l-.61,1.08a1.31,1.31,0,0,1-1.79.49l-17.45-9.91a1.32,1.32,0,0,1-.5-1.79l.61-1.07a1.31,1.31,0,0,1,1.79-.49l17.46,9.9A1.31,1.31,0,0,1,835.78,122.39Z"/><path class="cls-3" d="M833.88,125.75l-.61,1.07a1.31,1.31,0,0,1-1.8.5L814,117.42a1.32,1.32,0,0,1-.49-1.8l.61-1.07a1.32,1.32,0,0,1,1.79-.5L833.38,124A1.32,1.32,0,0,1,833.88,125.75Z"/><rect class="cls-3" x="819.86" y="112.7" width="3.87" height="22.7" rx="1.32" ry="1.32" transform="translate(308.29 777.54) rotate(-60.42)"/><path class="cls-3" d="M760.66,217s2.29,10.68,13,7.36"/><line class="cls-3" x1="796.13" y1="184.74" x2="811.19" y2="193.28"/><line class="cls-3" x1="780.43" y1="212.4" x2="795.49" y2="220.95"/><line class="cls-3" x1="800.5" y1="196.52" x2="792.79" y2="210.12"/><line class="cls-3" x1="795.49" y1="220.95" x2="799.48" y2="213.92"/><line class="cls-3" x1="807.2" y1="200.32" x2="811.19" y2="193.28"/><line class="cls-3" x1="799.48" y1="213.92" x2="792.79" y2="210.12"/><line class="cls-3" x1="807.2" y1="200.32" x2="800.5" y2="196.52"/><circle class="cls-3" cx="843.33" cy="86.43" r="26.06"/><circle class="cls-3" cx="843.33" cy="86.43" r="19.04"/><line class="cls-3" x1="923.55" y1="365.34" x2="977.38" y2="270.49"/><line class="cls-3" x1="983.1" y1="260.41" x2="987.07" y2="253.42"/><line class="cls-3" x1="936.53" y1="372.7" x2="990.35" y2="277.86"/><line class="cls-3" x1="996.08" y1="267.78" x2="1000.05" y2="260.78"/><rect class="cls-3" x="986.57" y="254.35" width="3.86" height="22.7" rx="1.31" ry="1.31" transform="translate(269.52 994.26) rotate(-60.42)"/><path class="cls-3" d="M996.77,274.12l-.61,1.07a1.31,1.31,0,0,1-1.8.5l-17.45-9.91a1.31,1.31,0,0,1-.49-1.79l.61-1.07a1.31,1.31,0,0,1,1.79-.5l17.45,9.91A1.31,1.31,0,0,1,996.77,274.12Z"/><path class="cls-3" d="M994.86,277.48l-.61,1.07a1.31,1.31,0,0,1-1.8.5L975,269.15a1.32,1.32,0,0,1-.49-1.8l.61-1.07a1.32,1.32,0,0,1,1.79-.5l17.45,9.91A1.31,1.31,0,0,1,994.86,277.48Z"/><path class="cls-3" d="M923.55,365.34s2.29,10.68,13,7.36"/><line class="cls-3" x1="959.02" y1="333.1" x2="974.08" y2="341.65"/><line class="cls-3" x1="943.32" y1="360.77" x2="958.38" y2="369.32"/><line class="cls-3" x1="963.4" y1="344.88" x2="955.68" y2="358.49"/><line class="cls-3" x1="958.38" y1="369.32" x2="962.37" y2="362.29"/><line class="cls-3" x1="970.09" y1="348.68" x2="974.08" y2="341.65"/><line class="cls-3" x1="962.37" y1="362.29" x2="955.68" y2="358.49"/><line class="cls-3" x1="970.09" y1="348.68" x2="963.4" y2="344.88"/><circle class="cls-3" cx="1006.22" cy="234.79" r="26.06"/><circle class="cls-3" cx="1006.22" cy="234.79" r="19.04"/><line class="cls-3" x1="922.65" y1="656.15" x2="976.48" y2="561.31"/><line class="cls-3" x1="982.2" y1="551.22" x2="986.17" y2="544.23"/><line class="cls-3" x1="935.62" y1="663.51" x2="989.45" y2="568.67"/><line class="cls-3" x1="995.17" y1="558.59" x2="999.14" y2="551.59"/><rect class="cls-3" x="985.67" y="545.16" width="3.86" height="22.7" rx="1.31" ry="1.31" transform="translate(16.15 1140.75) rotate(-60.42)"/><path class="cls-3" d="M995.86,564.93l-.6,1.07a1.31,1.31,0,0,1-1.8.5L976,556.6a1.32,1.32,0,0,1-.49-1.8l.6-1.07a1.33,1.33,0,0,1,1.8-.5l17.45,9.91A1.31,1.31,0,0,1,995.86,564.93Z"/><rect class="cls-3" x="981.85" y="551.88" width="3.87" height="22.7" rx="1.32" ry="1.32" transform="translate(8.37 1140.83) rotate(-60.42)"/><path class="cls-3" d="M922.65,656.15s2.29,10.68,13,7.36"/><line class="cls-3" x1="958.12" y1="623.92" x2="973.18" y2="632.46"/><line class="cls-3" x1="942.42" y1="651.58" x2="957.48" y2="660.13"/><line class="cls-3" x1="962.49" y1="635.7" x2="954.77" y2="649.3"/><line class="cls-3" x1="957.48" y1="660.13" x2="961.47" y2="653.1"/><line class="cls-3" x1="969.19" y1="639.5" x2="973.18" y2="632.46"/><line class="cls-3" x1="961.47" y1="653.1" x2="954.77" y2="649.3"/><line class="cls-3" x1="969.19" y1="639.5" x2="962.49" y2="635.7"/><circle class="cls-3" cx="1005.31" cy="525.61" r="26.06"/><circle class="cls-3" cx="1005.31" cy="525.61" r="19.04"/><line class="cls-3" x1="1249.95" y1="656.34" x2="1303.78" y2="561.5"/><line class="cls-3" x1="1309.5" y1="551.41" x2="1313.47" y2="544.42"/><line class="cls-3" x1="1262.93" y1="663.7" x2="1316.75" y2="568.86"/><line class="cls-3" x1="1322.48" y1="558.78" x2="1326.45" y2="551.78"/><rect class="cls-3" x="1312.97" y="545.35" width="3.86" height="22.7" rx="1.31" ry="1.31" transform="translate(181.74 1425.5) rotate(-60.42)"/><path class="cls-3" d="M1323.17,565.12l-.61,1.07a1.31,1.31,0,0,1-1.8.5l-17.45-9.91a1.31,1.31,0,0,1-.49-1.79l.61-1.07a1.31,1.31,0,0,1,1.79-.5l17.45,9.91A1.31,1.31,0,0,1,1323.17,565.12Z"/><path class="cls-3" d="M1321.26,568.48l-.61,1.07a1.31,1.31,0,0,1-1.79.5l-17.46-9.9a1.32,1.32,0,0,1-.49-1.8l.61-1.07a1.32,1.32,0,0,1,1.79-.5l17.45,9.91A1.31,1.31,0,0,1,1321.26,568.48Z"/><path class="cls-3" d="M1250,656.34s2.29,10.68,13,7.36"/><line class="cls-3" x1="1285.42" y1="624.1" x2="1300.48" y2="632.65"/><line class="cls-3" x1="1269.72" y1="651.77" x2="1284.78" y2="660.32"/><line class="cls-3" x1="1289.8" y1="635.88" x2="1282.08" y2="649.49"/><line class="cls-3" x1="1284.78" y1="660.32" x2="1288.77" y2="653.29"/><line class="cls-3" x1="1296.49" y1="639.68" x2="1300.48" y2="632.65"/><line class="cls-3" x1="1288.77" y1="653.29" x2="1282.08" y2="649.49"/><line class="cls-3" x1="1296.49" y1="639.68" x2="1289.8" y2="635.88"/><circle class="cls-3" cx="1332.62" cy="525.79" r="26.06"/><circle class="cls-3" cx="1332.62" cy="525.79" r="19.04"/><line class="cls-3" x1="1086.48" y1="800.44" x2="1140.31" y2="705.6"/><line class="cls-3" x1="1146.03" y1="695.51" x2="1150" y2="688.52"/><line class="cls-3" x1="1099.46" y1="807.8" x2="1153.28" y2="712.96"/><line class="cls-3" x1="1159" y1="702.88" x2="1162.97" y2="695.88"/><rect class="cls-3" x="1149.5" y="689.45" width="3.86" height="22.7" rx="1.31" ry="1.31" transform="translate(-26.37 1356.3) rotate(-60.42)"/><rect class="cls-3" x="1147.59" y="692.81" width="3.87" height="22.7" rx="1.32" ry="1.32" transform="translate(-30.26 1356.34) rotate(-60.42)"/><path class="cls-3" d="M1157.79,712.58l-.61,1.08a1.32,1.32,0,0,1-1.8.49l-17.45-9.9a1.32,1.32,0,0,1-.49-1.8l.61-1.07a1.32,1.32,0,0,1,1.79-.5l17.45,9.91A1.31,1.31,0,0,1,1157.79,712.58Z"/><path class="cls-3" d="M1086.48,800.44s2.29,10.68,13,7.36"/><line class="cls-3" x1="1121.95" y1="768.2" x2="1137.01" y2="776.75"/><line class="cls-3" x1="1106.25" y1="795.87" x2="1121.31" y2="804.42"/><line class="cls-3" x1="1126.32" y1="779.98" x2="1118.6" y2="793.59"/><line class="cls-3" x1="1121.31" y1="804.42" x2="1125.3" y2="797.39"/><line class="cls-3" x1="1133.02" y1="783.78" x2="1137.01" y2="776.75"/><line class="cls-3" x1="1125.3" y1="797.39" x2="1118.6" y2="793.59"/><line class="cls-3" x1="1133.02" y1="783.78" x2="1126.32" y2="779.98"/><circle class="cls-3" cx="1169.14" cy="669.89" r="26.06"/><circle class="cls-3" cx="1169.14" cy="669.89" r="19.04"/><line class="cls-3" x1="1249.09" y1="365.11" x2="1302.92" y2="270.27"/><line class="cls-3" x1="1308.64" y1="260.18" x2="1312.61" y2="253.19"/><line class="cls-3" x1="1262.07" y1="372.47" x2="1315.89" y2="277.63"/><line class="cls-3" x1="1321.62" y1="267.55" x2="1325.59" y2="260.55"/><path class="cls-3" d="M1324.21,270.53l-.61,1.08a1.31,1.31,0,0,1-1.79.49l-17.45-9.91a1.31,1.31,0,0,1-.49-1.79l.61-1.07a1.31,1.31,0,0,1,1.78-.5l17.46,9.91A1.31,1.31,0,0,1,1324.21,270.53Z"/><path class="cls-3" d="M1322.31,273.89l-.61,1.07a1.31,1.31,0,0,1-1.8.5l-17.45-9.91a1.31,1.31,0,0,1-.49-1.79l.61-1.07a1.31,1.31,0,0,1,1.79-.5l17.45,9.91A1.31,1.31,0,0,1,1322.31,273.89Z"/><rect class="cls-3" x="1308.29" y="260.84" width="3.87" height="22.7" rx="1.32" ry="1.32" transform="translate(426.81 1277.35) rotate(-60.42)"/><path class="cls-3" d="M1249.09,365.11s2.29,10.68,13,7.36"/><line class="cls-3" x1="1284.56" y1="332.88" x2="1299.62" y2="341.42"/><line class="cls-3" x1="1268.86" y1="360.54" x2="1283.92" y2="369.09"/><line class="cls-3" x1="1288.94" y1="344.65" x2="1281.22" y2="358.26"/><line class="cls-3" x1="1283.92" y1="369.09" x2="1287.91" y2="362.06"/><line class="cls-3" x1="1295.63" y1="348.45" x2="1299.62" y2="341.42"/><line class="cls-3" x1="1287.91" y1="362.06" x2="1281.22" y2="358.26"/><line class="cls-3" x1="1295.63" y1="348.45" x2="1288.94" y2="344.65"/><circle class="cls-3" cx="1331.76" cy="234.57" r="26.06"/><circle class="cls-3" cx="1331.76" cy="234.57" r="19.04"/><line class="cls-3" x1="1086.59" y1="509.73" x2="1140.42" y2="414.88"/><line class="cls-3" x1="1146.14" y1="404.8" x2="1150.11" y2="397.8"/><line class="cls-3" x1="1099.57" y1="517.09" x2="1153.39" y2="422.25"/><line class="cls-3" x1="1159.11" y1="412.16" x2="1163.08" y2="405.17"/><path class="cls-3" d="M1161.71,415.15l-.61,1.07a1.31,1.31,0,0,1-1.79.49l-17.45-9.9a1.32,1.32,0,0,1-.5-1.79l.61-1.08a1.31,1.31,0,0,1,1.79-.49l17.46,9.9A1.33,1.33,0,0,1,1161.71,415.15Z"/><path class="cls-3" d="M1159.81,418.51l-.61,1.07a1.32,1.32,0,0,1-1.8.5L1140,410.17a1.31,1.31,0,0,1-.49-1.79l.61-1.07a1.31,1.31,0,0,1,1.79-.5l17.45,9.9A1.34,1.34,0,0,1,1159.81,418.51Z"/><rect class="cls-3" x="1145.79" y="405.46" width="3.87" height="22.7" rx="1.32" ry="1.32" transform="translate(218.74 1209.26) rotate(-60.42)"/><path class="cls-3" d="M1086.59,509.72s2.29,10.69,13,7.37"/><line class="cls-3" x1="1122.06" y1="477.49" x2="1137.12" y2="486.04"/><line class="cls-3" x1="1106.36" y1="505.16" x2="1121.42" y2="513.7"/><line class="cls-3" x1="1126.43" y1="489.27" x2="1118.72" y2="502.87"/><line class="cls-3" x1="1121.42" y1="513.7" x2="1125.41" y2="506.67"/><line class="cls-3" x1="1133.13" y1="493.07" x2="1137.12" y2="486.04"/><line class="cls-3" x1="1125.41" y1="506.67" x2="1118.72" y2="502.87"/><line class="cls-3" x1="1133.13" y1="493.07" x2="1126.43" y2="489.27"/><circle class="cls-3" cx="1169.26" cy="379.18" r="26.06"/><circle class="cls-3" cx="1169.26" cy="379.18" r="19.04"/><line class="cls-3" x1="1087.28" y1="218.4" x2="1141.1" y2="123.56"/><line class="cls-3" x1="1146.82" y1="113.48" x2="1150.79" y2="106.48"/><line class="cls-3" x1="1100.25" y1="225.77" x2="1154.08" y2="130.92"/><line class="cls-3" x1="1159.8" y1="120.84" x2="1163.77" y2="113.84"/><rect class="cls-3" x="1150.29" y="107.41" width="3.86" height="22.7" rx="1.31" ry="1.31" transform="translate(480.23 1062.23) rotate(-60.42)"/><rect class="cls-3" x="1148.38" y="110.77" width="3.87" height="22.7" rx="1.32" ry="1.32" transform="translate(476.34 1062.28) rotate(-60.42)"/><path class="cls-3" d="M1158.58,130.55l-.61,1.07a1.31,1.31,0,0,1-1.79.49l-17.45-9.9a1.31,1.31,0,0,1-.5-1.79l.61-1.07a1.31,1.31,0,0,1,1.79-.5l17.46,9.9A1.32,1.32,0,0,1,1158.58,130.55Z"/><path class="cls-3" d="M1087.28,218.4s2.29,10.68,13,7.36"/><line class="cls-3" x1="1122.74" y1="186.17" x2="1137.8" y2="194.72"/><line class="cls-3" x1="1107.04" y1="213.83" x2="1122.1" y2="222.38"/><line class="cls-3" x1="1127.12" y1="197.95" x2="1119.4" y2="211.55"/><line class="cls-3" x1="1122.1" y1="222.38" x2="1126.09" y2="215.35"/><line class="cls-3" x1="1133.81" y1="201.75" x2="1137.8" y2="194.72"/><line class="cls-3" x1="1126.09" y1="215.35" x2="1119.4" y2="211.55"/><line class="cls-3" x1="1133.81" y1="201.75" x2="1127.12" y2="197.95"/><circle class="cls-3" cx="1169.94" cy="87.86" r="26.06"/><circle class="cls-3" cx="1169.94" cy="87.86" r="19.04"/><line class="cls-3" x1="1413.2" y1="218.4" x2="1467.02" y2="123.56"/><line class="cls-3" x1="1472.74" y1="113.48" x2="1476.71" y2="106.48"/><line class="cls-3" x1="1426.17" y1="225.77" x2="1480" y2="130.92"/><line class="cls-3" x1="1485.72" y1="120.84" x2="1489.69" y2="113.84"/><path class="cls-3" d="M1488.32,123.82l-.61,1.08a1.32,1.32,0,0,1-1.8.49l-17.45-9.9a1.31,1.31,0,0,1-.49-1.79l.61-1.08a1.31,1.31,0,0,1,1.79-.49l17.45,9.9A1.31,1.31,0,0,1,1488.32,123.82Z"/><path class="cls-3" d="M1486.41,127.19l-.61,1.07a1.31,1.31,0,0,1-1.79.49l-17.46-9.9a1.32,1.32,0,0,1-.49-1.8l.61-1.07a1.31,1.31,0,0,1,1.79-.49l17.45,9.9A1.31,1.31,0,0,1,1486.41,127.19Z"/><path class="cls-3" d="M1484.5,130.55l-.61,1.07a1.31,1.31,0,0,1-1.79.49l-17.45-9.9a1.31,1.31,0,0,1-.5-1.79l.61-1.07a1.31,1.31,0,0,1,1.79-.5l17.46,9.9A1.32,1.32,0,0,1,1484.5,130.55Z"/><path class="cls-3" d="M1413.2,218.4s2.29,10.68,13,7.36"/><line class="cls-3" x1="1448.66" y1="186.17" x2="1463.72" y2="194.72"/><line class="cls-3" x1="1432.96" y1="213.83" x2="1448.02" y2="222.38"/><line class="cls-3" x1="1453.04" y1="197.95" x2="1445.32" y2="211.55"/><line class="cls-3" x1="1448.02" y1="222.38" x2="1452.01" y2="215.35"/><line class="cls-3" x1="1459.73" y1="201.75" x2="1463.72" y2="194.72"/><line class="cls-3" x1="1452.01" y1="215.35" x2="1445.32" y2="211.55"/><line class="cls-3" x1="1459.73" y1="201.75" x2="1453.04" y2="197.95"/><circle class="cls-3" cx="1495.86" cy="87.86" r="26.06"/><circle class="cls-3" cx="1495.86" cy="87.86" r="19.04"/><line class="cls-3" x1="1413.2" y1="509.73" x2="1467.02" y2="414.88"/><line class="cls-3" x1="1472.74" y1="404.8" x2="1476.71" y2="397.8"/><line class="cls-3" x1="1426.17" y1="517.09" x2="1480" y2="422.25"/><line class="cls-3" x1="1485.72" y1="412.16" x2="1489.69" y2="405.17"/><rect class="cls-3" x="1476.21" y="398.73" width="3.86" height="22.7" rx="1.31" ry="1.31" transform="translate(391.92 1493.22) rotate(-60.42)"/><path class="cls-3" d="M1486.41,418.51l-.61,1.07a1.31,1.31,0,0,1-1.79.5l-17.46-9.91a1.31,1.31,0,0,1-.49-1.79l.61-1.07a1.31,1.31,0,0,1,1.79-.5l17.45,9.9A1.32,1.32,0,0,1,1486.41,418.51Z"/><rect class="cls-3" x="1472.39" y="405.46" width="3.87" height="22.7" rx="1.32" ry="1.32" transform="translate(384.14 1493.31) rotate(-60.42)"/><path class="cls-3" d="M1413.2,509.72s2.29,10.69,13,7.37"/><line class="cls-3" x1="1448.66" y1="477.49" x2="1463.72" y2="486.04"/><line class="cls-3" x1="1432.96" y1="505.16" x2="1448.02" y2="513.7"/><line class="cls-3" x1="1453.04" y1="489.27" x2="1445.32" y2="502.87"/><line class="cls-3" x1="1448.02" y1="513.7" x2="1452.01" y2="506.67"/><line class="cls-3" x1="1459.73" y1="493.07" x2="1463.72" y2="486.04"/><line class="cls-3" x1="1452.01" y1="506.67" x2="1445.32" y2="502.87"/><line class="cls-3" x1="1459.73" y1="493.07" x2="1453.04" y2="489.27"/><circle class="cls-3" cx="1495.86" cy="379.18" r="26.06"/><circle class="cls-3" cx="1495.86" cy="379.18" r="19.04"/><line class="cls-3" x1="1415.43" y1="802.08" x2="1469.26" y2="707.24"/><line class="cls-3" x1="1474.98" y1="697.15" x2="1478.95" y2="690.16"/><line class="cls-3" x1="1428.41" y1="809.44" x2="1482.24" y2="714.6"/><line class="cls-3" x1="1487.96" y1="704.52" x2="1491.93" y2="697.52"/><path class="cls-3" d="M1490.56,707.5l-.61,1.08a1.32,1.32,0,0,1-1.8.49l-17.45-9.91a1.31,1.31,0,0,1-.49-1.79l.61-1.07a1.32,1.32,0,0,1,1.79-.5l17.45,9.91A1.32,1.32,0,0,1,1490.56,707.5Z"/><rect class="cls-3" x="1476.54" y="694.45" width="3.87" height="22.7" rx="1.32" ry="1.32" transform="translate(134.9 1643.27) rotate(-60.42)"/><rect class="cls-3" x="1474.63" y="697.81" width="3.87" height="22.7" rx="1.32" ry="1.32" transform="translate(131.01 1643.31) rotate(-60.42)"/><path class="cls-3" d="M1415.43,802.08s2.29,10.68,13,7.36"/><line class="cls-3" x1="1450.9" y1="769.85" x2="1465.96" y2="778.39"/><line class="cls-3" x1="1435.2" y1="797.51" x2="1450.26" y2="806.06"/><line class="cls-3" x1="1455.28" y1="781.63" x2="1447.56" y2="795.23"/><line class="cls-3" x1="1450.26" y1="806.06" x2="1454.25" y2="799.03"/><line class="cls-3" x1="1461.97" y1="785.42" x2="1465.96" y2="778.39"/><line class="cls-3" x1="1454.25" y1="799.03" x2="1447.56" y2="795.23"/><line class="cls-3" x1="1461.97" y1="785.42" x2="1455.28" y2="781.63"/><circle class="cls-3" cx="1498.1" cy="671.54" r="26.06"/><circle class="cls-3" cx="1498.1" cy="671.54" r="19.04"/><line class="cls-3" x1="107.43" y1="509.73" x2="161.26" y2="414.88"/><line class="cls-3" x1="166.98" y1="404.8" x2="170.95" y2="397.8"/><line class="cls-3" x1="120.41" y1="517.09" x2="174.23" y2="422.25"/><line class="cls-3" x1="179.95" y1="412.16" x2="183.92" y2="405.17"/><path class="cls-3" d="M182.55,415.15l-.61,1.07a1.31,1.31,0,0,1-1.79.49l-17.45-9.9a1.32,1.32,0,0,1-.5-1.79l.61-1.08a1.31,1.31,0,0,1,1.79-.49l17.45,9.9A1.32,1.32,0,0,1,182.55,415.15Z"/><path class="cls-3" d="M180.64,418.51l-.6,1.07a1.32,1.32,0,0,1-1.8.5l-17.45-9.91a1.31,1.31,0,0,1-.49-1.79l.61-1.07a1.31,1.31,0,0,1,1.79-.5l17.45,9.9A1.32,1.32,0,0,1,180.64,418.51Z"/><path class="cls-3" d="M178.74,421.87l-.61,1.07a1.32,1.32,0,0,1-1.8.5l-17.45-9.91a1.31,1.31,0,0,1-.49-1.79l.61-1.07a1.31,1.31,0,0,1,1.79-.5l17.45,9.91A1.31,1.31,0,0,1,178.74,421.87Z"/><path class="cls-3" d="M107.43,509.72s2.29,10.69,13,7.37"/><line class="cls-3" x1="142.9" y1="477.49" x2="157.96" y2="486.04"/><line class="cls-3" x1="127.2" y1="505.16" x2="142.26" y2="513.7"/><line class="cls-3" x1="147.27" y1="489.27" x2="139.55" y2="502.87"/><line class="cls-3" x1="142.26" y1="513.7" x2="146.25" y2="506.67"/><line class="cls-3" x1="153.97" y1="493.07" x2="157.96" y2="486.04"/><line class="cls-3" x1="146.25" y1="506.67" x2="139.55" y2="502.87"/><line class="cls-3" x1="153.97" y1="493.07" x2="147.27" y2="489.27"/><circle class="cls-3" cx="190.09" cy="379.18" r="26.06"/><circle class="cls-3" cx="190.09" cy="379.18" r="19.04"/><line class="cls-3" x1="106.89" y1="800.99" x2="160.72" y2="706.15"/><line class="cls-3" x1="166.44" y1="696.06" x2="170.41" y2="689.07"/><line class="cls-3" x1="119.87" y1="808.35" x2="173.7" y2="713.51"/><line class="cls-3" x1="179.42" y1="703.43" x2="183.39" y2="696.43"/><rect class="cls-3" x="169.91" y="690" width="3.86" height="22.7" rx="1.31" ry="1.31" transform="translate(-522.94 504.63) rotate(-60.42)"/><path class="cls-3" d="M180.11,709.77l-.61,1.07a1.31,1.31,0,0,1-1.8.5l-17.45-9.91a1.31,1.31,0,0,1-.49-1.79l.61-1.07a1.31,1.31,0,0,1,1.79-.5L179.61,708A1.31,1.31,0,0,1,180.11,709.77Z"/><path class="cls-3" d="M178.2,713.14l-.61,1.07a1.31,1.31,0,0,1-1.79.49l-17.46-9.9a1.33,1.33,0,0,1-.49-1.8l.61-1.07a1.32,1.32,0,0,1,1.79-.5l17.45,9.91A1.31,1.31,0,0,1,178.2,713.14Z"/><path class="cls-3" d="M106.89,801s2.29,10.68,13,7.36"/><line class="cls-3" x1="142.36" y1="768.76" x2="157.42" y2="777.3"/><line class="cls-3" x1="126.66" y1="796.42" x2="141.72" y2="804.97"/><line class="cls-3" x1="146.74" y1="780.53" x2="139.02" y2="794.14"/><line class="cls-3" x1="141.72" y1="804.97" x2="145.71" y2="797.94"/><line class="cls-3" x1="153.43" y1="784.33" x2="157.42" y2="777.3"/><line class="cls-3" x1="145.71" y1="797.94" x2="139.02" y2="794.14"/><line class="cls-3" x1="153.43" y1="784.33" x2="146.74" y2="780.53"/><circle class="cls-3" cx="189.56" cy="670.45" r="26.06"/><circle class="cls-3" cx="189.56" cy="670.45" r="19.04"/></svg>