<svg id="Layer_1" data-name="Layer 1" xmlns="http://www.w3.org/2000/svg" viewBox="0 0 1631.06 873.47"><defs><style>.cls-1{fill:#003e6a;}.cls-2{fill:none;stroke:#fff;stroke-miterlimit:10;stroke-width:0.75px;}</style></defs><title>BluePatternClear</title><rect class="cls-1" x="-0.1" y="-1.31" width="1631.06" height="878.63"/><circle class="cls-2" cx="491.97" cy="288.82" r="9.19"/><circle class="cls-2" cx="165.17" cy="288.33" r="9.19"/><circle class="cls-2" cx="818.21" cy="288.59" r="9.19"/><circle class="cls-2" cx="1144.86" cy="288.33" r="9.19"/><circle class="cls-2" cx="1471.01" cy="288.59" r="9.19"/><circle class="cls-2" cx="655.01" cy="142.72" r="9.19"/><circle class="cls-2" cx="328.61" cy="142.72" r="9.19"/><circle class="cls-2" cx="981.41" cy="142.72" r="9.19"/><circle class="cls-2" cx="1307.81" cy="142.72" r="9.19"/><circle class="cls-2" cx="491.97" cy="580.01" r="9.19"/><circle class="cls-2" cx="165.17" cy="579.51" r="9.19"/><circle class="cls-2" cx="818.21" cy="579.78" r="9.19"/><circle class="cls-2" cx="1144.86" cy="579.51" r="9.19"/><circle class="cls-2" cx="1471.01" cy="579.78" r="9.19"/><circle class="cls-2" cx="655.01" cy="433.9" r="9.19"/><circle class="cls-2" cx="328.61" cy="433.9" r="9.19"/><circle class="cls-2" cx="981.41" cy="433.9" r="9.19"/><circle class="cls-2" cx="1307.81" cy="433.9" r="9.19"/><circle class="cls-2" cx="655.05" cy="724.76" r="9.19"/><circle class="cls-2" cx="328.65" cy="724.76" r="9.19"/><circle class="cls-2" cx="981.45" cy="724.76" r="9.19"/><circle class="cls-2" cx="1307.85" cy="724.76" r="9.19"/><line class="cls-2" x1="139.4" y1="103.76" x2="190.93" y2="103.76"/><line class="cls-2" x1="130.73" y1="116.4" x2="199.6" y2="116.4"/><line class="cls-2" x1="201.35" y1="93.72" x2="190.93" y2="103.76"/><line class="cls-2" x1="211.4" y1="107.02" x2="199.6" y2="116.4"/><line class="cls-2" x1="186.41" y1="87.45" x2="201.59" y2="93.83"/><line class="cls-2" x1="129.4" y1="93.72" x2="139.4" y2="103.73"/><line class="cls-2" x1="118.95" y1="107.14" x2="130.73" y2="116.4"/><path class="cls-2" d="M141.73,87.41,129.4,93.72c-1,1.21-9.77,12.43-10.47,13.32,2.15,4.32,45.15,91.49,45.15,91.49"/><line class="cls-2" x1="201.46" y1="93.72" x2="211.41" y2="107.23"/><line class="cls-2" x1="190.93" y1="103.76" x2="199.6" y2="116.4"/><line class="cls-2" x1="172.65" y1="103.76" x2="181.32" y2="116.4"/><line class="cls-2" x1="139.4" y1="103.76" x2="130.73" y2="116.4"/><line class="cls-2" x1="158.1" y1="103.76" x2="149.43" y2="116.4"/><line class="cls-2" x1="149.43" y1="116.4" x2="164.08" y2="198.53"/><line class="cls-2" x1="181.32" y1="116.4" x2="164.08" y2="198.53"/><line class="cls-2" x1="130.73" y1="116.4" x2="164.08" y2="198.53"/><line class="cls-2" x1="199.6" y1="116.4" x2="164.08" y2="198.53"/><line class="cls-2" x1="211.4" y1="107.02" x2="164.08" y2="198.53"/><line class="cls-2" x1="141.64" y1="87.45" x2="186.53" y2="87.45"/><line class="cls-2" x1="139.64" y1="394.74" x2="191.17" y2="394.74"/><line class="cls-2" x1="130.97" y1="407.37" x2="199.84" y2="407.37"/><line class="cls-2" x1="201.58" y1="384.7" x2="191.17" y2="394.74"/><line class="cls-2" x1="211.64" y1="397.99" x2="199.84" y2="407.37"/><line class="cls-2" x1="186.65" y1="378.43" x2="201.82" y2="384.8"/><line class="cls-2" x1="129.63" y1="384.7" x2="139.64" y2="394.7"/><line class="cls-2" x1="119.18" y1="398.12" x2="130.97" y2="407.37"/><path class="cls-2" d="M142,378.38l-12.34,6.32L119.17,398l45.15,91.49"/><line class="cls-2" x1="201.69" y1="384.7" x2="211.65" y2="398.21"/><line class="cls-2" x1="191.17" y1="394.74" x2="199.84" y2="407.37"/><line class="cls-2" x1="172.88" y1="394.74" x2="181.55" y2="407.37"/><line class="cls-2" x1="139.64" y1="394.74" x2="130.97" y2="407.37"/><line class="cls-2" x1="158.34" y1="394.74" x2="149.67" y2="407.37"/><line class="cls-2" x1="149.67" y1="407.37" x2="164.32" y2="489.5"/><line class="cls-2" x1="181.55" y1="407.37" x2="164.32" y2="489.5"/><line class="cls-2" x1="130.97" y1="407.37" x2="164.32" y2="489.5"/><line class="cls-2" x1="199.84" y1="407.37" x2="164.32" y2="489.5"/><line class="cls-2" x1="211.64" y1="397.99" x2="164.32" y2="489.5"/><line class="cls-2" x1="141.87" y1="378.43" x2="186.76" y2="378.43"/><line class="cls-2" x1="139.4" y1="686.03" x2="190.93" y2="686.03"/><line class="cls-2" x1="130.73" y1="698.67" x2="199.6" y2="698.67"/><line class="cls-2" x1="201.35" y1="676" x2="190.93" y2="686.03"/><line class="cls-2" x1="211.4" y1="689.29" x2="199.6" y2="698.67"/><line class="cls-2" x1="186.41" y1="669.73" x2="201.59" y2="676.1"/><line class="cls-2" x1="129.39" y1="676" x2="139.4" y2="686"/><line class="cls-2" x1="118.94" y1="689.41" x2="130.73" y2="698.67"/><path class="cls-2" d="M141.73,669.68,129.39,676l-10.46,13.31,45.15,91.49"/><line class="cls-2" x1="201.46" y1="676" x2="211.41" y2="689.51"/><line class="cls-2" x1="190.93" y1="686.03" x2="199.6" y2="698.67"/><line class="cls-2" x1="172.64" y1="686.03" x2="181.31" y2="698.67"/><line class="cls-2" x1="139.4" y1="686.03" x2="130.73" y2="698.67"/><line class="cls-2" x1="158.1" y1="686.03" x2="149.43" y2="698.67"/><line class="cls-2" x1="149.43" y1="698.67" x2="164.08" y2="780.8"/><line class="cls-2" x1="181.31" y1="698.67" x2="164.08" y2="780.8"/><line class="cls-2" x1="130.73" y1="698.67" x2="164.08" y2="780.8"/><line class="cls-2" x1="199.6" y1="698.67" x2="164.08" y2="780.8"/><line class="cls-2" x1="211.4" y1="689.29" x2="164.08" y2="780.8"/><line class="cls-2" x1="141.63" y1="669.73" x2="186.52" y2="669.73"/><line class="cls-2" x1="303.36" y1="251.05" x2="354.89" y2="251.05"/><line class="cls-2" x1="294.69" y1="263.69" x2="363.57" y2="263.69"/><line class="cls-2" x1="365.31" y1="241.01" x2="354.89" y2="251.05"/><line class="cls-2" x1="375.36" y1="254.31" x2="363.57" y2="263.69"/><line class="cls-2" x1="350.37" y1="234.74" x2="365.55" y2="241.12"/><line class="cls-2" x1="293.36" y1="241.01" x2="303.36" y2="251.02"/><line class="cls-2" x1="282.91" y1="254.43" x2="294.69" y2="263.69"/><path class="cls-2" d="M305.69,234.7,293.36,241c-1,1.21-9.77,12.43-10.47,13.32C285,258.65,328,345.82,328,345.82"/><line class="cls-2" x1="365.42" y1="241.01" x2="375.37" y2="254.53"/><line class="cls-2" x1="354.89" y1="251.05" x2="363.57" y2="263.69"/><line class="cls-2" x1="336.61" y1="251.05" x2="345.28" y2="263.69"/><line class="cls-2" x1="303.36" y1="251.05" x2="294.69" y2="263.69"/><line class="cls-2" x1="322.06" y1="251.05" x2="313.39" y2="263.69"/><line class="cls-2" x1="313.39" y1="263.69" x2="328.04" y2="345.82"/><line class="cls-2" x1="345.28" y1="263.69" x2="328.04" y2="345.82"/><line class="cls-2" x1="294.69" y1="263.69" x2="328.04" y2="345.82"/><line class="cls-2" x1="363.57" y1="263.69" x2="328.04" y2="345.82"/><line class="cls-2" x1="375.36" y1="254.31" x2="328.04" y2="345.82"/><line class="cls-2" x1="305.6" y1="234.74" x2="350.49" y2="234.74"/><line class="cls-2" x1="304.38" y1="541.66" x2="355.91" y2="541.66"/><line class="cls-2" x1="295.71" y1="554.3" x2="364.58" y2="554.3"/><line class="cls-2" x1="366.33" y1="531.62" x2="355.91" y2="541.66"/><line class="cls-2" x1="376.38" y1="544.92" x2="364.58" y2="554.3"/><line class="cls-2" x1="351.39" y1="525.35" x2="366.57" y2="531.72"/><line class="cls-2" x1="294.38" y1="531.62" x2="304.38" y2="541.63"/><line class="cls-2" x1="283.93" y1="545.04" x2="295.71" y2="554.3"/><path class="cls-2" d="M306.71,525.3l-12.33,6.32c-1,1.21-9.77,12.42-10.47,13.32,2.14,4.32,45.15,91.48,45.15,91.48"/><line class="cls-2" x1="366.44" y1="531.62" x2="376.39" y2="545.13"/><line class="cls-2" x1="355.91" y1="541.66" x2="364.58" y2="554.3"/><line class="cls-2" x1="337.62" y1="541.66" x2="346.29" y2="554.3"/><line class="cls-2" x1="304.38" y1="541.66" x2="295.71" y2="554.3"/><line class="cls-2" x1="323.08" y1="541.66" x2="314.41" y2="554.3"/><line class="cls-2" x1="314.41" y1="554.3" x2="329.06" y2="636.42"/><line class="cls-2" x1="346.29" y1="554.3" x2="329.06" y2="636.42"/><line class="cls-2" x1="295.71" y1="554.3" x2="329.06" y2="636.42"/><line class="cls-2" x1="364.58" y1="554.3" x2="329.06" y2="636.42"/><line class="cls-2" x1="376.38" y1="544.92" x2="329.06" y2="636.42"/><line class="cls-2" x1="306.61" y1="525.35" x2="351.5" y2="525.35"/><line class="cls-2" x1="466.04" y1="687.47" x2="517.57" y2="687.47"/><line class="cls-2" x1="457.37" y1="700.11" x2="526.24" y2="700.11"/><line class="cls-2" x1="527.99" y1="677.44" x2="517.57" y2="687.47"/><line class="cls-2" x1="538.04" y1="690.73" x2="526.24" y2="700.11"/><line class="cls-2" x1="513.05" y1="671.17" x2="528.23" y2="677.54"/><line class="cls-2" x1="456.03" y1="677.44" x2="466.04" y2="687.44"/><line class="cls-2" x1="445.58" y1="690.85" x2="457.37" y2="700.11"/><path class="cls-2" d="M468.37,671.12,456,677.44l-10.46,13.31c2.14,4.32,45.15,91.49,45.15,91.49"/><line class="cls-2" x1="528.1" y1="677.44" x2="538.05" y2="690.95"/><line class="cls-2" x1="517.57" y1="687.47" x2="526.24" y2="700.11"/><line class="cls-2" x1="499.28" y1="687.47" x2="507.95" y2="700.11"/><line class="cls-2" x1="466.04" y1="687.47" x2="457.37" y2="700.11"/><line class="cls-2" x1="484.74" y1="687.47" x2="476.07" y2="700.11"/><line class="cls-2" x1="476.07" y1="700.11" x2="490.72" y2="782.24"/><line class="cls-2" x1="507.95" y1="700.11" x2="490.72" y2="782.24"/><line class="cls-2" x1="457.37" y1="700.11" x2="490.72" y2="782.24"/><line class="cls-2" x1="526.24" y1="700.11" x2="490.72" y2="782.24"/><line class="cls-2" x1="538.04" y1="690.73" x2="490.72" y2="782.24"/><line class="cls-2" x1="468.27" y1="671.17" x2="513.16" y2="671.17"/><line class="cls-2" x1="466.08" y1="396.38" x2="517.61" y2="396.38"/><line class="cls-2" x1="457.41" y1="409.02" x2="526.28" y2="409.02"/><line class="cls-2" x1="528.03" y1="386.35" x2="517.61" y2="396.38"/><line class="cls-2" x1="538.08" y1="399.64" x2="526.28" y2="409.02"/><line class="cls-2" x1="513.09" y1="380.08" x2="528.27" y2="386.45"/><line class="cls-2" x1="456.08" y1="386.35" x2="466.08" y2="396.35"/><line class="cls-2" x1="445.63" y1="399.76" x2="457.41" y2="409.02"/><path class="cls-2" d="M468.41,380l-12.33,6.32c-1,1.2-9.77,12.42-10.47,13.31,2.14,4.32,45.15,91.49,45.15,91.49"/><line class="cls-2" x1="528.14" y1="386.35" x2="538.09" y2="399.86"/><line class="cls-2" x1="517.61" y1="396.38" x2="526.28" y2="409.02"/><line class="cls-2" x1="499.32" y1="396.38" x2="507.99" y2="409.02"/><line class="cls-2" x1="466.08" y1="396.38" x2="457.41" y2="409.02"/><line class="cls-2" x1="484.78" y1="396.38" x2="476.11" y2="409.02"/><line class="cls-2" x1="476.11" y1="409.02" x2="490.76" y2="491.15"/><line class="cls-2" x1="507.99" y1="409.02" x2="490.76" y2="491.15"/><line class="cls-2" x1="457.41" y1="409.02" x2="490.76" y2="491.15"/><line class="cls-2" x1="526.28" y1="409.02" x2="490.76" y2="491.15"/><line class="cls-2" x1="538.08" y1="399.64" x2="490.76" y2="491.15"/><line class="cls-2" x1="468.31" y1="380.08" x2="513.2" y2="380.08"/><line class="cls-2" x1="466.08" y1="103.09" x2="517.61" y2="103.09"/><line class="cls-2" x1="457.41" y1="115.72" x2="526.28" y2="115.72"/><line class="cls-2" x1="528.03" y1="93.05" x2="517.61" y2="103.09"/><line class="cls-2" x1="538.08" y1="106.34" x2="526.28" y2="115.72"/><line class="cls-2" x1="513.09" y1="86.78" x2="528.27" y2="93.15"/><line class="cls-2" x1="456.08" y1="93.05" x2="466.08" y2="103.05"/><line class="cls-2" x1="445.63" y1="106.47" x2="457.41" y2="115.72"/><path class="cls-2" d="M468.41,86.73l-12.33,6.32c-1,1.21-9.77,12.42-10.47,13.31l45.15,91.49"/><line class="cls-2" x1="528.14" y1="93.05" x2="538.09" y2="106.56"/><line class="cls-2" x1="517.61" y1="103.09" x2="526.28" y2="115.72"/><line class="cls-2" x1="499.32" y1="103.09" x2="507.99" y2="115.72"/><line class="cls-2" x1="466.08" y1="103.09" x2="457.41" y2="115.72"/><line class="cls-2" x1="484.78" y1="103.09" x2="476.11" y2="115.72"/><line class="cls-2" x1="476.11" y1="115.72" x2="490.76" y2="197.85"/><line class="cls-2" x1="507.99" y1="115.72" x2="490.76" y2="197.85"/><line class="cls-2" x1="457.41" y1="115.72" x2="490.76" y2="197.85"/><line class="cls-2" x1="526.28" y1="115.72" x2="490.76" y2="197.85"/><line class="cls-2" x1="538.08" y1="106.34" x2="490.76" y2="197.85"/><line class="cls-2" x1="468.31" y1="86.78" x2="513.2" y2="86.78"/><line class="cls-2" x1="629.86" y1="247.37" x2="681.39" y2="247.37"/><line class="cls-2" x1="621.19" y1="260.01" x2="690.06" y2="260.01"/><line class="cls-2" x1="691.8" y1="237.34" x2="681.39" y2="247.37"/><line class="cls-2" x1="701.86" y1="250.63" x2="690.06" y2="260.01"/><line class="cls-2" x1="676.87" y1="231.07" x2="692.04" y2="237.44"/><line class="cls-2" x1="619.85" y1="237.34" x2="629.86" y2="247.34"/><line class="cls-2" x1="609.4" y1="250.75" x2="621.19" y2="260.01"/><path class="cls-2" d="M632.19,231l-12.34,6.32-10.46,13.31c2.14,4.32,45.15,91.49,45.15,91.49"/><line class="cls-2" x1="691.91" y1="237.34" x2="701.87" y2="250.85"/><line class="cls-2" x1="681.39" y1="247.37" x2="690.06" y2="260.01"/><line class="cls-2" x1="663.1" y1="247.37" x2="671.77" y2="260.01"/><line class="cls-2" x1="629.86" y1="247.37" x2="621.19" y2="260.01"/><line class="cls-2" x1="648.56" y1="247.37" x2="639.89" y2="260.01"/><line class="cls-2" x1="639.89" y1="260.01" x2="654.54" y2="342.14"/><line class="cls-2" x1="671.77" y1="260.01" x2="654.54" y2="342.14"/><line class="cls-2" x1="621.19" y1="260.01" x2="654.54" y2="342.14"/><line class="cls-2" x1="690.06" y1="260.01" x2="654.54" y2="342.14"/><line class="cls-2" x1="701.86" y1="250.63" x2="654.54" y2="342.14"/><line class="cls-2" x1="632.09" y1="231.07" x2="676.98" y2="231.07"/><line class="cls-2" x1="629.85" y1="540.57" x2="681.38" y2="540.57"/><line class="cls-2" x1="621.18" y1="553.21" x2="690.06" y2="553.21"/><line class="cls-2" x1="691.8" y1="530.53" x2="681.38" y2="540.57"/><line class="cls-2" x1="701.85" y1="543.83" x2="690.06" y2="553.21"/><line class="cls-2" x1="676.86" y1="524.26" x2="692.04" y2="530.63"/><line class="cls-2" x1="619.85" y1="530.53" x2="629.85" y2="540.54"/><line class="cls-2" x1="609.4" y1="543.95" x2="621.18" y2="553.21"/><path class="cls-2" d="M632.18,524.21l-12.33,6.32c-1,1.21-9.76,12.42-10.47,13.32,2.15,4.32,45.15,91.49,45.15,91.49"/><line class="cls-2" x1="691.91" y1="530.53" x2="701.86" y2="544.04"/><line class="cls-2" x1="681.38" y1="540.57" x2="690.06" y2="553.21"/><line class="cls-2" x1="663.1" y1="540.57" x2="671.77" y2="553.21"/><line class="cls-2" x1="629.85" y1="540.57" x2="621.18" y2="553.21"/><line class="cls-2" x1="648.55" y1="540.57" x2="639.88" y2="553.21"/><line class="cls-2" x1="639.88" y1="553.21" x2="654.53" y2="635.34"/><line class="cls-2" x1="671.77" y1="553.21" x2="654.53" y2="635.34"/><line class="cls-2" x1="621.18" y1="553.21" x2="654.53" y2="635.34"/><line class="cls-2" x1="690.06" y1="553.21" x2="654.53" y2="635.34"/><line class="cls-2" x1="701.85" y1="543.83" x2="654.53" y2="635.34"/><line class="cls-2" x1="632.09" y1="524.26" x2="676.98" y2="524.26"/><line class="cls-2" x1="792.64" y1="687.04" x2="844.17" y2="687.04"/><line class="cls-2" x1="783.97" y1="699.68" x2="852.84" y2="699.68"/><line class="cls-2" x1="854.59" y1="677.01" x2="844.17" y2="687.04"/><line class="cls-2" x1="864.64" y1="690.3" x2="852.84" y2="699.68"/><line class="cls-2" x1="839.65" y1="670.74" x2="854.83" y2="677.11"/><line class="cls-2" x1="782.64" y1="677.01" x2="792.64" y2="687.01"/><line class="cls-2" x1="772.19" y1="690.42" x2="783.97" y2="699.68"/><path class="cls-2" d="M795,670.69,782.64,677c-1,1.2-9.77,12.42-10.47,13.31,2.15,4.32,45.15,91.49,45.15,91.49"/><line class="cls-2" x1="854.7" y1="677.01" x2="864.65" y2="690.52"/><line class="cls-2" x1="844.17" y1="687.04" x2="852.84" y2="699.68"/><line class="cls-2" x1="825.89" y1="687.04" x2="834.56" y2="699.68"/><line class="cls-2" x1="792.64" y1="687.04" x2="783.97" y2="699.68"/><line class="cls-2" x1="811.34" y1="687.04" x2="802.67" y2="699.68"/><line class="cls-2" x1="802.67" y1="699.68" x2="817.32" y2="781.81"/><line class="cls-2" x1="834.56" y1="699.68" x2="817.32" y2="781.81"/><line class="cls-2" x1="783.97" y1="699.68" x2="817.32" y2="781.81"/><line class="cls-2" x1="852.84" y1="699.68" x2="817.32" y2="781.81"/><line class="cls-2" x1="864.64" y1="690.3" x2="817.32" y2="781.81"/><line class="cls-2" x1="794.88" y1="670.74" x2="839.76" y2="670.74"/><line class="cls-2" x1="793.95" y1="397.16" x2="845.48" y2="397.16"/><line class="cls-2" x1="785.28" y1="409.8" x2="854.15" y2="409.8"/><line class="cls-2" x1="855.89" y1="387.12" x2="845.48" y2="397.16"/><line class="cls-2" x1="865.95" y1="400.41" x2="854.15" y2="409.8"/><line class="cls-2" x1="840.96" y1="380.85" x2="856.14" y2="387.22"/><line class="cls-2" x1="783.94" y1="387.12" x2="793.95" y2="397.12"/><line class="cls-2" x1="773.49" y1="400.54" x2="785.28" y2="409.8"/><path class="cls-2" d="M796.28,380.8l-12.34,6.32-10.46,13.31,45.15,91.49"/><line class="cls-2" x1="856" y1="387.12" x2="865.96" y2="400.63"/><line class="cls-2" x1="845.48" y1="397.16" x2="854.15" y2="409.8"/><line class="cls-2" x1="827.19" y1="397.16" x2="835.86" y2="409.8"/><line class="cls-2" x1="793.95" y1="397.16" x2="785.28" y2="409.8"/><line class="cls-2" x1="812.65" y1="397.16" x2="803.98" y2="409.8"/><line class="cls-2" x1="803.98" y1="409.8" x2="818.63" y2="491.92"/><line class="cls-2" x1="835.86" y1="409.8" x2="818.63" y2="491.92"/><line class="cls-2" x1="785.28" y1="409.8" x2="818.63" y2="491.92"/><line class="cls-2" x1="854.15" y1="409.8" x2="818.63" y2="491.92"/><line class="cls-2" x1="865.95" y1="400.41" x2="818.63" y2="491.92"/><line class="cls-2" x1="796.18" y1="380.85" x2="841.07" y2="380.85"/><line class="cls-2" x1="792.86" y1="102.74" x2="844.39" y2="102.74"/><line class="cls-2" x1="784.18" y1="115.38" x2="853.06" y2="115.38"/><line class="cls-2" x1="854.8" y1="92.7" x2="844.39" y2="102.74"/><line class="cls-2" x1="864.86" y1="106" x2="853.06" y2="115.38"/><line class="cls-2" x1="839.87" y1="86.43" x2="855.04" y2="92.8"/><line class="cls-2" x1="782.85" y1="92.7" x2="792.86" y2="102.71"/><line class="cls-2" x1="772.4" y1="106.12" x2="784.18" y2="115.38"/><path class="cls-2" d="M795.19,86.38,782.85,92.7,772.39,106c2.14,4.32,45.14,91.48,45.14,91.48"/><line class="cls-2" x1="854.91" y1="92.7" x2="864.86" y2="106.21"/><line class="cls-2" x1="844.39" y1="102.74" x2="853.06" y2="115.38"/><line class="cls-2" x1="826.1" y1="102.74" x2="834.77" y2="115.38"/><line class="cls-2" x1="792.86" y1="102.74" x2="784.18" y2="115.38"/><line class="cls-2" x1="811.56" y1="102.74" x2="802.88" y2="115.38"/><line class="cls-2" x1="802.88" y1="115.38" x2="817.53" y2="197.5"/><line class="cls-2" x1="834.77" y1="115.38" x2="817.53" y2="197.5"/><line class="cls-2" x1="784.18" y1="115.38" x2="817.53" y2="197.5"/><line class="cls-2" x1="853.06" y1="115.38" x2="817.53" y2="197.5"/><line class="cls-2" x1="864.86" y1="106" x2="817.54" y2="197.5"/><line class="cls-2" x1="795.09" y1="86.43" x2="839.98" y2="86.43"/><line class="cls-2" x1="956.35" y1="249.39" x2="1007.88" y2="249.39"/><line class="cls-2" x1="947.68" y1="262.02" x2="1016.56" y2="262.02"/><line class="cls-2" x1="1018.3" y1="239.35" x2="1007.88" y2="249.39"/><line class="cls-2" x1="1028.35" y1="252.64" x2="1016.56" y2="262.02"/><line class="cls-2" x1="1003.36" y1="233.08" x2="1018.54" y2="239.45"/><line class="cls-2" x1="946.35" y1="239.35" x2="956.35" y2="249.35"/><line class="cls-2" x1="935.9" y1="252.77" x2="947.68" y2="262.02"/><path class="cls-2" d="M958.68,233l-12.33,6.32c-1,1.21-9.76,12.42-10.47,13.31C938,257,981,344.15,981,344.15"/><line class="cls-2" x1="1018.41" y1="239.35" x2="1028.36" y2="252.86"/><line class="cls-2" x1="1007.88" y1="249.39" x2="1016.56" y2="262.02"/><line class="cls-2" x1="989.6" y1="249.39" x2="998.27" y2="262.02"/><line class="cls-2" x1="956.35" y1="249.39" x2="947.68" y2="262.02"/><line class="cls-2" x1="975.05" y1="249.39" x2="966.38" y2="262.02"/><line class="cls-2" x1="966.38" y1="262.02" x2="981.03" y2="344.15"/><line class="cls-2" x1="998.27" y1="262.02" x2="981.03" y2="344.15"/><line class="cls-2" x1="947.68" y1="262.02" x2="981.03" y2="344.15"/><line class="cls-2" x1="1016.56" y1="262.02" x2="981.03" y2="344.15"/><line class="cls-2" x1="1028.35" y1="252.64" x2="981.03" y2="344.15"/><line class="cls-2" x1="958.59" y1="233.08" x2="1003.48" y2="233.08"/><line class="cls-2" x1="956.35" y1="540.8" x2="1007.88" y2="540.8"/><line class="cls-2" x1="947.68" y1="553.44" x2="1016.55" y2="553.44"/><line class="cls-2" x1="1018.3" y1="530.76" x2="1007.88" y2="540.8"/><line class="cls-2" x1="1028.35" y1="544.06" x2="1016.55" y2="553.44"/><line class="cls-2" x1="1003.36" y1="524.49" x2="1018.54" y2="530.87"/><line class="cls-2" x1="946.35" y1="530.76" x2="956.35" y2="540.77"/><line class="cls-2" x1="935.89" y1="544.18" x2="947.68" y2="553.44"/><path class="cls-2" d="M958.68,524.45l-12.33,6.31c-1,1.21-9.77,12.43-10.47,13.32C938,548.4,981,635.57,981,635.57"/><line class="cls-2" x1="1018.41" y1="530.76" x2="1028.36" y2="544.28"/><line class="cls-2" x1="1007.88" y1="540.8" x2="1016.55" y2="553.44"/><line class="cls-2" x1="989.59" y1="540.8" x2="998.26" y2="553.44"/><line class="cls-2" x1="956.35" y1="540.8" x2="947.68" y2="553.44"/><line class="cls-2" x1="975.05" y1="540.8" x2="966.38" y2="553.44"/><line class="cls-2" x1="966.38" y1="553.44" x2="981.03" y2="635.57"/><line class="cls-2" x1="998.26" y1="553.44" x2="981.03" y2="635.57"/><line class="cls-2" x1="947.68" y1="553.44" x2="981.03" y2="635.57"/><line class="cls-2" x1="1016.55" y1="553.44" x2="981.03" y2="635.57"/><line class="cls-2" x1="1028.35" y1="544.06" x2="981.03" y2="635.57"/><line class="cls-2" x1="958.58" y1="524.49" x2="1003.47" y2="524.49"/><line class="cls-2" x1="1118.93" y1="686.34" x2="1170.46" y2="686.34"/><line class="cls-2" x1="1110.26" y1="698.98" x2="1179.13" y2="698.98"/><line class="cls-2" x1="1180.88" y1="676.31" x2="1170.46" y2="686.34"/><line class="cls-2" x1="1190.93" y1="689.6" x2="1179.13" y2="698.98"/><line class="cls-2" x1="1165.94" y1="670.04" x2="1181.12" y2="676.41"/><line class="cls-2" x1="1108.93" y1="676.31" x2="1118.93" y2="686.31"/><line class="cls-2" x1="1098.48" y1="689.72" x2="1110.26" y2="698.98"/><path class="cls-2" d="M1121.26,670l-12.33,6.32c-1,1.2-9.77,12.42-10.47,13.31,2.15,4.33,45.15,91.49,45.15,91.49"/><line class="cls-2" x1="1180.99" y1="676.31" x2="1190.94" y2="689.82"/><line class="cls-2" x1="1170.46" y1="686.34" x2="1179.13" y2="698.98"/><line class="cls-2" x1="1152.18" y1="686.34" x2="1160.85" y2="698.98"/><line class="cls-2" x1="1118.93" y1="686.34" x2="1110.26" y2="698.98"/><line class="cls-2" x1="1137.63" y1="686.34" x2="1128.96" y2="698.98"/><line class="cls-2" x1="1128.96" y1="698.98" x2="1143.61" y2="781.11"/><line class="cls-2" x1="1160.85" y1="698.98" x2="1143.61" y2="781.11"/><line class="cls-2" x1="1110.26" y1="698.98" x2="1143.61" y2="781.11"/><line class="cls-2" x1="1179.13" y1="698.98" x2="1143.61" y2="781.11"/><line class="cls-2" x1="1190.93" y1="689.6" x2="1143.61" y2="781.11"/><line class="cls-2" x1="1121.17" y1="670.04" x2="1166.06" y2="670.04"/><line class="cls-2" x1="1118.77" y1="394.22" x2="1170.3" y2="394.22"/><line class="cls-2" x1="1110.1" y1="406.86" x2="1178.97" y2="406.86"/><line class="cls-2" x1="1180.72" y1="384.19" x2="1170.3" y2="394.22"/><line class="cls-2" x1="1190.77" y1="397.48" x2="1178.97" y2="406.86"/><line class="cls-2" x1="1165.78" y1="377.92" x2="1180.96" y2="384.29"/><line class="cls-2" x1="1108.77" y1="384.19" x2="1118.77" y2="394.19"/><line class="cls-2" x1="1098.32" y1="397.61" x2="1110.1" y2="406.86"/><path class="cls-2" d="M1121.1,377.87l-12.33,6.32c-1,1.2-9.77,12.42-10.47,13.31L1143.45,489"/><line class="cls-2" x1="1180.83" y1="384.19" x2="1190.78" y2="397.7"/><line class="cls-2" x1="1170.3" y1="394.22" x2="1178.97" y2="406.86"/><line class="cls-2" x1="1152.01" y1="394.22" x2="1160.69" y2="406.86"/><line class="cls-2" x1="1118.77" y1="394.22" x2="1110.1" y2="406.86"/><line class="cls-2" x1="1137.47" y1="394.22" x2="1128.8" y2="406.86"/><line class="cls-2" x1="1128.8" y1="406.86" x2="1143.45" y2="488.99"/><line class="cls-2" x1="1160.69" y1="406.86" x2="1143.45" y2="488.99"/><line class="cls-2" x1="1110.1" y1="406.86" x2="1143.45" y2="488.99"/><line class="cls-2" x1="1178.97" y1="406.86" x2="1143.45" y2="488.99"/><line class="cls-2" x1="1190.77" y1="397.48" x2="1143.45" y2="488.99"/><line class="cls-2" x1="1121" y1="377.92" x2="1165.89" y2="377.92"/><line class="cls-2" x1="1118.84" y1="103.76" x2="1170.37" y2="103.76"/><line class="cls-2" x1="1110.17" y1="116.4" x2="1179.04" y2="116.4"/><line class="cls-2" x1="1180.79" y1="93.72" x2="1170.37" y2="103.76"/><line class="cls-2" x1="1190.84" y1="107.02" x2="1179.04" y2="116.4"/><line class="cls-2" x1="1165.85" y1="87.45" x2="1181.03" y2="93.83"/><line class="cls-2" x1="1108.84" y1="93.72" x2="1118.84" y2="103.73"/><line class="cls-2" x1="1098.39" y1="107.14" x2="1110.17" y2="116.4"/><path class="cls-2" d="M1121.17,87.41l-12.33,6.31c-1,1.21-9.77,12.43-10.47,13.32,2.14,4.32,45.15,91.49,45.15,91.49"/><line class="cls-2" x1="1180.9" y1="93.72" x2="1190.85" y2="107.23"/><line class="cls-2" x1="1170.37" y1="103.76" x2="1179.04" y2="116.4"/><line class="cls-2" x1="1152.08" y1="103.76" x2="1160.75" y2="116.4"/><line class="cls-2" x1="1118.84" y1="103.76" x2="1110.17" y2="116.4"/><line class="cls-2" x1="1137.54" y1="103.76" x2="1128.87" y2="116.4"/><line class="cls-2" x1="1128.87" y1="116.4" x2="1143.52" y2="198.53"/><line class="cls-2" x1="1160.75" y1="116.4" x2="1143.52" y2="198.53"/><line class="cls-2" x1="1110.17" y1="116.4" x2="1143.52" y2="198.53"/><line class="cls-2" x1="1179.04" y1="116.4" x2="1143.52" y2="198.53"/><line class="cls-2" x1="1190.84" y1="107.02" x2="1143.52" y2="198.53"/><line class="cls-2" x1="1121.07" y1="87.45" x2="1165.96" y2="87.45"/><line class="cls-2" x1="1446.58" y1="103.76" x2="1498.11" y2="103.76"/><line class="cls-2" x1="1437.9" y1="116.4" x2="1506.78" y2="116.4"/><line class="cls-2" x1="1508.52" y1="93.72" x2="1498.11" y2="103.76"/><line class="cls-2" x1="1518.58" y1="107.02" x2="1506.78" y2="116.4"/><line class="cls-2" x1="1493.59" y1="87.45" x2="1508.76" y2="93.83"/><line class="cls-2" x1="1436.57" y1="93.72" x2="1446.58" y2="103.73"/><line class="cls-2" x1="1426.12" y1="107.14" x2="1437.9" y2="116.4"/><path class="cls-2" d="M1448.91,87.41l-12.34,6.31L1426.11,107c2.14,4.32,45.14,91.49,45.14,91.49"/><line class="cls-2" x1="1508.63" y1="93.72" x2="1518.58" y2="107.23"/><line class="cls-2" x1="1498.11" y1="103.76" x2="1506.78" y2="116.4"/><line class="cls-2" x1="1479.82" y1="103.76" x2="1488.49" y2="116.4"/><line class="cls-2" x1="1446.58" y1="103.76" x2="1437.9" y2="116.4"/><line class="cls-2" x1="1465.28" y1="103.76" x2="1456.61" y2="116.4"/><line class="cls-2" x1="1456.61" y1="116.4" x2="1471.25" y2="198.53"/><line class="cls-2" x1="1488.49" y1="116.4" x2="1471.25" y2="198.53"/><line class="cls-2" x1="1437.9" y1="116.4" x2="1471.25" y2="198.53"/><line class="cls-2" x1="1506.78" y1="116.4" x2="1471.25" y2="198.53"/><line class="cls-2" x1="1518.58" y1="107.02" x2="1471.26" y2="198.53"/><line class="cls-2" x1="1448.81" y1="87.45" x2="1493.7" y2="87.45"/><line class="cls-2" x1="1283.09" y1="248.46" x2="1334.62" y2="248.46"/><line class="cls-2" x1="1274.42" y1="261.1" x2="1343.29" y2="261.1"/><line class="cls-2" x1="1345.04" y1="238.42" x2="1334.62" y2="248.46"/><line class="cls-2" x1="1355.09" y1="251.72" x2="1343.29" y2="261.1"/><line class="cls-2" x1="1330.1" y1="232.15" x2="1345.28" y2="238.53"/><line class="cls-2" x1="1273.09" y1="238.42" x2="1283.09" y2="248.43"/><line class="cls-2" x1="1262.64" y1="251.84" x2="1274.42" y2="261.1"/><path class="cls-2" d="M1285.42,232.11l-12.33,6.31c-1,1.21-9.77,12.43-10.47,13.32,2.14,4.32,45.15,91.49,45.15,91.49"/><line class="cls-2" x1="1345.15" y1="238.42" x2="1355.1" y2="251.94"/><line class="cls-2" x1="1334.62" y1="248.46" x2="1343.29" y2="261.1"/><line class="cls-2" x1="1316.33" y1="248.46" x2="1325.01" y2="261.1"/><line class="cls-2" x1="1283.09" y1="248.46" x2="1274.42" y2="261.1"/><line class="cls-2" x1="1301.79" y1="248.46" x2="1293.12" y2="261.1"/><line class="cls-2" x1="1293.12" y1="261.1" x2="1307.77" y2="343.23"/><line class="cls-2" x1="1325.01" y1="261.1" x2="1307.77" y2="343.23"/><line class="cls-2" x1="1274.42" y1="261.1" x2="1307.77" y2="343.23"/><line class="cls-2" x1="1343.29" y1="261.1" x2="1307.77" y2="343.23"/><line class="cls-2" x1="1355.09" y1="251.72" x2="1307.77" y2="343.23"/><line class="cls-2" x1="1285.32" y1="232.15" x2="1330.21" y2="232.15"/><line class="cls-2" x1="1445.48" y1="394.7" x2="1497.02" y2="394.7"/><line class="cls-2" x1="1436.81" y1="407.33" x2="1505.69" y2="407.33"/><line class="cls-2" x1="1507.43" y1="384.66" x2="1497.02" y2="394.7"/><line class="cls-2" x1="1517.48" y1="397.95" x2="1505.69" y2="407.33"/><line class="cls-2" x1="1492.5" y1="378.39" x2="1507.67" y2="384.76"/><line class="cls-2" x1="1435.48" y1="384.66" x2="1445.48" y2="394.66"/><line class="cls-2" x1="1425.03" y1="398.08" x2="1436.81" y2="407.33"/><path class="cls-2" d="M1447.81,378.34l-12.33,6.32L1425,398l45.14,91.49"/><line class="cls-2" x1="1507.54" y1="384.66" x2="1517.49" y2="398.17"/><line class="cls-2" x1="1497.02" y1="394.7" x2="1505.69" y2="407.33"/><line class="cls-2" x1="1478.73" y1="394.7" x2="1487.4" y2="407.33"/><line class="cls-2" x1="1445.48" y1="394.7" x2="1436.81" y2="407.33"/><line class="cls-2" x1="1464.19" y1="394.7" x2="1455.51" y2="407.33"/><line class="cls-2" x1="1455.51" y1="407.33" x2="1470.16" y2="489.46"/><line class="cls-2" x1="1487.4" y1="407.33" x2="1470.16" y2="489.46"/><line class="cls-2" x1="1436.81" y1="407.33" x2="1470.16" y2="489.46"/><line class="cls-2" x1="1505.69" y1="407.33" x2="1470.16" y2="489.46"/><line class="cls-2" x1="1517.48" y1="397.95" x2="1470.17" y2="489.46"/><line class="cls-2" x1="1447.72" y1="378.39" x2="1492.61" y2="378.39"/><line class="cls-2" x1="1281.3" y1="538.89" x2="1332.84" y2="538.89"/><line class="cls-2" x1="1272.63" y1="551.52" x2="1341.51" y2="551.52"/><line class="cls-2" x1="1343.25" y1="528.85" x2="1332.84" y2="538.89"/><line class="cls-2" x1="1353.3" y1="542.14" x2="1341.51" y2="551.52"/><line class="cls-2" x1="1328.32" y1="522.58" x2="1343.49" y2="528.95"/><line class="cls-2" x1="1271.3" y1="528.85" x2="1281.3" y2="538.85"/><line class="cls-2" x1="1260.85" y1="542.27" x2="1272.63" y2="551.52"/><path class="cls-2" d="M1283.63,522.53l-12.33,6.32-10.46,13.31L1306,633.65"/><line class="cls-2" x1="1343.36" y1="528.85" x2="1353.31" y2="542.36"/><line class="cls-2" x1="1332.84" y1="538.89" x2="1341.51" y2="551.52"/><line class="cls-2" x1="1314.55" y1="538.89" x2="1323.22" y2="551.52"/><line class="cls-2" x1="1281.3" y1="538.89" x2="1272.63" y2="551.52"/><line class="cls-2" x1="1300" y1="538.89" x2="1291.33" y2="551.52"/><line class="cls-2" x1="1291.33" y1="551.52" x2="1305.98" y2="633.65"/><line class="cls-2" x1="1323.22" y1="551.52" x2="1305.98" y2="633.65"/><line class="cls-2" x1="1272.63" y1="551.52" x2="1305.98" y2="633.65"/><line class="cls-2" x1="1341.51" y1="551.52" x2="1305.98" y2="633.65"/><line class="cls-2" x1="1353.3" y1="542.14" x2="1305.99" y2="633.65"/><line class="cls-2" x1="1283.54" y1="522.58" x2="1328.43" y2="522.58"/><line class="cls-2" x1="1446.57" y1="685.55" x2="1498.1" y2="685.55"/><line class="cls-2" x1="1437.9" y1="698.19" x2="1506.77" y2="698.19"/><line class="cls-2" x1="1508.52" y1="675.52" x2="1498.1" y2="685.55"/><line class="cls-2" x1="1518.57" y1="688.81" x2="1506.77" y2="698.19"/><line class="cls-2" x1="1493.58" y1="669.25" x2="1508.76" y2="675.62"/><line class="cls-2" x1="1436.57" y1="675.52" x2="1446.57" y2="685.52"/><line class="cls-2" x1="1426.12" y1="688.93" x2="1437.9" y2="698.19"/><path class="cls-2" d="M1448.9,669.2l-12.33,6.32c-1,1.2-9.77,12.42-10.47,13.31,2.15,4.32,45.15,91.49,45.15,91.49"/><line class="cls-2" x1="1508.63" y1="675.52" x2="1518.58" y2="689.03"/><line class="cls-2" x1="1498.1" y1="685.55" x2="1506.77" y2="698.19"/><line class="cls-2" x1="1479.82" y1="685.55" x2="1488.49" y2="698.19"/><line class="cls-2" x1="1446.57" y1="685.55" x2="1437.9" y2="698.19"/><line class="cls-2" x1="1465.27" y1="685.55" x2="1456.6" y2="698.19"/><line class="cls-2" x1="1456.6" y1="698.19" x2="1471.25" y2="780.32"/><line class="cls-2" x1="1488.49" y1="698.19" x2="1471.25" y2="780.32"/><line class="cls-2" x1="1437.9" y1="698.19" x2="1471.25" y2="780.32"/><line class="cls-2" x1="1506.77" y1="698.19" x2="1471.25" y2="780.32"/><line class="cls-2" x1="1518.57" y1="688.81" x2="1471.25" y2="780.32"/><line class="cls-2" x1="1448.81" y1="669.25" x2="1493.7" y2="669.25"/></svg>